<svg width="35" height="35" viewBox="0 0 35 35" fill="none" xmlns="http://www.w3.org/2000/svg">
<path d="M5.56353 14.2266L14.0824 13.1577C14.1518 13.149 14.2118 13.1053 14.2415 13.0421L17.9015 5.24532C18.0081 5.033 18.3362 4.59561 18.7965 4.54465C19.2568 4.4937 19.585 4.99053 19.6915 5.24532L23.4149 13.1054C23.445 13.1688 23.5056 13.2124 23.5754 13.2206L32.1575 14.2266C32.4558 14.269 33.0653 14.4686 33.1164 14.9272C33.1676 15.3858 32.7968 15.8827 32.605 16.0738L26.298 21.7295C26.2447 21.7773 26.2204 21.8494 26.2339 21.9197L27.8743 30.4692C27.9382 30.7878 28.0022 31.3611 27.6186 31.6158C27.2525 31.8588 26.6171 31.7008 26.34 31.5522L18.8956 27.3404C18.834 27.3056 18.7588 27.3052 18.6968 27.3393L10.9497 31.6067C10.9388 31.6127 10.9276 31.6177 10.9157 31.6214C10.6521 31.7041 10.0966 31.7734 9.84656 31.4247C9.59085 31.068 9.61216 30.6391 9.65478 30.4692L11.2953 22.1077C11.3088 22.0391 11.2862 21.9684 11.2354 21.9204L4.93917 15.9605C4.92925 15.9511 4.91835 15.9429 4.90707 15.9351C4.73442 15.8169 4.45621 15.4694 4.6046 14.9272C4.75803 14.3667 5.30781 14.2266 5.56353 14.2266Z" fill="url(#paint0_linear_8304_7673)" fill-opacity="0.8"/>
<path d="M2.00103 12.6855L10.6313 11.6027L14.339 3.7043C14.4456 3.49198 14.7737 3.0546 15.234 3.00364C15.6943 2.95268 16.0225 3.44952 16.129 3.7043L19.9008 11.6664L28.595 12.6855C28.8933 12.728 29.5028 12.9276 29.5539 13.3862C29.6051 13.8448 29.2343 14.3417 29.0425 14.5327L22.6497 20.2654L24.3118 28.9282C24.3757 29.2468 24.4397 29.82 24.0561 30.0747C23.69 30.3178 23.0546 30.1598 22.7775 30.0111L15.234 25.7434L7.37084 30.0747C7.11513 30.1597 6.53978 30.2404 6.28406 29.8836C6.02835 29.5269 6.04966 29.0981 6.09228 28.9282L7.75441 20.4565L1.36175 14.4053C1.19127 14.2992 0.888677 13.9467 1.0421 13.3862C1.19553 12.8257 1.74531 12.6855 2.00103 12.6855Z" stroke="#444444" stroke-width="0.98" stroke-linejoin="round"/>
<defs>
<linearGradient id="paint0_linear_8304_7673" x1="18.8419" y1="4.54102" x2="25.1313" y2="32.1475" gradientUnits="userSpaceOnUse">
<stop stop-color="#929EFF"/>
<stop offset="1" stop-color="#6070E9"/>
</linearGradient>
</defs>
</svg>
