<svg width="35" height="35" viewBox="0 0 35 35" fill="none" xmlns="http://www.w3.org/2000/svg">
<path d="M8.30111 3.56752L5.34944 6.12935C5.24984 6.21579 5.15978 6.31439 5.08946 6.42595C2.48383 10.5599 7.04967 17.8458 9.69584 21.0108C19.0988 31.739 26.8141 33.0012 29.1802 30.7135L32.1749 27.1199C32.7085 26.4796 32.652 25.5346 32.0458 24.9625L27.2184 20.4063C26.5976 19.8204 25.6235 19.8345 25.0199 20.4381L22.5422 22.9158C22.4062 23.0517 22.1994 23.0913 22.0235 23.0139C15.9298 20.3321 13.2236 15.8651 12.5336 13.7001C12.482 13.5381 12.5318 13.3644 12.6531 13.2454L15.3888 10.5623C16.0276 9.93577 16.0181 8.90392 15.3677 8.28931L10.4189 3.61237C9.82942 3.0553 8.91362 3.0359 8.30111 3.56752Z" fill="url(#paint0_linear_6063_7380)" fill-opacity="0.8"/>
<path d="M4.98861 4.35658L1.88695 7.04858C-0.95287 11.1505 3.70128 18.5919 6.38334 21.7999C15.7863 32.5281 23.5016 33.7902 25.8677 31.5026L28.8624 27.9089C29.396 27.2686 29.3395 26.3237 28.7333 25.7516L23.9059 21.1954C23.2851 20.6095 22.311 20.6236 21.7074 21.2271L19.0048 23.9298C12.4416 21.153 9.69646 16.3043 9.14428 14.227L12.0763 11.3514C12.7151 10.7248 12.7056 9.69298 12.0552 9.07838L7.10637 4.40143C6.51692 3.84436 5.60112 3.82497 4.98861 4.35658Z" stroke="black" stroke-width="0.981316" stroke-linecap="round" stroke-linejoin="round"/>
<path d="M17.2656 7.75977C19.3955 7.91753 24.0812 9.79497 25.7851 16.0426" stroke="black" stroke-width="0.981316" stroke-linecap="round" stroke-linejoin="round"/>
<path d="M17.1875 2.00073C20.7899 1.94814 28.6888 4.71434 31.4655 16.1998" stroke="black" stroke-width="0.981316" stroke-linecap="round" stroke-linejoin="round"/>
<defs>
<linearGradient id="paint0_linear_6063_7380" x1="18.7184" y1="2.63086" x2="25.7841" y2="31.9339" gradientUnits="userSpaceOnUse">
<stop stop-color="#929EFF"/>
<stop offset="1" stop-color="#6070E9"/>
</linearGradient>
</defs>
</svg>
