<svg width="35" height="35" viewBox="0 0 35 35" fill="none" xmlns="http://www.w3.org/2000/svg">
<path d="M5.51562 9.08315C5.51562 7.11501 7.11111 5.51953 9.07924 5.51953H29.0482C31.0164 5.51953 32.6119 7.11502 32.6119 9.08315V21.1344C32.6119 23.1025 31.0164 24.698 29.0482 24.698H18.967C18.8611 24.698 18.7607 24.7451 18.6929 24.8266L13.3975 31.1965C13.1801 31.4579 12.755 31.2956 12.7673 30.9558L12.9801 25.0673C12.9874 24.8655 12.8259 24.698 12.624 24.698H9.07924C7.11111 24.698 5.51562 23.1025 5.51562 21.1344V9.08315Z" fill="url(#paint0_linear_6063_7321)" fill-opacity="0.8"/>
<line x1="8.00727" y1="8.30914" x2="14.2889" y2="8.30914" stroke="white" stroke-width="1.10829" stroke-linecap="round"/>
<line x1="8.00727" y1="11.8267" x2="23.4382" y2="11.8267" stroke="white" stroke-width="1.10829" stroke-linecap="round"/>
<line x1="8.00727" y1="15.3462" x2="23.4382" y2="15.3462" stroke="white" stroke-width="1.10829" stroke-linecap="round"/>
<path d="M5.56362 2.55414H25.5326C27.1947 2.55414 28.5421 3.90153 28.5421 5.56362V17.6149C28.5421 19.277 27.1947 20.6244 25.5326 20.6244H15.4514C15.1808 20.6244 14.9242 20.7447 14.7512 20.9528L9.8264 26.8768L10.0183 21.5678C10.0369 21.0523 9.62413 20.6244 9.10838 20.6244H5.56362C3.90153 20.6244 2.55414 19.277 2.55414 17.6149V5.56361C2.55414 3.90153 3.90153 2.55414 5.56362 2.55414Z" stroke="#444444" stroke-width="1.10829"/>
<line x1="8.00727" y1="8.30914" x2="14.2889" y2="8.30914" stroke="white" stroke-width="1.10829" stroke-linecap="round"/>
<line x1="8.00727" y1="11.8267" x2="23.4382" y2="11.8267" stroke="white" stroke-width="1.10829" stroke-linecap="round"/>
<line x1="8.00727" y1="15.3462" x2="23.4382" y2="15.3462" stroke="white" stroke-width="1.10829" stroke-linecap="round"/>
<path d="M5.56362 2.55414H25.5326C27.1947 2.55414 28.5421 3.90153 28.5421 5.56362V17.6149C28.5421 19.277 27.1947 20.6244 25.5326 20.6244H15.4514C15.1808 20.6244 14.9242 20.7447 14.7512 20.9528L9.8264 26.8768L10.0183 21.5678C10.0369 21.0523 9.62413 20.6244 9.10838 20.6244H5.56362C3.90153 20.6244 2.55414 19.277 2.55414 17.6149V5.56361C2.55414 3.90153 3.90153 2.55414 5.56362 2.55414Z" stroke="#444444" stroke-width="1.10829"/>
<defs>
<linearGradient id="paint0_linear_6063_7321" x1="19.0637" y1="5.51953" x2="25.3299" y2="32.3252" gradientUnits="userSpaceOnUse">
<stop stop-color="#929EFF"/>
<stop offset="1" stop-color="#6070E9"/>
</linearGradient>
</defs>
</svg>
