<svg width="35" height="35" viewBox="0 0 35 35" fill="none" xmlns="http://www.w3.org/2000/svg">
<path d="M10.4219 8.43103C10.4219 6.49233 13.1914 4.63672 19.423 4.63672C24.9621 4.63672 27.8425 6.6585 27.5101 8.43103V15.7704V22.2512V28.5237C27.5101 28.6618 27.4933 28.8 27.4358 28.9256C26.9165 30.0596 24.6198 32 18.786 32C12.8416 32 10.7917 29.9854 10.4542 28.862C10.4284 28.7762 10.4219 28.6868 10.4219 28.5971V22.2512V15.7704V8.43103Z" fill="url(#paint0_linear_6063_7279)" fill-opacity="0.8"/>
<path d="M7 5.79431C7 3.85561 9.76957 2 16.0011 2C21.5402 2 24.4206 4.02178 24.0882 5.79431M7 5.79431C7.49852 7.26218 10.6281 8.92392 16.0011 8.56387C20.6878 8.24982 23.5897 7.096 24.0882 5.79431M7 5.79431V13.1337M24.0882 5.79431V13.1337M7 13.1337C9.52031 14.9339 16.4664 17.4542 24.0882 13.1337M7 13.1337V19.6144M24.0882 13.1337V19.6144M7 19.6144V26.0952C7.21233 27.1846 9.18242 29.3633 15.3641 29.3633C21.5458 29.3633 23.7559 27.1846 24.0882 26.0952V19.6144M7 19.6144C9.52954 21.5901 16.4885 24.3559 24.0882 19.6144" stroke="#444444" stroke-width="0.868616"/>
<defs>
<linearGradient id="paint0_linear_6063_7279" x1="18.9789" y1="4.63672" x2="28.7258" y2="30.1221" gradientUnits="userSpaceOnUse">
<stop stop-color="#929EFF"/>
<stop offset="1" stop-color="#6070E9"/>
</linearGradient>
</defs>
</svg>
