<svg width="174" height="33" viewBox="0 0 174 33" fill="none" xmlns="http://www.w3.org/2000/svg">
<path d="M30.4606 20.6219C28.9173 24.4892 27.0759 27.9482 23.0741 29.2163C19.6975 30.2862 16.275 31.6158 12.3141 31.1051C7.90054 30.5357 3.80395 28.1351 2.66674 24.7269C1.41136 20.9644 0.286627 16.9499 1.84029 12.9531C3.01715 9.92577 5.05106 7.04794 7.417 4.96431C11.014 1.7965 15.5121 0.387186 19.9868 2.47006C23.655 4.17753 26.903 7.2632 28.9908 10.5114C31.0015 13.6399 31.9495 16.8918 30.4606 20.6219Z" fill="#843EE1"/>
<path d="M26.2887 28.1227C22.8598 30.495 19.4081 32.3616 15.3657 31.2029C11.9549 30.2254 8.36183 29.4392 5.33821 26.8187C1.969 23.8987 -0.121872 19.6258 0.815337 16.1515C1.84997 12.3161 3.13312 8.34278 6.64224 5.86811C9.30032 3.9936 12.5911 2.71867 15.7194 2.29044C20.4754 1.6394 25.0104 2.95509 27.5928 7.17214C29.7098 10.6292 30.7132 15.0035 30.658 18.8707C30.6048 22.5956 29.5962 25.8345 26.2887 28.1227Z" fill="#01D2C9"/>
<path d="M20.6677 30.9824C16.6146 31.7538 13.923 30.6253 10.7304 27.9565C8.03675 25.7048 3.92249 24.9867 2.23773 21.404C0.360371 17.4116 -1.1092 14.3655 1.13144 11.5982C3.60497 8.54334 7.69025 4.85941 11.8568 4.02746C15.0129 3.39728 18.4602 2.50961 21.462 3.37631C26.0254 4.69399 28.3807 9.31671 29.0263 14.1669C29.5556 18.1429 29.9295 20.8879 28.3293 24.3643C26.7879 27.7125 24.577 30.2382 20.6677 30.9824Z" fill="#FD6966"/>
<path d="M20.5548 29.5786C16.5017 30.35 11.49 30.3094 8.29746 27.6407C5.60383 25.389 3.92325 24.9863 2.23849 21.4035C0.361152 17.4114 1.36998 13.509 3.61062 10.7417C6.08415 7.68678 8.59213 5.17449 12.7587 4.34255C15.9148 3.71238 20.302 2.52955 23.3036 3.39626C28.33 5.46918 29.7334 11.84 30.3789 16.6902C30.9083 20.6662 29.9302 20.8875 28.33 24.3638C26.7887 27.7123 24.4641 28.8344 20.5548 29.5786Z" fill="#FFCB3F"/>
<path d="M28.8421 19.8723C27.5877 23.2582 26.0665 26.2968 22.6247 27.4827C19.7209 28.4833 16.7826 29.7103 13.3378 29.3531C9.49935 28.9552 5.89602 26.9628 4.83638 24.0328C3.66661 20.7981 2.60464 17.3424 3.86497 13.844C4.81964 11.1941 6.52051 8.65528 8.52644 6.79773C11.5761 3.97367 15.445 2.65453 19.3693 4.36327C22.5862 5.76405 25.4687 8.3687 27.3489 11.1393C29.1598 13.8079 30.052 16.6064 28.8421 19.8723Z" fill="#E6E9FD"/>
<path d="M22.8147 13.096H19.932V24.406C19.4618 24.406 18.9986 24.3167 18.5425 24.1382C18.0861 23.9734 17.858 23.7811 17.858 23.5613V21.1098C16.8901 21.7141 15.8394 22.0163 14.7056 22.0163C13.5719 22.0163 12.6456 21.7279 11.9266 21.151C11.2215 20.5605 10.8689 19.7983 10.8689 18.8643C10.8689 18.1501 11.1178 17.5114 11.6155 16.9484C10.9104 16.6874 10.3505 16.3028 9.93568 15.7947C9.52086 15.2728 9.31348 14.6547 9.31348 13.9406C9.31348 13.2265 9.60382 12.5741 10.1845 11.9835C10.779 11.3929 11.5879 11.0977 12.611 11.0977C13.3576 11.0977 13.9313 11.2625 14.3324 11.5921C14.7471 11.9217 14.9545 12.3268 14.9545 12.8076C14.9545 13.7827 14.3185 14.4694 13.0466 14.8677C12.8392 14.7029 12.687 14.4694 12.5903 14.1672C13.1571 13.7964 13.4406 13.405 13.4406 12.993C13.4406 12.7595 13.3714 12.5741 13.2332 12.4367C13.0949 12.2856 12.8737 12.2101 12.5695 12.2101C12.2653 12.2101 11.9681 12.375 11.6777 12.7046C11.3874 13.0342 11.2422 13.4668 11.2422 14.0024C11.2422 14.5243 11.3874 14.9638 11.6777 15.3209C11.9819 15.6642 12.3621 15.9046 12.8184 16.0419C13.4267 15.7398 14.1111 15.5132 14.8716 15.3621C15.3969 15.8566 15.7287 16.3715 15.867 16.9071C15.0098 17.0719 14.2839 17.3329 13.6895 17.6901C13.1088 18.0334 12.8184 18.4316 12.8184 18.8849C12.8184 19.3244 12.9704 19.6815 13.2747 19.9562C13.5927 20.2309 14.042 20.3681 14.6227 20.3681C15.2172 20.3681 15.8049 20.2033 16.3855 19.8737C16.9662 19.5441 17.457 19.1114 17.858 18.5759V13.096H16.427C15.9292 12.5191 15.6804 11.9079 15.6804 11.2625H22.1717C22.6003 11.8118 22.8147 12.423 22.8147 13.096Z" fill="#138C61"/>
<path d="M43.1364 22.4863C46.6818 22.4863 48.8295 20.2931 48.8295 16.6568C48.8295 13.0318 46.6818 10.85 43.1705 10.85H39.0114V22.4863H43.1364ZM41.4716 20.3784V12.9579H43.0398C45.2216 12.9579 46.375 14.0716 46.375 16.6568C46.375 19.2534 45.2216 20.3784 43.0341 20.3784H41.4716ZM53.027 17.4409C53.0327 16.3159 53.7202 15.6568 54.7088 15.6568C55.6918 15.6568 56.2713 16.2875 56.2656 17.3613V22.4863H58.6861V16.9295C58.6918 14.8841 57.4872 13.6454 55.669 13.6454C54.3452 13.6454 53.4588 14.2704 53.0611 15.2988H52.9588V10.85H50.6065V22.4863H53.027V17.4409ZM63.0795 22.6511C64.3693 22.6511 65.2045 22.0886 65.6307 21.2761H65.6989V22.4863H67.9943V16.6C67.9943 14.5204 66.233 13.6454 64.2898 13.6454C62.1989 13.6454 60.8239 14.6454 60.4886 16.2363L62.7273 16.4181C62.892 15.8386 63.4091 15.4125 64.2784 15.4125C65.1023 15.4125 65.5739 15.8272 65.5739 16.5431V16.5772C65.5739 17.1397 64.9773 17.2136 63.4602 17.3613C61.733 17.5204 60.1818 18.1 60.1818 20.0488C60.1818 21.7761 61.4148 22.6511 63.0795 22.6511ZM63.7727 20.9806C63.0284 20.9806 62.4943 20.6341 62.4943 19.9693C62.4943 19.2875 63.0568 18.9522 63.9091 18.8329C64.4375 18.7591 65.3011 18.6341 65.5909 18.4409V19.367C65.5909 20.2818 64.8352 20.9806 63.7727 20.9806ZM72.2926 17.4409C72.2983 16.3159 72.9688 15.6568 73.946 15.6568C74.9176 15.6568 75.5028 16.2931 75.4972 17.3613V22.4863H77.9176V16.9295C77.9176 14.8954 76.7244 13.6454 74.9062 13.6454C73.6108 13.6454 72.6733 14.2818 72.2812 15.2988H72.179V13.7591H69.8722V22.4863H72.2926V17.4409ZM93.8409 14.9238C93.517 12.2363 91.483 10.6909 88.7898 10.6909C85.7159 10.6909 83.3693 12.8613 83.3693 16.6681C83.3693 20.4636 85.6761 22.6454 88.7898 22.6454C91.7727 22.6454 93.5739 20.6625 93.8409 18.5204L91.3523 18.5091C91.1193 19.7534 90.142 20.4693 88.8295 20.4693C87.0625 20.4693 85.8636 19.1568 85.8636 16.6681C85.8636 14.2477 87.0455 12.867 88.8466 12.867C90.1932 12.867 91.1648 13.6454 91.3523 14.9238H93.8409ZM99.5028 22.6568C102.151 22.6568 103.798 20.8443 103.798 18.1568C103.798 15.4522 102.151 13.6454 99.5028 13.6454C96.8551 13.6454 95.2074 15.4522 95.2074 18.1568C95.2074 20.8443 96.8551 22.6568 99.5028 22.6568ZM99.5142 20.7818C98.2926 20.7818 97.6676 19.6625 97.6676 18.1397C97.6676 16.617 98.2926 15.492 99.5142 15.492C100.713 15.492 101.338 16.617 101.338 18.1397C101.338 19.6625 100.713 20.7818 99.5142 20.7818ZM105.372 22.4863H107.793V17.2477C107.793 16.2818 108.406 15.6397 109.213 15.6397C110.009 15.6397 110.543 16.1852 110.543 17.0431V22.4863H112.889V17.1568C112.889 16.2534 113.406 15.6397 114.287 15.6397C115.06 15.6397 115.639 16.1227 115.639 17.0943V22.4863H118.054V16.617C118.054 14.725 116.929 13.6454 115.304 13.6454C114.026 13.6454 113.031 14.2988 112.673 15.2988H112.582C112.304 14.2875 111.412 13.6454 110.213 13.6454C109.037 13.6454 108.145 14.2704 107.781 15.2988H107.679V13.7591H105.372V22.4863ZM119.966 22.4863H122.386V17.2477C122.386 16.2818 123 15.6397 123.807 15.6397C124.602 15.6397 125.136 16.1852 125.136 17.0431V22.4863H127.483V17.1568C127.483 16.2534 128 15.6397 128.881 15.6397C129.653 15.6397 130.233 16.1227 130.233 17.0943V22.4863H132.648V16.617C132.648 14.725 131.523 13.6454 129.898 13.6454C128.619 13.6454 127.625 14.2988 127.267 15.2988H127.176C126.898 14.2875 126.006 13.6454 124.807 13.6454C123.631 13.6454 122.739 14.2704 122.375 15.2988H122.273V13.7591H119.966V22.4863ZM140.156 18.7704C140.162 19.9409 139.361 20.5545 138.491 20.5545C137.577 20.5545 136.986 19.9125 136.98 18.8841V13.7591H134.56V19.3159C134.565 21.3556 135.759 22.6 137.514 22.6C138.827 22.6 139.77 21.9238 140.162 20.9011H140.253V22.4863H142.577V13.7591H140.156V18.7704ZM146.933 17.4409C146.939 16.3159 147.609 15.6568 148.587 15.6568C149.558 15.6568 150.143 16.2931 150.138 17.3613V22.4863H152.558V16.9295C152.558 14.8954 151.365 13.6454 149.547 13.6454C148.251 13.6454 147.314 14.2818 146.922 15.2988H146.82V13.7591H144.513V22.4863H146.933V17.4409ZM154.466 22.4863H156.886V13.7591H154.466V22.4863ZM155.682 12.6341C156.403 12.6341 156.994 12.0829 156.994 11.4068C156.994 10.7363 156.403 10.1852 155.682 10.1852C154.966 10.1852 154.375 10.7363 154.375 11.4068C154.375 12.0829 154.966 12.6341 155.682 12.6341ZM163.467 13.7591H161.825V11.6681H159.405V13.7591H158.212V15.5772H159.405V20.1227C159.393 21.8329 160.558 22.6795 162.314 22.6056C162.939 22.5829 163.382 22.4579 163.626 22.3784L163.246 20.5772C163.126 20.6 162.871 20.6568 162.643 20.6568C162.161 20.6568 161.825 20.475 161.825 19.8045V15.5772H163.467V13.7591ZM166.538 25.7591C168.339 25.7591 169.294 24.8386 169.788 23.4295L173.18 13.7704L170.618 13.7591L168.794 20.1681H168.703L166.896 13.7591H164.351L167.482 22.7363L167.339 23.1056C167.021 23.9238 166.413 23.9636 165.561 23.7022L165.016 25.5091C165.362 25.6568 165.925 25.7591 166.538 25.7591Z" fill="#0A2745"/>
</svg>
