<svg width="18" height="19" viewBox="0 0 18 19" fill="none" xmlns="http://www.w3.org/2000/svg">
<path d="M6.3477 18.5048L9.0987 12.0286L7.29596 11.3014L5.49317 10.5742L2.74219 17.0503L5.07026 16.5409L6.3477 18.5048Z" fill="#D34E4E"/>
<path d="M11.2004 18.6001L8.70312 12.0265L10.5328 11.3668L12.3626 10.707L14.8599 17.2806L12.5532 16.6852L11.2004 18.6001Z" fill="#D34E4E"/>
<path d="M15.0599 7.72608L16 6.96575L15.0938 6.16698L15.7999 5.19543L14.7124 4.65247L15.1363 3.53598L13.9417 3.28571L14.0545 2.10029L12.8342 2.15983L12.6283 0.986296L11.4654 1.35157L10.9549 0.269928L9.92872 0.916035L9.14821 0L8.32864 0.88287L7.33137 0.194825L6.77429 1.25439L5.62827 0.841245L5.37168 2.00517L4.15504 1.89516L4.2163 3.08417L3.01194 3.28468L3.38687 4.41777L2.27685 4.91526L2.94012 5.9152L2 6.67553L2.90624 7.47429L2.20019 8.44585L3.28762 8.98872L2.86372 10.1054L4.05836 10.3556L3.9455 11.541L5.16584 11.4815L5.37174 12.6549L6.53458 12.2897L7.04514 13.3713L8.07142 12.7253L8.85187 13.6413L9.67144 12.7584L10.6686 13.4464L11.2257 12.387L12.3717 12.8L12.6283 11.6361L13.845 11.7461L13.7837 10.5571L14.9881 10.3566L14.6132 9.22346L15.7231 8.72601L15.0599 7.72608Z" fill="#EBB044"/>
<path d="M4.70391 6.74326C4.74881 4.43384 6.70654 2.5974 9.07665 2.6414C11.4467 2.68541 13.3316 4.59314 13.2867 6.90246C13.2418 9.21184 11.2841 11.0483 8.91398 11.0043C6.54392 10.9603 4.65901 9.05257 4.70391 6.74326Z" fill="white"/>
<path d="M9.1314 3.96933L9.96853 5.62304C9.98228 5.6502 10.0089 5.66904 10.0396 5.67343L11.9077 5.93701C11.985 5.94793 12.0161 6.04085 11.9601 6.09425L10.6099 7.3833C10.5878 7.40457 10.5776 7.43514 10.5829 7.46501L10.9039 9.28318C10.9173 9.35848 10.8364 9.41598 10.7671 9.3805L9.09562 8.52354C9.06817 8.50938 9.03529 8.50938 9.00778 8.5236L7.33814 9.38362C7.26896 9.41933 7.188 9.36195 7.20112 9.28653L7.51821 7.46784C7.52347 7.43791 7.51324 7.40734 7.49099 7.38625L6.13808 6.09963C6.08197 6.04629 6.11277 5.9533 6.19015 5.94226L8.05773 5.67522C8.08841 5.67083 8.115 5.65199 8.12869 5.62466L8.96219 3.96946C8.99669 3.90088 9.09672 3.90077 9.1314 3.96933Z" fill="#EBB044"/>
</svg>
