<svg width="36" height="36" viewBox="0 0 36 36" fill="none" xmlns="http://www.w3.org/2000/svg">
<path d="M8.13995 29.4055L7.4231 30.6152H28.915L28.1358 29.4237L8.13995 29.4055Z" fill="#F1F1F1"/>
<path d="M28.9147 30.6152H7.42249V30.8617H28.9147V30.6152Z" fill="url(#paint0_linear_47048_14046)"/>
<path opacity="0.39" d="M18.1688 30.0875C20.2626 30.0875 21.96 30.0073 21.96 29.9084C21.96 29.8094 20.2626 29.7292 18.1688 29.7292C16.075 29.7292 14.3777 29.8094 14.3777 29.9084C14.3777 30.0073 16.075 30.0875 18.1688 30.0875Z" stroke="#B3B3B3" stroke-width="0.30336" stroke-miterlimit="10"/>
<path d="M18.9196 23.5242V24.4327C18.9195 24.6276 18.842 24.8145 18.7042 24.9523C18.5664 25.0901 18.3795 25.1676 18.1846 25.1677C17.9896 25.1677 17.8027 25.0903 17.6649 24.9524C17.527 24.8146 17.4496 24.6276 17.4496 24.4327V23.5242H15.3383V29.9H21.0025V23.5242H18.9196Z" fill="url(#paint1_linear_47048_14046)"/>
<path opacity="0.31" d="M15.5579 23.5242V29.8997" stroke="black" stroke-width="0.0764371" stroke-miterlimit="10"/>
<path opacity="0.31" d="M20.78 23.5242V29.8997" stroke="black" stroke-width="0.0764371" stroke-miterlimit="10"/>
<path d="M35.603 2.42321C35.521 2.29358 35.4075 2.18679 35.2732 2.1128C35.1388 2.0388 34.9879 2 34.8345 2H1.63078C1.43196 1.99967 1.23881 2.06626 1.08244 2.18905C1.0269 2.23291 0.976688 2.28312 0.932827 2.33866L0.92988 2.34297C0.808958 2.49851 0.743457 2.68999 0.743776 2.887V23.1603C0.743753 23.3007 0.776855 23.439 0.84039 23.5642C0.903924 23.6893 0.996097 23.7977 1.10941 23.8805L1.11145 23.8818C1.26377 23.9933 1.44771 24.0532 1.63644 24.0528H34.8513C35.0417 24.0532 35.2272 23.9926 35.3806 23.8798C35.4532 23.8263 35.5174 23.7622 35.571 23.6896C35.6839 23.5364 35.7447 23.3511 35.7444 23.1608V2.90922C35.7444 2.73707 35.6953 2.5685 35.603 2.42321ZM35.0741 23.8812H1.41316C1.28114 23.8812 1.1545 23.8288 1.06101 23.7356C0.967526 23.6423 0.914826 23.5159 0.914466 23.3838V2.67007C0.914466 2.53781 0.967008 2.41096 1.06053 2.31744C1.15406 2.22391 1.2809 2.17137 1.41316 2.17137H35.0753C35.2075 2.17137 35.3344 2.22391 35.4279 2.31744C35.5214 2.41096 35.574 2.53781 35.574 2.67007V23.3838C35.5736 23.516 35.5208 23.6427 35.427 23.736C35.3333 23.8292 35.2064 23.8815 35.0741 23.8812Z" fill="#1B1B1B"/>
<path d="M35.074 2.17261H1.413C1.28074 2.17261 1.1539 2.22515 1.06037 2.31867C0.966848 2.4122 0.914307 2.53904 0.914307 2.67131V23.3851C0.914667 23.5171 0.967367 23.6436 1.06085 23.7368C1.15434 23.83 1.28098 23.8824 1.413 23.8824H35.0751C35.2071 23.8824 35.3338 23.83 35.4273 23.7368C35.5208 23.6436 35.5735 23.5171 35.5738 23.3851V2.6704C35.5737 2.60489 35.5607 2.54005 35.5355 2.47957C35.5103 2.4191 35.4734 2.36418 35.427 2.31795C35.3806 2.27173 35.3255 2.2351 35.265 2.21016C35.2044 2.18522 35.1395 2.17246 35.074 2.17261ZM34.4109 21.8878H2.07584V3.30354H34.4109V21.8878Z" fill="#999999"/>
<path fill-rule="evenodd" clip-rule="evenodd" d="M23.8495 5.59961C23.9196 5.59961 23.9764 5.65642 23.9764 5.72651L23.9764 15.3756C23.9764 15.4457 23.9196 15.5025 23.8495 15.5025C23.7795 15.5025 23.7226 15.4457 23.7226 15.3756L23.7226 5.72651C23.7226 5.65642 23.7795 5.59961 23.8495 5.59961Z" fill="#E15858"/>
<path d="M22.7639 8.47388H25.0001V13.2656H22.7639V8.47388Z" fill="#E15858"/>
<path fill-rule="evenodd" clip-rule="evenodd" d="M19.2116 5C19.2817 5 19.3385 5.0469 19.3385 5.10476L19.3385 18.608C19.3385 18.6659 19.2817 18.7128 19.2116 18.7128C19.1415 18.7128 19.0847 18.6659 19.0847 18.608L19.0847 5.10476C19.0847 5.0469 19.1415 5 19.2116 5Z" fill="#4B9B08"/>
<path d="M18.126 6.8457H20.3621V16.8666H18.126V6.8457Z" fill="#4B9B08"/>
<path fill-rule="evenodd" clip-rule="evenodd" d="M15.6148 11.4812C15.6849 11.4812 15.7417 11.538 15.7417 11.6081L15.7417 18.3822C15.7417 18.4523 15.6849 18.5091 15.6148 18.5091C15.5447 18.5091 15.4879 18.4523 15.4879 18.3822L15.4879 11.6081C15.4879 11.538 15.5447 11.4812 15.6148 11.4812Z" fill="#E15858"/>
<path d="M14.5294 13.0789H16.7656V16.2734H14.5294V13.0789Z" fill="#E15858"/>
<path fill-rule="evenodd" clip-rule="evenodd" d="M12.0855 12.6582C12.1556 12.6582 12.2124 12.715 12.2124 12.7851L12.2124 19.5592C12.2124 19.6293 12.1556 19.6861 12.0855 19.6861C12.0154 19.6861 11.9586 19.6293 11.9586 19.5592L11.9586 12.7851C11.9586 12.715 12.0154 12.6582 12.0855 12.6582Z" fill="#4B9B08"/>
<path d="M11 13.835H13.3528V16.1878H11V13.835Z" fill="#4B9B08"/>
<defs>
<linearGradient id="paint0_linear_47048_14046" x1="7.42249" y1="30.7386" x2="28.9147" y2="30.7386" gradientUnits="userSpaceOnUse">
<stop stop-color="#4D4D4D"/>
<stop offset="0.07" stop-color="#808080"/>
<stop offset="0.49" stop-color="#6E6E6E"/>
<stop offset="0.92" stop-color="#808080"/>
<stop offset="1" stop-color="#666666"/>
</linearGradient>
<linearGradient id="paint1_linear_47048_14046" x1="18.1691" y1="23.5242" x2="18.1691" y2="29.9" gradientUnits="userSpaceOnUse">
<stop stop-color="#8F8F8F"/>
<stop offset="1" stop-color="#DCDCDC"/>
</linearGradient>
</defs>
</svg>
