<svg width="35" height="36" viewBox="0 0 35 36" fill="none" xmlns="http://www.w3.org/2000/svg">
<g clip-path="url(#clip0_33798_2703)">
<path d="M17.0436 34.6292C26.4564 34.6292 34.0871 27.1902 34.0871 18.0138C34.0871 8.8374 26.4564 1.39844 17.0436 1.39844C7.63067 1.39844 0 8.8374 0 18.0138C0 27.1902 7.63067 34.6292 17.0436 34.6292Z" fill="url(#paint0_linear_33798_2703)"/>
<path fill-rule="evenodd" clip-rule="evenodd" d="M24.7804 32.8272L11.3662 22.7029L13.2603 18.0166L10.0552 13.7562L11.3662 9.92188H24.9137L34.091 18.058C34.0749 24.5028 30.2948 30.0854 24.7804 32.8272Z" fill="#6C4CAD"/>
<path d="M26.2151 12.2542H22.3274V27.2234C21.6934 27.2234 21.0688 27.1052 20.4536 26.8689C19.8382 26.6508 19.5306 26.3963 19.5306 26.1054V22.8608C18.2253 23.6607 16.8082 24.0604 15.2792 24.0604C13.7502 24.0604 12.501 23.6788 11.5315 22.9153C10.5805 22.1337 10.105 21.1249 10.105 19.8888C10.105 18.9436 10.4407 18.0983 11.1119 17.353C10.161 17.0077 9.40581 16.4986 8.84644 15.826C8.28702 15.1353 8.00732 14.3173 8.00732 13.3721C8.00732 12.4269 8.39889 11.5635 9.18206 10.7818C9.98381 10.0002 11.0746 9.60938 12.4545 9.60938C13.4613 9.60938 14.235 9.8275 14.7759 10.2638C15.3352 10.7 15.6149 11.2362 15.6149 11.8725C15.6149 13.1631 14.7571 14.0719 13.0418 14.5991C12.7621 14.381 12.5569 14.0719 12.4264 13.672C13.1908 13.1812 13.5732 12.6632 13.5732 12.1179C13.5732 11.8088 13.4799 11.5635 13.2935 11.3817C13.1069 11.1817 12.8087 11.0817 12.3985 11.0817C11.9882 11.0817 11.5874 11.2999 11.1958 11.7362C10.8043 12.1724 10.6085 12.745 10.6085 13.4539C10.6085 14.1447 10.8043 14.7263 11.1958 15.199C11.606 15.6533 12.1188 15.9715 12.7341 16.1533C13.5544 15.7534 14.4774 15.4535 15.5031 15.2535C16.2115 15.9079 16.659 16.5895 16.8455 17.2984C15.6894 17.5166 14.7106 17.8619 13.9088 18.3346C13.1257 18.789 12.7341 19.3162 12.7341 19.916C12.7341 20.4977 12.9392 20.9703 13.3494 21.3339C13.7783 21.6975 14.3843 21.8792 15.1674 21.8792C15.9691 21.8792 16.7617 21.6611 17.5448 21.2248C18.3279 20.7885 18.9898 20.2159 19.5306 19.507V12.2542H17.6007C16.9294 11.4907 16.5939 10.6818 16.5939 9.8275H25.3481C25.9261 10.5546 26.2151 11.3635 26.2151 12.2542Z" fill="white"/>
</g>
<defs>
<linearGradient id="paint0_linear_33798_2703" x1="31.9567" y1="29.6446" x2="20.307" y2="0.737425" gradientUnits="userSpaceOnUse">
<stop stop-color="#7F58CC"/>
<stop offset="1" stop-color="#B696FD"/>
</linearGradient>
<clipPath id="clip0_33798_2703">
<rect width="34.0871" height="36" fill="white"/>
</clipPath>
</defs>
</svg>
