<svg width="36" height="36" viewBox="0 0 36 36" fill="none" xmlns="http://www.w3.org/2000/svg">
<path d="M13.0907 3.82031H14.8809C14.8905 3.87213 14.9276 3.87917 14.9717 3.88429C16.9466 4.11716 18.5711 5.01025 19.8677 6.50726C20.0186 6.68064 20.0972 6.69407 20.2948 6.57124C23.0804 4.80745 26.7073 6.45736 27.252 9.73161C27.2808 9.9037 27.3447 9.95296 27.5174 9.95552C28.0365 9.9632 28.555 9.92225 29.0754 10.0054C31.1322 10.3362 32.7778 12.0923 32.9223 14.1318C33.0758 16.3364 31.7472 18.3087 29.6885 18.9447C28.8459 19.205 27.9854 19.1295 27.1312 19.1295C26.8755 19.1295 26.7975 19.175 26.7987 19.4494C26.8122 21.6508 26.8064 23.8522 26.8064 26.0536C26.8064 26.7931 26.8064 26.7867 27.5353 26.797C27.7635 26.8002 27.899 26.772 28.0001 26.5116C28.3383 25.6377 29.2634 25.133 30.1802 25.2724C31.0823 25.4093 31.8425 26.1988 31.9064 27.0637C31.9819 28.0873 31.441 28.9376 30.5184 29.2466C29.6233 29.546 28.5646 29.2229 28.1612 28.3669C27.9022 27.818 27.566 27.763 27.0877 27.8129C27.0665 27.8155 27.045 27.8155 27.0238 27.8129C26.832 27.779 26.8013 27.873 26.8026 28.0438C26.8096 29.1173 26.8026 30.1921 26.8071 31.2663C26.8071 31.6955 27.0027 31.8913 27.4259 31.8964C27.8191 31.9009 28.2136 31.883 28.6055 31.9028C28.8312 31.9143 28.9252 31.8388 29.0096 31.6258C29.1992 31.1583 29.5555 30.7779 30.0095 30.5584C30.4634 30.3389 30.9827 30.2959 31.4665 30.4378C32.4256 30.7129 33.0649 31.7058 32.9185 32.7025C32.8477 33.1464 32.6354 33.5556 32.3132 33.8689C31.9911 34.1823 31.5764 34.3831 31.1309 34.4413C30.6902 34.4938 30.2445 34.4006 29.8617 34.1761C29.4789 33.9516 29.1798 33.608 29.0102 33.1977C28.9271 32.9936 28.8427 32.9015 28.6094 32.9143C28.1957 32.9373 27.7782 32.9219 27.3658 32.9206C26.4362 32.9206 25.786 32.2687 25.7841 31.3398C25.7841 30.2522 25.7765 29.1698 25.7899 28.0854C25.7899 27.8583 25.7304 27.8078 25.5105 27.8103C24.267 27.8218 23.0235 27.8167 21.78 27.8154C20.8101 27.8154 20.172 27.1719 20.172 26.1962C20.172 23.9629 20.1669 21.7295 20.1778 19.4961C20.1778 19.2249 20.1375 19.1072 19.8281 19.1283C19.3718 19.1548 18.9143 19.1548 18.458 19.1283C18.2022 19.1167 18.1223 19.1686 18.1236 19.4481C18.1347 23.0111 18.1347 26.5739 18.1236 30.1365C18.1236 30.3437 18.169 30.4397 18.3793 30.5203C19.2853 30.8709 19.8236 31.8638 19.6356 32.7818C19.4298 33.7837 18.6127 34.4586 17.6032 34.4548C16.616 34.4509 15.8041 33.7747 15.6001 32.7857C15.4083 31.867 15.946 30.8734 16.8507 30.5216C17.0565 30.4416 17.1134 30.3533 17.1122 30.1377C17.1039 27.8621 17.1071 25.5859 17.1071 23.3103C17.1071 22.002 17.1019 20.6937 17.1128 19.3861C17.1128 19.1724 17.0521 19.1219 16.8488 19.1302C16.3494 19.1449 15.8488 19.1513 15.3508 19.1302C15.1034 19.1193 15.0593 19.198 15.0605 19.4289C15.0708 21.3431 15.0669 23.2572 15.0663 25.1713C15.0663 26.163 14.427 26.7944 13.4302 26.795C12.2078 26.795 10.9854 26.8014 9.763 26.7899C9.52644 26.7899 9.44333 26.8321 9.44716 27.0932C9.46187 28.5288 9.45739 29.965 9.45292 31.4006C9.45334 31.6 9.41448 31.7974 9.33857 31.9818C9.26266 32.1661 9.15118 32.3336 9.01051 32.4748C8.86985 32.616 8.70275 32.728 8.51877 32.8045C8.3348 32.881 8.13756 32.9205 7.93833 32.9206C7.52404 32.9251 7.10719 32.9379 6.69546 32.9155C6.43972 32.9015 6.31186 32.9667 6.2102 33.222C6.01288 33.6979 5.64038 34.0798 5.16967 34.2888C4.69897 34.4977 4.16603 34.5178 3.68099 34.3447C3.188 34.1781 2.77767 33.8285 2.53455 33.3682C2.29142 32.9078 2.23403 32.3716 2.37418 31.8702C2.59859 31.0449 3.34342 30.4186 4.15665 30.3719C5.09648 30.3169 5.90652 30.7954 6.23258 31.6379C6.31889 31.8625 6.4295 31.9137 6.64303 31.9047C7.00426 31.89 7.36612 31.9009 7.72991 31.9002C8.26183 31.9002 8.43318 31.7269 8.43318 31.1965C8.43318 29.9631 8.43318 28.7294 8.43318 27.4956C8.43318 26.7957 8.43318 26.811 7.72991 26.788C7.45755 26.779 7.33224 26.852 7.22547 27.1136C7.04834 27.5273 6.73839 27.8701 6.34468 28.0877C5.95098 28.3053 5.49599 28.3853 5.05173 28.3151C4.14259 28.1673 3.39329 27.3817 3.33511 26.5155C3.26542 25.4919 3.80949 24.6397 4.73014 24.3365C5.61434 24.0454 6.68267 24.3563 7.065 25.2008C7.34311 25.8137 7.72863 25.8002 8.22539 25.7766C8.38778 25.7702 8.43893 25.7356 8.43893 25.5654C8.43253 23.4914 8.43253 21.4175 8.43893 19.3439C8.43893 19.1788 8.39801 19.1263 8.22859 19.1308C7.78105 19.1423 7.33352 19.1353 6.88982 19.1347C3.44891 19.127 1.22594 15.4702 2.82811 12.4256C3.54992 11.0533 4.70009 10.2357 6.24473 10.0003C6.44164 9.97024 6.55161 9.91522 6.61746 9.67275C7.4064 6.77788 9.23874 4.89637 12.1285 4.05702C12.4514 3.96682 12.7909 3.97897 13.0907 3.82031ZM25.7835 22.9956C25.7835 21.7941 25.7777 20.5933 25.7886 19.3918C25.7886 19.1826 25.7336 19.1302 25.5271 19.1315C24.1675 19.1408 22.8076 19.1408 21.4475 19.1315C21.2397 19.1315 21.186 19.1839 21.1867 19.3918C21.1943 21.6457 21.1905 23.8995 21.1924 26.1534C21.1924 26.6012 21.3842 26.7931 21.8317 26.7931C23.0644 26.7931 24.297 26.788 25.529 26.7995C25.7426 26.7995 25.788 26.7355 25.7848 26.5353C25.7784 25.3569 25.7835 24.1759 25.7835 22.9956ZM9.45675 22.4556C9.45675 23.4862 9.46123 24.5175 9.45292 25.5488C9.45292 25.7279 9.49831 25.7785 9.67988 25.7778C10.9228 25.7695 12.1656 25.7778 13.4085 25.7727C13.856 25.7727 14.0478 25.5808 14.0478 25.133C14.0478 23.2195 14.0478 21.306 14.0542 19.3925C14.0542 19.1794 13.9941 19.1334 13.7908 19.1366C12.4307 19.1455 11.0709 19.1455 9.71121 19.1366C9.50087 19.1366 9.45036 19.1935 9.45547 19.3989C9.46251 20.4142 9.45675 21.4346 9.45675 22.4556ZM13.0217 11.9861C12.7135 11.9861 12.4054 11.9823 12.0972 11.9861C11.7136 11.9925 11.5352 12.1671 11.4956 12.5401C11.3647 13.7646 11.2322 14.9889 11.0979 16.2129C11.0698 16.4746 10.9311 16.8207 11.0468 16.9755C11.1862 17.163 11.5583 17.0689 11.8287 17.1194C11.9783 17.1476 12.0045 17.1009 12.016 16.9653C12.0493 16.5744 12.1119 16.1854 12.1369 15.7939C12.1496 15.593 12.2276 15.5463 12.4124 15.5553C12.7091 15.5693 13.0076 15.5591 13.3075 15.5591C13.8605 15.5591 13.8605 15.5591 13.9391 16.092C13.9532 16.1867 13.973 16.2807 13.9801 16.3761C14.044 17.1828 14.044 17.1764 14.8425 17.0504C15.0171 17.0228 15.0548 16.9864 15.0343 16.8015C14.8675 15.378 14.7179 13.9527 14.5631 12.528C14.5248 12.1729 14.3406 11.9944 13.982 11.9867C13.6598 11.9861 13.3407 11.9861 13.0217 11.9861ZM16.0905 14.705V16.33C16.0905 17.1137 16.0905 17.1067 16.891 17.0977C17.0751 17.0977 17.1186 17.0408 17.1147 16.8655C17.1039 16.3345 17.1186 15.8035 17.1064 15.2725C17.1026 15.0902 17.1582 15.0441 17.3359 15.046C18.0788 15.0556 18.8218 15.0537 19.5647 15.046C19.9694 15.046 20.1676 14.8432 20.1707 14.437C20.1759 13.8211 20.1759 13.205 20.1707 12.5887C20.1669 12.1844 19.9668 11.988 19.5583 11.9861C18.6142 11.9818 17.6697 11.9818 16.7247 11.9861C16.2823 11.9861 16.0931 12.1819 16.0911 12.6322C16.0873 13.3296 16.0892 14.0173 16.0892 14.7076L16.0905 14.705ZM22.7102 17.0919C23.1577 17.0919 23.6053 17.0836 24.0483 17.0958C24.2209 17.1009 24.2548 17.0427 24.258 16.8815C24.274 16.0805 24.2791 16.0805 23.4998 16.0735C23.4785 16.0715 23.4571 16.0715 23.4358 16.0735C23.2619 16.1035 23.2268 16.0216 23.2281 15.8611C23.2351 14.9897 23.2389 14.1184 23.2281 13.247C23.2249 13.0442 23.2837 13.0046 23.4755 13.0039C24.3111 13.0039 24.3066 12.9963 24.2587 12.1607C24.2504 12.0181 24.2088 11.9848 24.0745 11.9861C23.1718 11.9912 22.2691 11.9861 21.3663 11.9861C21.2583 11.9861 21.202 11.9944 21.1879 12.1332C21.1003 12.9975 21.0991 13.0014 21.9455 13.0078C21.9668 13.0097 21.9882 13.0097 22.0095 13.0078C22.1834 12.9771 22.2185 13.059 22.2173 13.2195C22.2102 14.0909 22.2064 14.9628 22.2173 15.8342C22.2205 16.0364 22.1629 16.0831 21.9698 16.0773C21.7192 16.0696 21.3638 15.9609 21.2423 16.1202C21.1144 16.2897 21.209 16.6256 21.1879 16.8879C21.1745 17.0625 21.2423 17.0996 21.4028 17.0958C21.8381 17.0875 22.2735 17.0945 22.7089 17.0945L22.7102 17.0919Z" fill="#2D48DD"/>
<path d="M19.8687 4.61383C18.5721 2.89229 16.9474 1.86525 14.9724 1.59746C14.0889 1.47959 13.0393 1.50368 12.1291 1.7961C9.23915 2.76134 7.4067 4.92504 6.61772 8.25408C6.55186 8.53291 6.44189 8.59618 6.24496 8.63076C4.70023 8.9015 3.55 9.84173 2.82814 11.4198C1.22587 14.921 3.44898 19.1263 6.89009 19.1351C7.33382 19.1358 7.78138 19.1439 8.22894 19.1307L27.1327 19.1292C27.9869 19.1292 28.8475 19.216 29.6902 18.9166C31.749 18.1853 33.0776 15.9171 32.9241 13.3819C32.7796 11.0365 31.1339 9.017 29.077 8.63665C28.5566 8.54101 28.038 8.58809 27.5189 8.57926C27.3462 8.57632 27.2823 8.51967 27.2535 8.32177C26.7088 4.55645 23.0816 2.65908 20.2958 4.6874C20.0983 4.82866 20.0196 4.81321 19.8687 4.61383Z" fill="#2D48DD"/>
<path fill-rule="evenodd" clip-rule="evenodd" d="M12.7136 9.68985C12.8163 9.69027 12.919 9.6907 13.0218 9.6907C13.3408 9.6907 13.6598 9.6907 13.982 9.69134C14.3407 9.69902 14.5248 9.87751 14.5632 10.2326C14.5986 10.5586 14.6337 10.8846 14.6689 11.2107C14.7873 12.3095 14.9057 13.4084 15.0344 14.5061C15.0548 14.691 15.0171 14.7275 14.8426 14.755L14.8241 14.7579C14.0441 14.881 14.0436 14.8811 13.9801 14.0807C13.9753 14.015 13.9644 13.9499 13.9534 13.8848C13.9485 13.8554 13.9436 13.826 13.9392 13.7966L13.9392 13.7966C13.8606 13.2637 13.8606 13.2637 13.3075 13.2637C13.2186 13.2637 13.1297 13.2646 13.041 13.2655C12.8307 13.2676 12.6211 13.2698 12.4125 13.2599C12.2277 13.2509 12.1497 13.2976 12.1369 13.4985C12.1229 13.7185 12.097 13.9377 12.0711 14.157C12.0509 14.3278 12.0306 14.4987 12.0161 14.6699C12.0046 14.8055 11.9784 14.8522 11.8288 14.8241C11.737 14.8069 11.6336 14.8064 11.5315 14.8059C11.3327 14.8049 11.139 14.804 11.0469 14.6801C10.9661 14.5721 11.0092 14.371 11.0522 14.1704C11.0709 14.0835 11.0895 13.9966 11.098 13.9175C11.2323 12.6935 11.3648 11.4692 11.4957 10.2447C11.5353 9.87175 11.7137 9.6971 12.0973 9.6907C12.3027 9.68814 12.5082 9.68899 12.7136 9.68985ZM16.0906 14.0346V12.4096L16.0893 12.4122C16.0893 12.2396 16.0892 12.0672 16.0891 11.8947C16.0887 11.3774 16.0883 10.8598 16.0912 10.3368C16.0931 9.88646 16.2824 9.6907 16.7248 9.6907C17.6697 9.68643 18.6142 9.68643 19.5583 9.6907C19.9669 9.69262 20.167 9.88902 20.1708 10.2933C20.1759 10.9096 20.1759 11.5257 20.1708 12.1416C20.1676 12.5478 19.9694 12.7506 19.5647 12.7506C18.8218 12.7583 18.0789 12.7602 17.336 12.7506C17.1583 12.7487 17.1026 12.7948 17.1065 12.9771C17.1127 13.2491 17.1119 13.521 17.1111 13.793C17.1103 14.052 17.1095 14.3111 17.1148 14.5701C17.1186 14.7454 17.0752 14.8023 16.891 14.8023C16.4868 14.8068 16.2867 14.8109 16.1877 14.7128C16.0906 14.6167 16.0906 14.4225 16.0906 14.0346ZM23.0983 14.7952C22.969 14.7959 22.8397 14.7965 22.7103 14.7965L22.709 14.7991C22.5721 14.7991 22.4353 14.7984 22.2985 14.7977C21.9999 14.7962 21.7014 14.7947 21.4028 14.8004C21.2423 14.8042 21.1746 14.7671 21.188 14.5925C21.1953 14.5023 21.1888 14.4034 21.1825 14.3055C21.1703 14.1188 21.1584 13.936 21.2423 13.8248C21.3311 13.7084 21.5449 13.7351 21.7513 13.7609C21.8274 13.7704 21.9024 13.7798 21.9699 13.7819C22.163 13.7877 22.2205 13.741 22.2173 13.5388C22.2065 12.6675 22.2103 11.7955 22.2173 10.9241C22.2186 10.7636 22.1834 10.6817 22.0095 10.7124C21.9883 10.7143 21.9669 10.7143 21.9456 10.7124C21.1 10.706 21.1004 10.7022 21.1877 9.84056L21.188 9.83784C21.2021 9.69902 21.2583 9.6907 21.3664 9.6907C21.6673 9.6907 21.9682 9.69127 22.2691 9.69184C22.8709 9.69297 23.4728 9.69411 24.0746 9.6907C24.2089 9.68942 24.2504 9.72269 24.2587 9.86535L24.2594 9.87734C24.3067 10.7009 24.3071 10.7085 23.4755 10.7085C23.2837 10.7092 23.2249 10.7488 23.2281 10.9516C23.239 11.823 23.2352 12.6943 23.2281 13.5657C23.2268 13.7262 23.262 13.8081 23.4359 13.7781C23.4572 13.7761 23.4786 13.7761 23.4998 13.7781C24.2741 13.7851 24.2741 13.7851 24.2584 14.5705L24.2581 14.5861C24.2549 14.7473 24.221 14.8055 24.0484 14.8004C23.7334 14.7917 23.4162 14.7935 23.0983 14.7952ZM12.3293 11.877L12.3293 11.8769L12.3293 11.8769C12.3699 11.5545 12.4095 11.2387 12.4386 10.9222C12.4527 10.7649 12.4974 10.7054 12.663 10.7143C12.7637 10.7196 12.8716 10.7105 12.9787 10.7016C13.186 10.6842 13.3905 10.6671 13.5338 10.754C13.6818 10.8437 13.6786 11.0538 13.6755 11.2658C13.674 11.3652 13.6725 11.465 13.6866 11.553C13.7106 11.7027 13.7262 11.8533 13.7425 12.0097C13.7501 12.0825 13.7578 12.1566 13.7665 12.2325H12.2852C12.2997 12.1128 12.3146 11.9945 12.3293 11.877ZM18.1167 11.7377C18.0247 11.7377 17.9327 11.737 17.8405 11.7363H17.8405C17.6559 11.7349 17.471 11.7335 17.2855 11.7377C17.15 11.7422 17.0829 11.7057 17.1065 11.5618C17.1078 11.5512 17.1078 11.5404 17.1065 11.5298C17.0934 11.1201 17.0868 10.9162 17.1855 10.8147C17.2834 10.7141 17.4846 10.7141 17.8852 10.7141C17.9849 10.7141 18.0845 10.7145 18.1842 10.7149C18.4458 10.7159 18.7073 10.717 18.9689 10.7109C19.1038 10.7109 19.1709 10.7429 19.1479 10.8869C19.147 10.8975 19.147 10.9082 19.1479 10.9189C19.1637 11.3302 19.1715 11.5349 19.073 11.6368C18.9754 11.7377 18.7733 11.7377 18.3711 11.7377H18.1167Z" fill="#FAFBFF"/>
</svg>
