<svg width="35" height="35" viewBox="0 0 35 35" fill="none" xmlns="http://www.w3.org/2000/svg">
<path d="M14.0467 9.99435C13.836 7.80142 14.4948 3.42705 18.8156 3.47302C23.6708 3.52467 24.0251 7.83972 23.9294 9.99435C24.0635 10.138 24.3316 10.5631 24.3316 11.1147C24.3316 11.8042 23.8719 12.3788 22.6079 12.4937V12.8097C22.5251 13.4911 22.0925 14.6257 21.0279 15.3093V17.0615L26.4863 19.2161C27.1662 19.4747 28.526 20.4112 28.526 22.089V25.1629V27.2026V31.0809C28.5356 31.3682 28.3996 31.9428 27.779 31.9428H25.0786H19.0456H16.2015L14.3629 32.0002H13.0127H10.226C9.65145 32.0002 9.50781 31.5023 9.50781 31.2533V22.1751C9.50781 20.2676 10.8868 19.3693 11.5763 19.1587L14.8226 17.8846L16.9197 17.0615V15.3802C15.8085 14.7066 15.4145 13.5152 15.3684 12.8097V12.4937C14.1043 12.4937 13.7309 11.8617 13.6159 11.2584C13.5207 10.7586 13.8361 10.2146 14.0467 9.99435Z" fill="url(#paint0_linear_6063_7308)" fill-opacity="0.8"/>
<path d="M11.5389 8.52169C11.3282 6.32876 11.987 1.95439 16.3078 2.00036C21.163 2.05201 21.5173 6.36707 21.4216 8.52169M11.5389 8.52169C11.8834 8.22294 12.5636 8.22483 12.8605 8.26312M11.5389 8.52169C11.3282 8.74194 11.0129 9.28596 11.1081 9.78572C11.2231 10.389 11.5965 11.021 12.8605 11.021M21.4216 8.52169C21.1822 8.38762 20.5827 8.1482 20.1001 8.26312M21.4216 8.52169C21.5557 8.66533 21.8238 9.09049 21.8238 9.64208C21.8238 10.3316 21.3641 10.9061 20.1001 11.021M20.1001 8.26312V7.57363L18.6637 6.13722C17.9167 6.74051 15.6185 7.87241 12.8605 7.57363V8.26312M20.1001 8.26312V11.021M20.1001 11.021V11.337C20.0173 12.0185 19.5847 13.153 18.5201 13.8367M12.8605 8.26312V11.021M12.8605 11.021V11.337C12.9067 12.0426 13.3006 13.2339 14.4119 13.9076M14.4119 13.9076C14.9145 14.2122 15.5639 14.411 16.3941 14.411C17.2872 14.411 17.9838 14.181 18.5201 13.8367M14.4119 13.9076V15.5888M14.4119 15.5888L12.3147 16.4119M14.4119 15.5888L16.3941 18.0595M11.8551 30.5276C11.4986 30.5276 11.0166 30.5276 10.5049 30.5276M10.5049 30.5276C9.38065 30.5276 8.11305 30.5276 7.71821 30.5276C7.14364 30.5276 7 30.0296 7 29.7806C7 27.5494 7 22.61 7 20.7025C7 18.7949 8.37896 17.8967 9.06844 17.686L12.3147 16.4119M10.5049 30.5276V21.4207M18.5201 13.8367V15.5888M18.5201 15.5888L23.9785 17.7435C24.6584 18.002 26.0182 18.9386 26.0182 20.6163V23.6902M18.5201 15.5888L16.3941 18.0595M26.0182 25.7299V29.6083C26.0277 29.8956 25.8918 30.4701 25.2712 30.4701C25.0529 30.4701 24.0003 30.4701 22.5708 30.4701M13.6937 30.4701C14.4945 30.4701 15.481 30.4701 16.5378 30.4701M16.5378 30.4701L14.3257 28.0857L15.7047 20.1566M16.5378 30.4701L18.5488 28.0857L17.256 20.1566M16.5378 30.4701C18.5608 30.4701 20.8416 30.4701 22.5708 30.4701M15.7047 20.1566L14.9865 19.1799M15.7047 20.1566H17.256M14.9865 19.1799L14.1534 19.7545L12.3147 16.4119M14.9865 19.1799L16.3941 18.0595M16.3941 18.0595L17.9742 19.0447M20.5023 16.4119L18.8361 19.5821L17.9742 19.0447M17.9742 19.0447L17.256 20.1566M22.5708 30.4701V21.5356" stroke="#444444" stroke-width="0.915846" stroke-linecap="round" stroke-linejoin="round"/>
<defs>
<linearGradient id="paint0_linear_6063_7308" x1="19.0171" y1="3.47266" x2="28.6983" y2="30.4551" gradientUnits="userSpaceOnUse">
<stop stop-color="#929EFF"/>
<stop offset="1" stop-color="#6070E9"/>
</linearGradient>
</defs>
</svg>
