<svg width="953" height="953" viewBox="0 0 953 953" fill="none" xmlns="http://www.w3.org/2000/svg">
<path d="M215.377 778.508L196.406 810.521H765.155L744.535 778.989L215.377 778.508Z" fill="#F1F1F1"/>
<path d="M765.163 810.555H196.406V817.078H765.163V810.555Z" fill="url(#paint0_linear_53835_2406)"/>
<path opacity="0.39" d="M480.74 796.466C536.149 796.466 581.068 794.344 581.068 791.727C581.068 789.107 536.149 786.984 480.74 786.984C425.33 786.984 380.414 789.107 380.414 791.727C380.414 794.344 425.33 796.466 480.74 796.466Z" stroke="#B3B3B3" stroke-width="8.02794" stroke-miterlimit="10"/>
<path d="M500.617 622.828V646.87C500.615 652.028 498.564 656.974 494.917 660.62C491.27 664.267 486.324 666.318 481.167 666.321C476.006 666.321 471.06 664.272 467.414 660.623C463.764 656.977 461.716 652.028 461.716 646.87V622.828H405.844V791.554H555.738V622.828H500.617Z" fill="url(#paint1_linear_53835_2406)"/>
<path opacity="0.31" d="M411.633 622.828V791.546" stroke="black" stroke-width="2.02279" stroke-miterlimit="10"/>
<path opacity="0.31" d="M549.945 622.828V791.546" stroke="black" stroke-width="2.02279" stroke-miterlimit="10"/>
<path d="M942.135 64.4418C939.965 61.0113 936.961 58.1853 933.407 56.2273C929.85 54.269 925.857 53.2422 921.798 53.2422H43.1138C37.8524 53.2335 32.7409 54.9957 28.6029 58.2451C27.1331 59.4058 25.8043 60.7345 24.6436 62.2043L24.5656 62.3184C21.3656 66.4345 19.6322 71.5017 19.6407 76.7153V613.216C19.64 616.931 20.516 620.591 22.1974 623.905C23.8787 627.215 26.3179 630.084 29.3166 632.275L29.3706 632.309C33.4015 635.26 38.2692 636.845 43.2636 636.835H922.242C927.281 636.845 932.19 635.242 936.249 632.256C938.171 630.841 939.869 629.144 941.288 627.223C944.276 623.169 945.885 618.265 945.877 613.229V77.3033C945.877 72.7476 944.577 68.2867 942.135 64.4418ZM928.138 632.294H37.3548C33.8611 632.294 30.5098 630.907 28.0358 628.44C25.5618 625.971 24.1672 622.626 24.1577 619.131V70.9746C24.1577 67.4745 25.5481 64.1176 28.023 61.6428C30.4982 59.1676 33.8548 57.7773 37.3548 57.7773H928.17C931.668 57.7773 935.027 59.1676 937.501 61.6428C939.975 64.1176 941.367 67.4745 941.367 70.9746V619.131C941.357 622.629 939.959 625.982 937.477 628.451C934.998 630.917 931.639 632.301 928.138 632.294Z" fill="#1B1B1B"/>
<path d="M928.17 57.7891H37.3846C33.8846 57.7891 30.5279 59.1795 28.0528 61.6543C25.5779 64.1295 24.1875 67.4861 24.1875 70.9864V619.144C24.197 622.637 25.5916 625.985 28.0655 628.451C30.5396 630.918 33.8909 632.304 37.3846 632.304H928.199C931.692 632.304 935.045 630.918 937.519 628.451C939.993 625.985 941.388 622.637 941.396 619.144V70.9623C941.393 69.2287 941.049 67.5128 940.382 65.9123C939.716 64.3121 938.739 62.8587 937.511 61.6353C936.283 60.4121 934.825 59.4428 933.224 58.7828C931.62 58.1228 929.903 57.7851 928.17 57.7891ZM910.622 579.52H54.9256V87.7174H910.622V579.52Z" fill="#999999"/>
<path d="M421.879 159.102H267.565C251.332 159.102 238.172 172.261 238.172 188.495V342.809C238.172 359.042 251.332 372.202 267.565 372.202H421.879C438.112 372.202 451.272 359.042 451.272 342.809V188.495C451.272 172.261 438.112 159.102 421.879 159.102Z" fill="url(#paint2_linear_53835_2406)"/>
<path d="M315.615 306.041C339.541 306.041 349.764 289.728 352.266 279.07L335.844 274.394C334.321 279.94 328.992 288.858 315.615 288.858C304.087 288.858 293.429 280.484 293.429 266.02C293.429 249.815 305.066 242.42 315.398 242.42C328.992 242.42 333.886 251.447 335.082 256.776L351.287 251.664C348.786 240.571 338.563 225.672 315.398 225.672C293.865 225.672 275.594 241.985 275.594 266.02C275.594 290.055 293.429 306.041 315.615 306.041V306.041ZM412.151 304.41V288.097H380.395V273.306H409.106V258.189H380.395V243.508H412.042V227.303H363.212V304.41H412.151Z" fill="white"/>
<path d="M652.299 279.844H464.898C445.185 279.844 429.203 295.825 429.203 315.539V502.939C429.203 522.653 445.185 538.635 464.898 538.635H652.299C672.013 538.635 687.994 522.653 687.994 502.939V315.539C687.994 295.825 672.013 279.844 652.299 279.844Z" fill="url(#paint3_linear_53835_2406)"/>
<path d="M510.985 404.952V381.046H523.135C531.06 381.046 536.474 385.537 536.474 393.066C536.474 400.329 531.06 404.952 523.135 404.952H510.985ZM525.248 422.914C544.267 422.914 557.341 410.631 557.341 392.933C557.341 375.499 544.267 362.953 525.248 362.953H489.984V456.592H510.852V422.914H525.248ZM630.415 456.592V436.781H591.85V418.819H626.717V400.462H591.85V382.631H630.284V362.953H570.983V456.592H630.415Z" fill="white"/>
<defs>
<linearGradient id="paint0_linear_53835_2406" x1="196.406" y1="813.82" x2="765.164" y2="813.82" gradientUnits="userSpaceOnUse">
<stop stop-color="#4D4D4D"/>
<stop offset="0.07" stop-color="#808080"/>
<stop offset="0.49" stop-color="#6E6E6E"/>
<stop offset="0.92" stop-color="#808080"/>
<stop offset="1" stop-color="#666666"/>
</linearGradient>
<linearGradient id="paint1_linear_53835_2406" x1="480.756" y1="622.828" x2="480.756" y2="791.554" gradientUnits="userSpaceOnUse">
<stop stop-color="#8F8F8F"/>
<stop offset="1" stop-color="#DCDCDC"/>
</linearGradient>
<linearGradient id="paint2_linear_53835_2406" x1="344.722" y1="159.102" x2="344.722" y2="372.202" gradientUnits="userSpaceOnUse">
<stop stop-color="#FFAC33"/>
<stop offset="1" stop-color="#EEA20E"/>
</linearGradient>
<linearGradient id="paint3_linear_53835_2406" x1="558.599" y1="279.844" x2="558.599" y2="538.635" gradientUnits="userSpaceOnUse">
<stop stop-color="#825AD7"/>
<stop offset="1" stop-color="#593A9A"/>
</linearGradient>
</defs>
</svg>
