<svg width="35" height="35" viewBox="0 0 35 35" fill="none" xmlns="http://www.w3.org/2000/svg">
<rect x="4.05469" y="4.05859" width="29.061" height="29.061" rx="2.15619" fill="url(#paint0_linear_8304_7792)" fill-opacity="0.8"/>
<path d="M9.1382 1H3.67611C2.19814 1 1 2.19814 1 3.67611V9.21645" stroke="#616161" stroke-width="0.98" stroke-linecap="round"/>
<path d="M9.1382 29.6797H3.67611C2.19814 29.6797 1 28.4816 1 27.0036V21.4632" stroke="#616161" stroke-width="0.98" stroke-linecap="round"/>
<path d="M21.5415 1H27.0036C28.4816 1 29.6797 2.19814 29.6797 3.67611V9.21645" stroke="#616161" stroke-width="0.98" stroke-linecap="round"/>
<path d="M21.5415 29.6797H27.0036C28.4816 29.6797 29.6797 28.4816 29.6797 27.0036V21.4632" stroke="#616161" stroke-width="0.98" stroke-linecap="round"/>
<rect x="5.24781" y="5.24195" width="8.73753" height="8.73753" rx="2.18611" stroke="#616161" stroke-width="0.98"/>
<rect x="5.24781" y="16.738" width="8.73753" height="8.73753" rx="2.18611" stroke="#616161" stroke-width="0.98"/>
<rect x="17.125" y="17.1172" width="3.6342" height="3.6342" rx="0.314837" fill="white"/>
<rect x="21.4688" y="17.1172" width="3.6342" height="3.6342" rx="0.314837" fill="white"/>
<rect x="17.125" y="21.4629" width="3.6342" height="3.6342" rx="0.314837" fill="white"/>
<rect x="21.4688" y="21.4629" width="3.6342" height="3.6342" rx="0.314837" fill="white"/>
<rect x="16.7322" y="5.24195" width="8.73753" height="8.73753" rx="2.18611" stroke="#616161" stroke-width="0.98"/>
<defs>
<linearGradient id="paint0_linear_8304_7792" x1="18.5852" y1="4.05859" x2="25.6048" y2="33.405" gradientUnits="userSpaceOnUse">
<stop stop-color="#929EFF"/>
<stop offset="1" stop-color="#6070E9"/>
</linearGradient>
</defs>
</svg>
