<svg width="32" height="24" viewBox="0 0 32 24" fill="none" xmlns="http://www.w3.org/2000/svg">
<g clip-path="url(#clip0_45483_10298)">
<mask id="mask0_45483_10298" style="mask-type:alpha" maskUnits="userSpaceOnUse" x="0" y="0" width="32" height="24">
<path d="M0 0H32V24H0V0Z" fill="white"/>
</mask>
<g mask="url(#mask0_45483_10298)">
<path fill-rule="evenodd" clip-rule="evenodd" d="M0 0V24H32V0H0Z" fill="#F7FCFF"/>
<mask id="mask1_45483_10298" style="mask-type:alpha" maskUnits="userSpaceOnUse" x="0" y="0" width="32" height="24">
<path fill-rule="evenodd" clip-rule="evenodd" d="M0 0V24H32V0H0Z" fill="white"/>
</mask>
<g mask="url(#mask1_45483_10298)">
<path fill-rule="evenodd" clip-rule="evenodd" d="M0 0V8H32V0H0Z" fill="#FF8C1A"/>
<path fill-rule="evenodd" clip-rule="evenodd" d="M0 16V24H32V16H0Z" fill="#5EAA22"/>
<path fill-rule="evenodd" clip-rule="evenodd" d="M12 12C12 13.0609 12.4214 14.0783 13.1716 14.8284C13.9217 15.5786 14.9391 16 16 16C17.0609 16 18.0783 15.5786 18.8284 14.8284C19.5786 14.0783 20 13.0609 20 12C20 10.9391 19.5786 9.92172 18.8284 9.17157C18.0783 8.42143 17.0609 8 16 8C14.9391 8 13.9217 8.42143 13.1716 9.17157C12.4214 9.92172 12 10.9391 12 12ZM19 12C19 12.7956 18.6839 13.5587 18.1213 14.1213C17.5587 14.6839 16.7956 15 16 15C15.2044 15 14.4413 14.6839 13.8787 14.1213C13.3161 13.5587 13 12.7956 13 12C13 11.2044 13.3161 10.4413 13.8787 9.87868C14.4413 9.31607 15.2044 9 16 9C16.7956 9 17.5587 9.31607 18.1213 9.87868C18.6839 10.4413 19 11.2044 19 12Z" fill="#3D58DB"/>
<path fill-rule="evenodd" clip-rule="evenodd" d="M15.9964 12.8581L15.4254 15.9791L15.7564 12.8241L14.3294 15.6581L15.5364 12.7241L13.3694 15.0401L15.3534 12.5661L12.6214 14.1781L15.2234 12.3621L12.1474 13.1391L15.1544 12.1301L11.9844 12.0091L15.1544 11.8891L12.1474 10.8791L15.2234 11.6561L12.6214 9.84106L15.3534 11.4531L13.3694 8.97806L15.5364 11.2941L14.3294 8.36006L15.7564 11.1941L15.4254 8.03906L15.9954 11.1591L16.5664 8.03906L16.2354 11.1941L17.6624 8.36006L16.4554 11.2941L18.6214 8.97806L16.6374 11.4531L19.3694 9.84106L16.7674 11.6561L19.8434 10.8791L16.8354 11.8891L20.0054 12.0091L16.8354 12.1301L19.8434 13.1401L16.7674 12.3621L19.3694 14.1781L16.6374 12.5661L18.6214 15.0401L16.4544 12.7241L17.6614 15.6581L16.2344 12.8241L16.5654 15.9791L15.9954 12.8591L15.9964 12.8581Z" fill="#3D58DB"/>
</g>
</g>
</g>
<defs>
<clipPath id="clip0_45483_10298">
<rect width="32" height="24" rx="2" fill="white"/>
</clipPath>
</defs>
</svg>
