<svg width="36" height="36" viewBox="0 0 36 36" fill="none" xmlns="http://www.w3.org/2000/svg">
<path d="M32.9795 20.4889C33.3914 10.9283 27.5338 6.4494 20.9451 6.32919C20.8159 6.32684 20.7103 6.43178 20.7103 6.56097V20.4897C20.7103 20.6189 20.8151 20.7236 20.9443 20.7236H32.7479C32.8771 20.7236 32.982 20.6181 32.9795 20.4889Z" fill="url(#paint0_linear_5162_9139)" fill-opacity="0.8"/>
<path fill-rule="evenodd" clip-rule="evenodd" d="M13.128 6.59256C13.1862 6.82945 13.0413 7.06864 12.8044 7.12681C7.66947 8.3877 3.88335 12.9047 3.88335 18.2677C3.88335 24.6023 9.16797 29.7584 15.7131 29.7584C20.974 29.7584 25.4247 26.4245 26.965 21.8258C27.0424 21.5945 27.2927 21.4698 27.524 21.5473C27.7553 21.6247 27.8801 21.875 27.8026 22.1063C26.1411 27.0671 21.3517 30.6418 15.7131 30.6418C8.70361 30.6418 3 25.1133 3 18.2677C3 12.473 7.08861 7.62074 12.5938 6.26895C12.8307 6.21078 13.0699 6.35566 13.128 6.59256Z" fill="#444444"/>
<path fill-rule="evenodd" clip-rule="evenodd" d="M27.7565 17.049C27.3161 11.6599 22.8815 7.33145 17.2877 6.91598V17.049H27.7565ZM28.6427 17.049C28.6646 17.3407 28.6758 17.6353 28.6758 17.9324H16.4043V5.99996C16.7014 5.99996 16.9959 6.01023 17.2877 6.0304C23.3526 6.44988 28.1991 11.155 28.6427 17.049Z" fill="#444444"/>
<defs>
<linearGradient id="paint0_linear_5162_9139" x1="26.8457" y1="18.2595" x2="24.0347" y2="6.17422" gradientUnits="userSpaceOnUse">
<stop stop-color="#929EFF"/>
<stop offset="1" stop-color="#6070E9"/>
</linearGradient>
</defs>
</svg>
