<svg width="35" height="35" viewBox="0 0 35 35" fill="none" xmlns="http://www.w3.org/2000/svg">
<path d="M7.1084 30.5319V9.21922C7.1084 8.40847 7.76564 7.75122 8.5764 7.75122H29.7337C30.5444 7.75122 31.2017 8.40847 31.2017 9.21922V30.5319C31.2017 31.3427 30.5444 31.9999 29.7337 31.9999H8.5764C7.76564 31.9999 7.1084 31.3427 7.1084 30.5319Z" fill="url(#paint0_linear_5099_7269)" fill-opacity="0.8"/>
<path fill-rule="evenodd" clip-rule="evenodd" d="M9.8726 15.6587C9.97494 15.6587 10.0579 15.5758 10.0579 15.4734C10.0579 15.3711 9.97496 15.2882 9.8726 15.2882C9.77029 15.2882 9.68735 15.3711 9.68735 15.4734C9.68735 15.5758 9.77031 15.6587 9.8726 15.6587ZM9.8726 14.2395C9.19112 14.2395 8.63867 14.7919 8.63867 15.4734C8.63867 16.155 9.19112 16.7073 9.8726 16.7073C10.5541 16.7073 11.1066 16.155 11.1066 15.4734C11.1066 14.7919 10.5541 14.2395 9.8726 14.2395Z" fill="white"/>
<path fill-rule="evenodd" clip-rule="evenodd" d="M22.485 15.6587C22.5872 15.6587 22.6703 15.5758 22.6703 15.4734C22.6703 15.3711 22.5874 15.2882 22.485 15.2882C22.3826 15.2882 22.2996 15.3711 22.2996 15.4734C22.2996 15.5758 22.3826 15.6587 22.485 15.6587ZM22.485 14.2395C21.8035 14.2395 21.251 14.7919 21.251 15.4734C21.251 16.155 21.8035 16.7073 22.485 16.7073C23.1664 16.7073 23.719 16.155 23.719 15.4734C23.719 14.7919 23.1664 14.2395 22.485 14.2395Z" fill="white"/>
<path fill-rule="evenodd" clip-rule="evenodd" d="M14.0789 15.6534C14.16 15.6336 14.2201 15.5605 14.2201 15.4734C14.2201 15.3863 14.16 15.3132 14.0789 15.2934C14.0718 15.2917 14.0644 15.2903 14.0568 15.2895C14.0494 15.2903 14.042 15.2917 14.0348 15.2934C13.9538 15.3132 13.8937 15.3863 13.8937 15.4734C13.8937 15.5605 13.9538 15.6336 14.0348 15.6534C14.042 15.6552 14.0494 15.6565 14.0568 15.6575C14.0644 15.6565 14.0718 15.6552 14.0789 15.6534ZM14.0348 14.2395C13.3533 14.2395 12.8008 14.7919 12.8008 15.4734C12.8008 16.155 13.3533 16.7073 14.0348 16.7073H14.0789C14.7605 16.7073 15.3128 16.155 15.3128 15.4734C15.3128 14.7919 14.7605 14.2395 14.0789 14.2395H14.0348Z" fill="white"/>
<path fill-rule="evenodd" clip-rule="evenodd" d="M9.8724 19.8244C9.97514 19.8244 10.0579 19.7414 10.0579 19.6392C10.0579 19.5371 9.97517 19.4539 9.8724 19.4539C9.76968 19.4539 9.68695 19.5371 9.68695 19.6392C9.68695 19.7414 9.76972 19.8244 9.8724 19.8244ZM9.8724 18.4053C9.19102 18.4053 8.63867 18.9578 8.63867 19.6392C8.63867 20.3206 9.19102 20.8731 9.8724 20.8731C10.5538 20.8731 11.1062 20.3206 11.1062 19.6392C11.1062 18.9578 10.5538 18.4053 9.8724 18.4053Z" fill="white"/>
<path fill-rule="evenodd" clip-rule="evenodd" d="M22.4848 19.8244C22.5875 19.8244 22.6703 19.7414 22.6703 19.6392C22.6703 19.5371 22.5875 19.4539 22.4848 19.4539C22.3819 19.4539 22.2992 19.5373 22.2992 19.6392C22.2992 19.7413 22.382 19.8244 22.4848 19.8244ZM22.4848 18.4053C21.8034 18.4053 21.251 18.9578 21.251 19.6392C21.251 20.3206 21.8034 20.8731 22.4848 20.8731C23.1662 20.8731 23.7184 20.3206 23.7184 19.6392C23.7184 18.9578 23.1662 18.4053 22.4848 18.4053Z" fill="white"/>
<path fill-rule="evenodd" clip-rule="evenodd" d="M14.0785 19.8193C14.1597 19.7996 14.2201 19.7264 14.2201 19.6392C14.2201 19.552 14.1598 19.4789 14.0785 19.4592C14.0714 19.4574 14.0641 19.4561 14.0567 19.4553C14.0493 19.4561 14.042 19.4574 14.0348 19.4592C13.9535 19.4789 13.8933 19.552 13.8933 19.6392C13.8933 19.7264 13.9535 19.7996 14.0348 19.8193C14.042 19.8211 14.0493 19.8223 14.0567 19.8232C14.0641 19.8223 14.0714 19.8211 14.0785 19.8193ZM14.0348 18.4053C13.3533 18.4053 12.8008 18.9578 12.8008 19.6392C12.8008 20.3207 13.3533 20.8731 14.0348 20.8731H14.0785C14.7601 20.8731 15.3124 20.3207 15.3124 19.6392C15.3124 18.9578 14.7601 18.4053 14.0785 18.4053H14.0348Z" fill="white"/>
<path fill-rule="evenodd" clip-rule="evenodd" d="M14.0789 23.9813C14.16 23.9615 14.2201 23.8884 14.2201 23.8014C14.2201 23.7142 14.16 23.6411 14.0789 23.6213C14.0718 23.6196 14.0644 23.6182 14.0568 23.6174C14.0494 23.6182 14.042 23.6196 14.0348 23.6213C13.9538 23.6411 13.8937 23.7142 13.8937 23.8014C13.8937 23.8884 13.9538 23.9615 14.0348 23.9813C14.042 23.983 14.0494 23.9844 14.0568 23.9853C14.0644 23.9844 14.0718 23.983 14.0789 23.9813ZM14.0348 22.5674C13.3533 22.5674 12.8008 23.1198 12.8008 23.8014C12.8008 24.4828 13.3533 25.0352 14.0348 25.0352H14.0789C14.7605 25.0352 15.3128 24.4828 15.3128 23.8014C15.3128 23.1198 14.7605 22.5674 14.0789 22.5674H14.0348Z" fill="white"/>
<path fill-rule="evenodd" clip-rule="evenodd" d="M9.8726 23.9866C9.97496 23.9866 10.0579 23.9035 10.0579 23.8014C10.0579 23.699 9.97492 23.6161 9.8726 23.6161C9.77033 23.6161 9.68735 23.699 9.68735 23.8014C9.68735 23.9036 9.77029 23.9866 9.8726 23.9866ZM9.8726 22.5674C9.19112 22.5674 8.63867 23.1198 8.63867 23.8014C8.63867 24.4828 9.19112 25.0352 9.8726 25.0352C10.5541 25.0352 11.1066 24.4828 11.1066 23.8014C11.1066 23.1198 10.5541 22.5674 9.8726 22.5674Z" fill="white"/>
<path fill-rule="evenodd" clip-rule="evenodd" d="M22.485 23.9866C22.5874 23.9866 22.6703 23.9036 22.6703 23.8014C22.6703 23.699 22.5872 23.6161 22.485 23.6161C22.3826 23.6161 22.2996 23.699 22.2996 23.8014C22.2996 23.9036 22.3826 23.9866 22.485 23.9866ZM22.485 22.5674C21.8035 22.5674 21.251 23.1198 21.251 23.8014C21.251 24.4828 21.8035 25.0352 22.485 25.0352C23.1664 25.0352 23.719 24.4828 23.719 23.8014C23.719 23.1198 23.1664 22.5674 22.485 22.5674Z" fill="white"/>
<path fill-rule="evenodd" clip-rule="evenodd" d="M18.3045 15.6534C18.3855 15.6336 18.4457 15.5605 18.4457 15.4734C18.4457 15.3863 18.3855 15.3132 18.3045 15.2934C18.2974 15.2917 18.29 15.2903 18.2824 15.2895C18.275 15.2903 18.2676 15.2917 18.2604 15.2934C18.1794 15.3132 18.1193 15.3863 18.1193 15.4734C18.1193 15.5605 18.1794 15.6336 18.2604 15.6534C18.2676 15.6552 18.275 15.6565 18.2824 15.6575C18.29 15.6565 18.2974 15.6552 18.3045 15.6534ZM18.2604 14.2395C17.5789 14.2395 17.0264 14.7919 17.0264 15.4734C17.0264 16.155 17.5789 16.7073 18.2604 16.7073H18.3045C18.9861 16.7073 19.5384 16.155 19.5384 15.4734C19.5384 14.7919 18.9861 14.2395 18.3045 14.2395H18.2604Z" fill="white"/>
<path fill-rule="evenodd" clip-rule="evenodd" d="M18.3041 19.8193C18.3853 19.7996 18.4457 19.7264 18.4457 19.6392C18.4457 19.552 18.3854 19.4789 18.3041 19.4592C18.297 19.4574 18.2897 19.4561 18.2823 19.4553C18.2748 19.4561 18.2674 19.4574 18.2604 19.4592C18.1791 19.4789 18.1189 19.552 18.1189 19.6392C18.1189 19.7264 18.1791 19.7996 18.2604 19.8193C18.2674 19.8211 18.2748 19.8223 18.2823 19.8232C18.2897 19.8223 18.297 19.8211 18.3041 19.8193ZM18.2604 18.4053C17.5789 18.4053 17.0264 18.9578 17.0264 19.6392C17.0264 20.3207 17.5789 20.8731 18.2604 20.8731H18.3041C18.9856 20.8731 19.538 20.3207 19.538 19.6392C19.538 18.9578 18.9856 18.4053 18.3041 18.4053H18.2604Z" fill="white"/>
<path fill-rule="evenodd" clip-rule="evenodd" d="M18.3045 23.9813C18.3855 23.9615 18.4457 23.8884 18.4457 23.8014C18.4457 23.7142 18.3855 23.6411 18.3045 23.6214C18.3045 23.6213 18.3045 23.6213 18.3045 23.6213C18.2974 23.6196 18.29 23.6182 18.2824 23.6174C18.275 23.6182 18.2676 23.6196 18.2604 23.6213C18.1794 23.6411 18.1193 23.7142 18.1193 23.8014C18.1193 23.8884 18.1794 23.9615 18.2604 23.9813C18.2676 23.983 18.275 23.9844 18.2824 23.9853C18.29 23.9844 18.2974 23.983 18.3045 23.9813ZM18.2604 22.5674C17.5789 22.5674 17.0264 23.1198 17.0264 23.8014C17.0264 24.4828 17.5789 25.0352 18.2604 25.0352H18.3045C18.9861 25.0352 19.5384 24.4828 19.5384 23.8014C19.5384 23.1198 18.9861 22.5674 18.3045 22.5674H18.2604Z" fill="white"/>
<path fill-rule="evenodd" clip-rule="evenodd" d="M26.1307 5.5442H5.97381C5.38799 5.5442 4.91309 6.0191 4.91309 6.60491V26.9012C4.91309 27.487 5.38799 27.9619 5.97381 27.9619H26.1307C26.7165 27.9619 27.1914 27.487 27.1914 26.9012V6.60491C27.1914 6.0191 26.7165 5.5442 26.1307 5.5442ZM5.97381 4.6311C4.88371 4.6311 4 5.51481 4 6.60491V26.9012C4 27.9913 4.8837 28.875 5.97381 28.875H26.1307C27.2208 28.875 28.1045 27.9913 28.1045 26.9012V6.60491C28.1045 5.51481 27.2208 4.6311 26.1307 4.6311H5.97381Z" fill="#444444"/>
<rect x="8.66309" y="2" width="0.993128" height="5.79325" rx="0.496564" fill="#444444"/>
<rect x="21.5664" y="2" width="0.993128" height="5.79325" rx="0.496564" fill="#444444"/>
<path fill-rule="evenodd" clip-rule="evenodd" d="M28.0934 10.7046H4.77734V9.7915H28.0934V10.7046Z" fill="#444444"/>
<defs>
<linearGradient id="paint0_linear_5099_7269" x1="19.155" y1="7.75122" x2="25.046" y2="32.2209" gradientUnits="userSpaceOnUse">
<stop stop-color="#929EFF"/>
<stop offset="1" stop-color="#6070E9"/>
</linearGradient>
</defs>
</svg>
