<svg width="36" height="36" viewBox="0 0 36 36" fill="none" xmlns="http://www.w3.org/2000/svg">
<path d="M8.55504 20.5225C5.29106 8.75495 13.8805 3.94484 18.6047 3C17.1159 6.09221 15.4182 13.2374 19.1201 18.2034C22.6418 22.9276 29.3129 23.8438 31.9184 23.7007C29.771 29.971 13.9664 34.9529 8.55504 20.5225Z" fill="url(#paint0_linear_5162_9175)" fill-opacity="0.8"/>
<path fill-rule="evenodd" clip-rule="evenodd" d="M16.2523 4.84277L15.7872 5.80868C15.0715 7.29517 14.2943 9.78564 14.1505 12.5042C14.0067 15.2219 14.4979 18.1112 16.2495 20.461C17.9234 22.7064 20.3618 24.0663 22.7311 24.8467C25.1021 25.6278 27.3547 25.812 28.5902 25.7441L29.3819 25.7006L29.125 26.4507C28.5335 28.1777 27.0321 29.7513 25.0994 30.9134C23.1572 32.0812 20.7253 32.868 18.1864 32.985C15.6441 33.102 12.981 32.5475 10.5986 31.0149C8.21331 29.4805 6.14367 26.9877 4.75591 23.287L4.74763 23.265L4.74133 23.2423C3.06613 17.2027 4.42436 12.8739 6.87525 9.93731C9.30165 7.03011 12.751 5.54303 15.2011 5.05302L16.2523 4.84277ZM5.76469 22.9339C4.18566 17.2182 5.48963 13.2651 7.69561 10.622C9.61133 8.32664 12.2438 6.97716 14.3891 6.35266C13.7683 7.94637 13.2067 10.1177 13.0835 12.4477C12.9317 15.3171 13.4426 18.4834 15.3929 21.0996C17.2407 23.5784 19.8987 25.0387 22.3968 25.8616C24.4359 26.5333 26.4012 26.7914 27.7994 26.8223C27.1805 27.9808 26.045 29.098 24.5487 29.9977C22.7545 31.0765 20.4944 31.809 18.1373 31.9176C15.7836 32.0259 13.3467 31.5122 11.1767 30.1163C9.01409 28.7251 7.08244 26.4359 5.76469 22.9339Z" fill="#444444"/>
<defs>
<linearGradient id="paint0_linear_5162_9175" x1="19.8757" y1="3" x2="27.0313" y2="29.7957" gradientUnits="userSpaceOnUse">
<stop stop-color="#929EFF"/>
<stop offset="1" stop-color="#6070E9"/>
</linearGradient>
</defs>
</svg>
