<svg width="36" height="36" viewBox="0 0 36 36" fill="none" xmlns="http://www.w3.org/2000/svg">
<path d="M14.2463 15.1634L12.1702 33H29.6333L26.7655 15.1381C26.7196 14.8523 26.473 14.6421 26.1835 14.6421H14.8318C14.5326 14.6421 14.2809 14.8662 14.2463 15.1634Z" fill="url(#paint0_linear_5099_7299)" fill-opacity="0.8"/>
<path fill-rule="evenodd" clip-rule="evenodd" d="M17.876 3C18.2243 3 18.5067 3.29073 18.5067 3.64936V6.89609C18.5067 7.25472 18.2243 7.54545 17.876 7.54545C17.5278 7.54545 17.2454 7.25472 17.2454 6.89609V3.64936C17.2454 3.29073 17.5278 3 17.876 3ZM29.6751 4.48888C29.9214 4.74248 29.9214 5.15363 29.6751 5.40721L27.1522 8.00461C26.9059 8.25819 26.5065 8.25819 26.2602 8.00461C26.0139 7.75102 26.0139 7.33988 26.2602 7.08629L28.7832 4.48888C29.0295 4.2353 29.4288 4.2353 29.6751 4.48888ZM6.07693 5.13824C6.32324 4.88465 6.72259 4.88465 6.96891 5.13824L8.8611 7.08629C9.10741 7.33988 9.10741 7.75102 8.8611 8.00461C8.61479 8.25819 8.21543 8.25819 7.96912 8.00461L6.07693 6.05655C5.83061 5.80297 5.83061 5.39182 6.07693 5.13824ZM4 17.2857C4 16.9271 4.28239 16.6364 4.63074 16.6364H7.78437C8.13272 16.6364 8.41511 16.9271 8.41511 17.2857C8.41511 17.6443 8.13272 17.935 7.78437 17.935H4.63074C4.28239 17.935 4 17.6443 4 17.2857ZM26.7062 17.2857C26.7062 16.9271 26.9886 16.6364 27.337 16.6364H31.1214C31.4697 16.6364 31.7521 16.9271 31.7521 17.2857C31.7521 17.6443 31.4697 17.935 31.1214 17.935H27.337C26.9886 17.935 26.7062 17.6443 26.7062 17.2857Z" fill="#444444"/>
<path fill-rule="evenodd" clip-rule="evenodd" d="M10.9048 11.6707C10.9317 11.4396 11.1274 11.2654 11.36 11.2654H23.7389C23.964 11.2654 24.1558 11.4288 24.1915 11.651L27.0769 29.6233H27.7916C28.0447 29.6233 28.2499 29.8285 28.2499 30.0816C28.2499 30.3347 28.0447 30.5399 27.7916 30.5399H8.04425C7.79113 30.5399 7.58594 30.3347 7.58594 30.0816C7.58594 29.8285 7.79113 29.6233 8.04425 29.6233H8.81513L10.9048 11.6707ZM9.73795 29.6233H26.1485L23.3483 12.182H11.7681L9.73795 29.6233Z" fill="#444444"/>
<defs>
<linearGradient id="paint0_linear_5099_7299" x1="20.8649" y1="14.6421" x2="25.0177" y2="33.3175" gradientUnits="userSpaceOnUse">
<stop stop-color="#929EFF"/>
<stop offset="1" stop-color="#6070E9"/>
</linearGradient>
</defs>
</svg>
