<svg width="35" height="35" viewBox="0 0 35 35" fill="none" xmlns="http://www.w3.org/2000/svg">
<circle cx="23.6655" cy="18.5696" r="9.33444" fill="url(#paint0_linear_5099_7251)" fill-opacity="0.8"/>
<path fill-rule="evenodd" clip-rule="evenodd" d="M3 6.35677C3 4.50287 4.50288 3 6.35677 3H20.5081C21.8517 3 22.9409 4.08923 22.9409 5.43286C22.9409 5.66247 22.7548 5.84861 22.5252 5.84861C22.2956 5.84861 22.1094 5.66247 22.1094 5.43286C22.1094 4.54846 21.3925 3.83151 20.5081 3.83151H6.35677C4.96211 3.83151 3.83151 4.9621 3.83151 6.35677V27.7941C3.83151 29.1888 4.9621 30.3194 6.35677 30.3194H19.7649C21.0597 30.3194 22.1094 29.2697 22.1094 27.9749C22.1094 27.7453 22.2956 27.5591 22.5252 27.5591C22.7548 27.5591 22.9409 27.7453 22.9409 27.9749C22.9409 29.729 21.519 31.1509 19.7649 31.1509H6.35677C4.50288 31.1509 3 29.648 3 27.7941V6.35677Z" fill="#444444"/>
<path fill-rule="evenodd" clip-rule="evenodd" d="M21.5259 24.838C26.1691 24.838 29.9332 21.0739 29.9332 16.4306C29.9332 11.7874 26.1691 8.02331 21.5259 8.02331C16.8826 8.02331 13.1185 11.7874 13.1185 16.4306C13.1185 21.0739 16.8826 24.838 21.5259 24.838ZM21.5259 25.7651C26.6811 25.7651 30.8603 21.5859 30.8603 16.4306C30.8603 11.2754 26.6811 7.09619 21.5259 7.09619C16.3706 7.09619 12.1914 11.2754 12.1914 16.4306C12.1914 21.5859 16.3706 25.7651 21.5259 25.7651Z" fill="#444444"/>
<path d="M7.24248 9.3772C6.97804 9.3772 6.76367 9.16283 6.76367 8.89839V8.89839C6.76367 8.63395 6.97804 8.41958 7.24248 8.41958L13.1449 8.41958C13.4094 8.41958 13.6238 8.63395 13.6238 8.89839V8.89839C13.6238 9.16283 13.4094 9.3772 13.1449 9.3772L7.24248 9.3772Z" fill="#444444"/>
<path d="M7.24248 15.0391C6.97804 15.0391 6.76367 14.8247 6.76367 14.5603V14.5603C6.76367 14.2958 6.97804 14.0814 7.24248 14.0814L9.88926 14.0814C10.1537 14.0814 10.3681 14.2958 10.3681 14.5603V14.5603C10.3681 14.8247 10.1537 15.0391 9.88926 15.0391L7.24248 15.0391Z" fill="#444444"/>
<path d="M7.24248 25.9385C6.97804 25.9385 6.76367 25.7241 6.76367 25.4597V25.4597C6.76367 25.1952 6.97804 24.9809 7.24248 24.9809L15.6929 24.9809C15.9573 24.9809 16.1717 25.1952 16.1717 25.4597V25.4597C16.1717 25.7241 15.9573 25.9385 15.6929 25.9385L7.24248 25.9385Z" fill="#444444"/>
<path fill-rule="evenodd" clip-rule="evenodd" d="M19.2342 13.1926C20.5408 13.0868 21.2566 13.8667 21.4666 14.3781C21.5977 14.6975 21.4738 15.0759 21.19 15.2235C20.9061 15.371 20.5696 15.2316 20.4385 14.9123C20.4385 14.9123 20.4385 14.9123 20.4384 14.912C20.4365 14.9082 20.4197 14.8737 20.3777 14.8225C20.3346 14.77 20.2713 14.7078 20.1844 14.6499C20.0161 14.5377 19.7403 14.4289 19.3155 14.4633C18.294 14.546 17.9957 15.3282 17.9957 15.7348C17.9957 15.8934 18.0763 16.2216 18.3054 16.5091C18.5166 16.7741 18.8545 17.0047 19.3867 17.0047C19.8561 17.0047 20.3747 16.652 20.8583 16.1227C21.3246 15.6124 21.6575 15.0486 21.7484 14.8715C22.0326 14.3177 22.8054 13.191 24.5315 13.191C25.5314 13.191 26.1935 13.6252 26.5889 14.2113C26.9614 14.7633 27.055 15.386 27.055 15.7348C27.055 16.1392 26.9201 16.7607 26.5377 17.293C26.1339 17.8549 25.4811 18.2787 24.5315 18.2787C24.2776 18.2787 23.8905 18.2334 23.5104 18.0953C23.1447 17.9625 22.6801 17.7053 22.4194 17.1975C22.2631 16.8928 22.3559 16.5032 22.6267 16.3273C22.8975 16.1514 23.2438 16.2558 23.4001 16.5605C23.4527 16.6629 23.5939 16.787 23.8583 16.883C24.1082 16.9738 24.3754 17.0047 24.5315 17.0047C25.1477 17.0047 25.4735 16.7475 25.657 16.4922C25.8617 16.2072 25.9226 15.8753 25.9226 15.7348C25.9226 15.5903 25.8746 15.2595 25.6869 14.9815C25.5223 14.7375 25.2058 14.4649 24.5315 14.4649C23.3497 14.4649 22.8922 15.1906 22.7291 15.5085C22.5963 15.7673 22.2022 16.4293 21.6479 17.0359C21.111 17.6235 20.3154 18.2787 19.3867 18.2787C18.5209 18.2787 17.8802 17.884 17.4623 17.3595C17.0623 16.8576 16.8633 16.2323 16.8633 15.7348C16.8633 14.7249 17.5646 13.3278 19.2342 13.1926Z" fill="white"/>
<defs>
<linearGradient id="paint0_linear_5099_7251" x1="23.6655" y1="9.23511" x2="28.175" y2="28.0874" gradientUnits="userSpaceOnUse">
<stop stop-color="#929EFF"/>
<stop offset="1" stop-color="#6070E9"/>
</linearGradient>
</defs>
</svg>
