<svg width="36" height="36" viewBox="0 0 36 36" fill="none" xmlns="http://www.w3.org/2000/svg">
<path fill-rule="evenodd" clip-rule="evenodd" d="M18.2103 9.91717C19.7502 9.13959 20.282 8.27247 20.282 7.64436C20.282 7.01625 19.7502 6.14913 18.2103 5.37155C16.735 4.62661 14.6178 4.13286 12.2172 4.13286C9.81662 4.13286 7.69938 4.62661 6.22409 5.37155C4.68418 6.14913 4.15239 7.01625 4.15239 7.64436C4.15239 8.27247 4.68418 9.13959 6.22409 9.91717C7.69938 10.6621 9.81662 11.1559 12.2172 11.1559C14.6178 11.1559 16.735 10.6621 18.2103 9.91717ZM12.2172 12.2887C17.2969 12.2887 21.4148 10.2094 21.4148 7.64436C21.4148 5.07935 17.2969 3 12.2172 3C7.13746 3 3.01953 5.07935 3.01953 7.64436C3.01953 10.2094 7.13746 12.2887 12.2172 12.2887Z" fill="#444444"/>
<path fill-rule="evenodd" clip-rule="evenodd" d="M6.26017 16.4425C7.68443 17.226 9.74758 17.7327 12.2177 17.7327C14.6878 17.7327 16.751 17.226 18.1752 16.4425C19.6113 15.6526 20.3025 14.6458 20.3025 13.6548H21.4354C21.4354 15.2288 20.3409 16.5442 18.7212 17.4351C17.0898 18.3326 14.8273 18.8656 12.2177 18.8656C9.60808 18.8656 7.3456 18.3326 5.71415 17.4351C4.09453 16.5442 3 15.2288 3 13.6548H4.13286C4.13286 14.6458 4.8241 15.6526 6.26017 16.4425Z" fill="#444444"/>
<path fill-rule="evenodd" clip-rule="evenodd" d="M6.26017 22.0885C7.68443 22.872 9.74758 23.3787 12.2177 23.3787C14.6878 23.3787 16.751 22.872 18.1752 22.0885C19.6113 21.2986 20.3025 20.2918 20.3025 19.3008H21.4354C21.4354 20.8748 20.3409 22.1902 18.7212 23.0811C17.0898 23.9786 14.8273 24.5116 12.2177 24.5116C9.60808 24.5116 7.3456 23.9786 5.71415 23.0811C4.09453 22.1902 3 20.8748 3 19.3008H4.13286C4.13286 20.2918 4.8241 21.2986 6.26017 22.0885Z" fill="#444444"/>
<path fill-rule="evenodd" clip-rule="evenodd" d="M4.13286 7.73535V25.13C4.13286 26.041 4.86085 27.0081 6.35993 27.7811C7.8299 28.5391 9.90005 29.0247 12.2177 29.0247C14.5353 29.0247 16.6055 28.5391 18.0755 27.7811C19.5745 27.0081 20.3025 26.041 20.3025 25.13V7.73535H21.4354V25.13C21.4354 26.6829 20.2267 27.9464 18.5947 28.788C16.9335 29.6446 14.678 30.1576 12.2177 30.1576C9.75737 30.1576 7.50189 29.6446 5.84072 28.788C4.20866 27.9464 3 26.6829 3 25.13V7.73535H4.13286Z" fill="#444444"/>
<path d="M30.8861 20.849C30.8861 26.1802 26.5643 30.502 21.2331 30.502C15.9019 30.502 11.5801 26.1802 11.5801 20.849C11.5801 15.5178 15.9019 11.196 21.2331 11.196C26.5643 11.196 30.8861 15.5178 30.8861 20.849Z" fill="white"/>
<path fill-rule="evenodd" clip-rule="evenodd" d="M21.2331 29.3692C25.9386 29.3692 29.7532 25.5546 29.7532 20.849C29.7532 16.1435 25.9386 12.3289 21.2331 12.3289C16.5275 12.3289 12.7129 16.1435 12.7129 20.849C12.7129 25.5546 16.5275 29.3692 21.2331 29.3692ZM21.2331 30.502C26.5643 30.502 30.8861 26.1802 30.8861 20.849C30.8861 15.5178 26.5643 11.196 21.2331 11.196C15.9019 11.196 11.5801 15.5178 11.5801 20.849C11.5801 26.1802 15.9019 30.502 21.2331 30.502Z" fill="#444444"/>
<path d="M33.0003 23.109C33.0003 28.4402 28.6785 32.762 23.3473 32.762C18.0161 32.762 13.6943 28.4402 13.6943 23.109C13.6943 17.7778 18.0161 13.4561 23.3473 13.4561C28.6785 13.4561 33.0003 17.7778 33.0003 23.109Z" fill="url(#paint0_linear_5162_9106)" fill-opacity="0.8"/>
<path fill-rule="evenodd" clip-rule="evenodd" d="M21.3014 29.3269C26.007 29.3269 29.8216 25.5123 29.8216 20.8068C29.8216 16.1013 26.007 12.2867 21.3014 12.2867C16.5959 12.2867 12.7813 16.1013 12.7813 20.8068C12.7813 25.5123 16.5959 29.3269 21.3014 29.3269ZM21.3014 30.4598C26.6326 30.4598 30.9544 26.138 30.9544 20.8068C30.9544 15.4756 26.6326 11.1538 21.3014 11.1538C15.9702 11.1538 11.6484 15.4756 11.6484 20.8068C11.6484 26.138 15.9702 30.4598 21.3014 30.4598Z" fill="#444444"/>
<path d="M24.2146 16.922H22.5809C22.8762 17.294 23.0631 17.7487 23.1416 18.286H24.5329L24.2146 19.3746H23.1624C23.0793 20.1921 22.754 20.8075 22.1865 21.2209C21.6188 21.6342 20.8297 21.8408 19.8191 21.8408L23.2316 25.7815V25.8643H21.6603L17.9917 21.6135L17.9847 20.7524H19.7083C20.2852 20.7477 20.7536 20.6237 21.1135 20.3804C21.4734 20.1324 21.7019 19.7971 21.7987 19.3746H17.791L18.1094 18.286H21.785C21.5634 17.4135 20.8852 16.9587 19.7499 16.922H17.8048L18.1302 15.8335H24.5329L24.2146 16.922Z" fill="white"/>
<defs>
<linearGradient id="paint0_linear_5162_9106" x1="23.3473" y1="13.4561" x2="28.0107" y2="32.9516" gradientUnits="userSpaceOnUse">
<stop stop-color="#929EFF"/>
<stop offset="1" stop-color="#6070E9"/>
</linearGradient>
</defs>
</svg>
