<svg width="35" height="35" viewBox="0 0 35 35" fill="none" xmlns="http://www.w3.org/2000/svg">
<path d="M3.96094 29.6638V11.9341C3.96094 11.0946 4.64146 10.4141 5.48094 10.4141H31.5984C32.4379 10.4141 33.1184 11.0946 33.1184 11.9341V29.6638C33.1184 30.5033 32.4379 31.1838 31.5984 31.1838H5.48094C4.64146 31.1838 3.96094 30.5033 3.96094 29.6638Z" fill="url(#paint0_linear_8303_7474)" fill-opacity="0.8"/>
<path d="M1.50781 17.2441V26.4598C1.50781 27.2992 2.18834 27.9798 3.02781 27.9798H27.7573C28.5968 27.9798 29.2773 27.2993 29.2773 26.4598V17.2441" stroke="#444444" stroke-width="0.98" stroke-linecap="round"/>
<path d="M13.3752 17.5764L2.15917 14.8356C1.47871 14.6693 1 14.0595 1 13.359V9.26805C1 8.42857 1.68053 7.74805 2.52 7.74805H28.3256C29.1651 7.74805 29.8456 8.42857 29.8456 9.26805V13.3597C29.8456 14.0599 29.3673 14.6695 28.6873 14.8361L17.5003 17.5764M13.3752 17.5764V19.2982C13.3752 19.8504 13.8229 20.2982 14.3752 20.2982H16.5003C17.0526 20.2982 17.5003 19.8504 17.5003 19.2982V17.5764M13.3752 17.5764V17.1854C13.3752 16.6331 13.8229 16.1854 14.3752 16.1854H16.5003C17.0526 16.1854 17.5003 16.6331 17.5003 17.1854V17.5764" stroke="#444444" stroke-width="0.98" stroke-linejoin="round"/>
<path d="M17.5001 19.2984V17.5766V17.1855C17.5001 16.6333 17.0524 16.1855 16.5001 16.1855H14.375C13.8227 16.1855 13.375 16.6333 13.375 17.1855V17.5766V19.2984C13.375 19.8506 13.8227 20.2984 14.375 20.2984H16.5001C17.0524 20.2984 17.5001 19.8506 17.5001 19.2984Z" stroke="white" stroke-width="0.98" stroke-linejoin="round"/>
<path d="M10.5625 5.51002V5.51002C10.5625 4.12378 11.6863 3 13.0725 3H17.7673C19.1536 3 20.2774 4.12378 20.2774 5.51002V5.51002" stroke="#444444" stroke-width="0.98" stroke-linecap="round"/>
<defs>
<linearGradient id="paint0_linear_8303_7474" x1="18.5397" y1="10.4141" x2="26.1561" y2="40.9618" gradientUnits="userSpaceOnUse">
<stop stop-color="#929EFF"/>
<stop offset="1" stop-color="#6070E9"/>
</linearGradient>
</defs>
</svg>
