<svg width="40" height="40" viewBox="0 0 40 40" fill="none" xmlns="http://www.w3.org/2000/svg">
<path d="M28.0596 40C29.6063 40 30.859 38.568 30.859 36.8V3.2C30.859 1.432 29.6063 0 28.0596 0H24.7774H15.2456H11.9634C10.4168 0 9.16406 1.432 9.16406 3.2V36.8C9.16406 38.568 10.4168 40 11.9634 40H28.0596ZM23.8396 1.6L23.6927 2.168C23.5877 2.568 23.2588 2.848 22.8948 2.848H17.1352C16.7643 2.848 16.4354 2.568 16.3374 2.16L16.1834 1.6H23.8396ZM10.5637 36.8V3.2C10.5637 2.32 11.1936 1.6 11.9634 1.6H14.7208L14.9867 2.624C15.2666 3.704 16.1484 4.456 17.1282 4.456H22.8878C23.8746 4.456 24.7564 3.704 25.0293 2.624L25.3023 1.6H28.0596C28.8295 1.6 29.4593 2.32 29.4593 3.2V36.8C29.4593 37.68 28.8295 38.4 28.0596 38.4H11.9634C11.1936 38.4 10.5637 37.68 10.5637 36.8Z" fill="#F6F6F6"/>
<path d="M15.4862 36.6667H25.1805C25.7229 36.6667 26.1667 36.2917 26.1667 35.8333C26.1667 35.375 25.7229 35 25.1805 35H15.4862C14.9438 35 14.5 35.375 14.5 35.8333C14.5 36.2917 14.9339 36.6667 15.4862 36.6667Z" fill="#F6F6F6"/>
</svg>
