<svg width="37" height="36" viewBox="0 0 37 36" fill="none" xmlns="http://www.w3.org/2000/svg">
<rect x="16" y="28.6184" width="20.2582" height="6.67037" rx="0.545574" fill="url(#paint0_linear_47076_9122)"/>
<rect x="34.7795" y="29.3665" width="0.494101" height="5.43511" fill="#FED201"/>
<rect width="0.247051" height="5.43511" transform="matrix(-1 0 0 1 35.0225 29.3665)" fill="#FFE43D"/>
<rect x="32.802" y="29.3665" width="0.494101" height="5.43511" fill="#FED201"/>
<rect width="0.247051" height="5.43511" transform="matrix(-1 0 0 1 33.0492 29.3652)" fill="#FFE43D"/>
<rect x="30.8242" y="29.3665" width="0.494101" height="5.43511" fill="#FED201"/>
<rect width="0.247051" height="5.43511" transform="matrix(-1 0 0 1 31.0715 29.3652)" fill="#FFE43D"/>
<rect x="28.8528" y="29.3665" width="0.494101" height="5.43511" fill="#FED201"/>
<rect width="0.247051" height="5.43511" transform="matrix(-1 0 0 1 29.0958 29.3652)" fill="#FFE43D"/>
<rect x="26.8749" y="29.3662" width="0.494101" height="5.43511" fill="#FED201"/>
<rect width="0.247051" height="5.43511" transform="matrix(-1 0 0 1 27.118 29.3652)" fill="#FFE43D"/>
<rect x="24.8954" y="29.3665" width="0.494101" height="5.43511" fill="#FED201"/>
<rect width="0.247051" height="5.43511" transform="matrix(-1 0 0 1 25.1426 29.3652)" fill="#FFE43D"/>
<rect x="22.9219" y="29.3665" width="0.494101" height="5.43511" fill="#FED201"/>
<rect width="0.247051" height="5.43511" transform="matrix(-1 0 0 1 23.1648 29.3652)" fill="#FFE43D"/>
<rect x="20.9441" y="29.3665" width="0.494101" height="5.43511" fill="#FED201"/>
<rect width="0.247051" height="5.43511" transform="matrix(-1 0 0 1 21.1871 29.3652)" fill="#FFE43D"/>
<rect x="18.9666" y="29.3665" width="0.494101" height="5.43511" fill="#FED201"/>
<rect width="0.247051" height="5.43511" transform="matrix(-1 0 0 1 19.2137 29.3665)" fill="#FFE43D"/>
<rect x="16.9889" y="29.3674" width="0.494101" height="5.43511" fill="#FED201"/>
<rect width="0.247051" height="5.43511" transform="matrix(-1 0 0 1 17.2361 29.3665)" fill="#FFE43D"/>
<rect x="16" y="22" width="20.2582" height="6.67037" rx="0.545574" fill="url(#paint1_linear_47076_9122)"/>
<rect x="34.7753" y="22.7363" width="0.494101" height="5.43511" fill="#FED201"/>
<rect width="0.247051" height="5.43511" transform="matrix(-1 0 0 1 35.0204 22.7363)" fill="#FFE43D"/>
<rect x="32.7997" y="22.7363" width="0.494101" height="5.43511" fill="#FED201"/>
<rect width="0.247051" height="5.43511" transform="matrix(-1 0 0 1 33.0469 22.7363)" fill="#FFE43D"/>
<rect x="30.8241" y="22.7385" width="0.494101" height="5.43511" fill="#FED201"/>
<rect width="0.247051" height="5.43511" transform="matrix(-1 0 0 1 31.0714 22.7385)" fill="#FFE43D"/>
<rect x="28.8464" y="22.7363" width="0.494101" height="5.43511" fill="#FED201"/>
<rect width="0.247051" height="5.43511" transform="matrix(-1 0 0 1 29.0936 22.7363)" fill="#FFE43D"/>
<rect x="26.8708" y="22.7363" width="0.494101" height="5.43511" fill="#FED201"/>
<rect width="0.247051" height="5.43511" transform="matrix(-1 0 0 1 27.118 22.7363)" fill="#FFE43D"/>
<rect x="24.8932" y="22.7363" width="0.494101" height="5.43511" fill="#FED201"/>
<rect width="0.247051" height="5.43511" transform="matrix(-1 0 0 1 25.1404 22.7363)" fill="#FFE43D"/>
<rect x="22.9154" y="22.7363" width="0.494101" height="5.43511" fill="#FED201"/>
<rect width="0.247051" height="5.43511" transform="matrix(-1 0 0 1 23.1627 22.7363)" fill="#FFE43D"/>
<rect x="20.9398" y="22.7385" width="0.494101" height="5.43511" fill="#FED201"/>
<rect width="0.247051" height="5.43511" transform="matrix(-1 0 0 1 21.1871 22.7385)" fill="#FFE43D"/>
<rect x="18.9622" y="22.7363" width="0.494101" height="5.43511" fill="#FED201"/>
<rect width="0.247051" height="5.43511" transform="matrix(-1 0 0 1 19.2094 22.7363)" fill="#FFE43D"/>
<rect x="16.991" y="22.7363" width="0.494101" height="5.43511" fill="#FED201"/>
<rect width="0.247051" height="5.43511" transform="matrix(-1 0 0 1 17.236 22.7363)" fill="#FFE43D"/>
<path fill-rule="evenodd" clip-rule="evenodd" d="M23 29L35.5 29C35.7761 29 36 29.2239 36 29.5V29.5L23 29.5L23 29Z" fill="#F0AA11"/>
<circle cx="12.5" cy="23.5" r="12.5" fill="url(#paint2_linear_47076_9122)"/>
<circle cx="12.4993" cy="23.5002" r="10.1316" fill="#FFD732"/>
<circle cx="12.4993" cy="23.5002" r="9.84101" stroke="white" stroke-opacity="0.7" stroke-width="0.581145"/>
<path d="M15.8265 20.1478H14.0905C14.4044 20.54 14.603 21.0195 14.6864 21.5861H16.165L15.8265 22.7339H14.7085C14.6202 23.5959 14.2744 24.2449 13.6713 24.6808C13.068 25.1166 12.2294 25.3345 11.1554 25.3345L14.7821 29.4897V29.5769H13.1122L9.21338 25.0948L9.206 24.1868H11.0377C11.6506 24.1819 12.1485 24.0512 12.531 23.7945C12.9136 23.533 13.1563 23.1794 13.2593 22.7339H9L9.33832 21.5861H13.2445C13.0091 20.666 12.2882 20.1865 11.0819 20.1478H9.01476L9.36046 19H16.165L15.8265 20.1478Z" fill="#C57A0B"/>
<path d="M17 9.79294H21.5484V11.8397H23.9439V9.79294H25.5207V7.79164H23.9439V2H21.0936L17 7.36712V9.79294ZM21.5484 7.79164H19.0771L21.5484 4.54711V7.79164Z" fill="#3F6BA7"/>
<path d="M34.9727 2.15897H32.4467L30.5351 5.29941L28.6235 2.15897H26.0293L29.156 6.99252L26.0293 11.8397H28.5689L30.4668 8.69928L32.3784 11.8397H35L31.8596 7.01983L34.9727 2.15897Z" fill="#3F6BA7"/>
<defs>
<linearGradient id="paint0_linear_47076_9122" x1="16" y1="31.336" x2="36.2582" y2="31.336" gradientUnits="userSpaceOnUse">
<stop stop-color="#FEAF0D"/>
<stop offset="0.505208" stop-color="#FFCC35"/>
<stop offset="1" stop-color="#FEFD89"/>
</linearGradient>
<linearGradient id="paint1_linear_47076_9122" x1="16" y1="24.7176" x2="36.2582" y2="24.7176" gradientUnits="userSpaceOnUse">
<stop stop-color="#FEAF0D"/>
<stop offset="0.505208" stop-color="#FFCC35"/>
<stop offset="1" stop-color="#FEFD89"/>
</linearGradient>
<linearGradient id="paint2_linear_47076_9122" x1="20.1316" y1="13.7632" x2="3.94737" y2="32.4474" gradientUnits="userSpaceOnUse">
<stop stop-color="#FFFE8F"/>
<stop offset="0.479167" stop-color="#FFBA1E"/>
<stop offset="1" stop-color="#FFAB01"/>
</linearGradient>
</defs>
</svg>
