<svg width="35" height="35" viewBox="0 0 35 35" fill="none" xmlns="http://www.w3.org/2000/svg">
<path d="M13.4964 5.34332L6.33596 12.5689C6.06569 12.8416 5.91406 13.21 5.91406 13.594V23.2486C5.91406 23.6303 6.06392 23.9967 6.33137 24.269L13.4957 31.5636C13.7695 31.8424 14.1439 31.9995 14.5347 31.9995H24.2273C24.6227 31.9995 25.0012 31.8387 25.2756 31.5541L32.3022 24.2673C32.5639 23.9958 32.7102 23.6334 32.7102 23.2564V13.5862C32.7102 13.2069 32.5622 12.8425 32.2976 12.5706L25.2749 5.35285C25.0008 5.07107 24.6243 4.91211 24.2312 4.91211H14.5309C14.1423 4.91211 13.7699 5.06736 13.4964 5.34332Z" fill="url(#paint0_linear_6063_7292)" fill-opacity="0.8"/>
<path d="M16.4062 7.75391V18.1665" stroke="white" stroke-width="0.905825" stroke-linecap="round" stroke-linejoin="round"/>
<circle cx="16.4757" cy="22.753" r="0.65534" fill="white"/>
<path d="M10.5824 2.43121L3.42189 9.65679C3.15163 9.92952 3 10.2979 3 10.6819V20.3365C3 20.7182 3.14985 21.0846 3.41731 21.3569L10.5816 28.6515C10.8555 28.9303 11.2298 29.0874 11.6206 29.0874H21.3132C21.7087 29.0874 22.0871 28.9266 22.3616 28.6419L29.3881 21.3551C29.6499 21.0837 29.7961 20.7213 29.7961 20.3443V10.6741C29.7961 10.2948 29.6481 9.93041 29.3836 9.65853L22.3609 2.44075C22.0867 2.15896 21.7103 2 21.3171 2H11.6168C11.2283 2 10.8559 2.15525 10.5824 2.43121Z" stroke="black" stroke-width="0.905825" stroke-linejoin="round"/>
<defs>
<linearGradient id="paint0_linear_6063_7292" x1="19.3121" y1="4.91211" x2="25.9184" y2="32.2332" gradientUnits="userSpaceOnUse">
<stop stop-color="#929EFF"/>
<stop offset="1" stop-color="#6070E9"/>
</linearGradient>
</defs>
</svg>
