<svg width="220" height="220" viewBox="0 0 220 220" fill="none" xmlns="http://www.w3.org/2000/svg">
<g clip-path="url(#clip0_2426_152)">
<path d="M110 220C170.751 220 220 170.751 220 110C220 49.2487 170.751 0 110 0C49.2487 0 0 49.2487 0 110C0 170.751 49.2487 220 110 220Z" fill="#FF0000" fill-opacity="0.4"/>
<path d="M110.003 198.002C158.604 198.002 198.003 158.603 198.003 110.002C198.003 61.4009 158.604 22.002 110.003 22.002C61.4021 22.002 22.0032 61.4009 22.0032 110.002C22.0032 158.603 61.4021 198.002 110.003 198.002Z" fill="#FF0000"/>
<path d="M150 107.5L93.75 139.976L93.75 75.024L150 107.5Z" fill="white"/>
</g>
<defs>
<clipPath id="clip0_2426_152">
<rect width="220" height="220" fill="white"/>
</clipPath>
</defs>
</svg>
