<svg width="150" height="87" viewBox="0 0 150 87" fill="none" xmlns="http://www.w3.org/2000/svg">
<path d="M8.82542 86.9606C8.82542 86.9606 -4.40718 70.134 9.01487 49.2214C21.4606 29.8285 40.7255 39.1329 52.872 21.3309C83.6451 -23.7706 149.335 10.9033 139.479 49.2333C134.71 67.7832 153.995 68.4587 144.168 87L8.82542 86.9606Z" fill="#F8F8FF"/>
<path d="M52.2585 26.9911H48.2629C48.0131 25.2043 47.2492 23.6444 46.0006 22.4674L51.5975 22.4958L52.3613 20H33.7639L33 22.4249H36.0261L39.1551 22.4391C42.6807 22.6092 44.8401 24.2826 45.3689 26.9911H33.7639L33 29.4869H45.413C44.9429 32.5499 42.3575 34.1239 38.259 34.1239H33.2057L33.235 35.9533L44.7813 49.042H48.2041V48.8293L37.3335 36.5063H38.3912C44.6932 36.5063 47.8368 33.5284 48.3069 29.4869H51.4799L52.2585 26.9911Z" fill="#6C7BF0"/>
<path d="M82.4274 86.9996C97.294 86.9996 106 74.7996 106 53.5919C106 32.5421 97.1683 20.3105 82.4274 20.3105C67.6552 20.3105 58.8547 32.5105 58.8232 53.5919C58.8232 74.768 67.5294 86.968 82.4274 86.9996ZM82.4274 78.5608C73.7212 78.5608 68.4724 69.7743 68.4724 53.5919C68.5038 37.4727 73.7527 28.5914 82.4274 28.5914C91.0708 28.5914 96.3511 37.4727 96.3511 53.5919C96.3511 69.7743 91.1022 78.5608 82.4274 78.5608Z" fill="#6C7BF0"/>
<path d="M36.7353 60.4437L34.535 60.2397L33.661 58.2101C33.5998 58.068 33.3983 58.068 33.3371 58.2101L32.4631 60.2397L30.2628 60.4437C30.1087 60.458 30.0465 60.6496 30.1627 60.7517L31.8229 62.2102L31.337 64.3659C31.303 64.5168 31.466 64.6352 31.599 64.5562L33.4991 63.428L35.3991 64.5562C35.5321 64.6352 35.6951 64.5168 35.6611 64.3659L35.1753 62.2102L36.8354 60.7518C36.9517 60.6497 36.8894 60.458 36.7353 60.4437Z" fill="#CECEFE"/>
<path fill-rule="evenodd" clip-rule="evenodd" d="M31.5846 62.8218C31.5838 62.8118 31.5845 62.8016 31.5868 62.7913L31.7097 62.246L30.0953 60.8278C30.0102 60.753 29.9791 60.6397 30.0141 60.5321C30.0491 60.4244 30.1409 60.3511 30.2536 60.3406L32.3932 60.1422L33.2432 58.1686C33.288 58.0646 33.3861 58 33.4993 58C33.6125 58 33.7106 58.0646 33.7554 58.1685L33.9928 58.7198C33.9989 58.734 34.0015 58.7487 34.0011 58.7632L34.6067 60.1552L36.7464 60.3536C36.8591 60.3641 36.9508 60.4375 36.9858 60.5451C37.0208 60.6528 36.9897 60.7661 36.9047 60.8408L35.2902 62.259L35.7627 64.3553C35.7876 64.4657 35.7461 64.5757 35.6546 64.6422C35.6052 64.6781 35.5483 64.6962 35.4911 64.6962C35.4422 64.6962 35.3932 64.683 35.3483 64.6564L33.5006 63.5592L31.6529 64.6564C31.5556 64.7142 31.4382 64.7087 31.3467 64.6422C31.2551 64.5757 31.2137 64.4657 31.2386 64.3553L31.5846 62.8218ZM31.772 62.8709L31.4386 64.4004C31.4289 64.4431 31.4554 64.4677 31.4672 64.4763C31.479 64.4849 31.5105 64.5025 31.5483 64.4801L33.4483 63.3519C33.4806 63.3327 33.5207 63.3327 33.553 63.3519L35.453 64.4801C35.4908 64.5025 35.5223 64.4849 35.5341 64.4763C35.5459 64.4677 35.5724 64.4431 35.5627 64.4004L35.0769 62.2447C35.0686 62.2081 35.081 62.1699 35.1092 62.1451L36.7694 60.6867C36.8023 60.6578 36.7954 60.6223 36.7909 60.6084C36.7863 60.5946 36.7711 60.5618 36.7275 60.5578L34.5271 60.3537C34.4898 60.3502 34.4573 60.3266 34.4425 60.2922L33.8399 58.8443C33.8248 58.8338 33.8123 58.819 33.8045 58.8009L33.5671 58.2496C33.5497 58.2094 33.5139 58.205 33.4993 58.205C33.4847 58.205 33.4488 58.2094 33.4315 58.2496L32.5575 60.2792C32.5427 60.3136 32.5102 60.3372 32.4728 60.3407L30.2725 60.5448C30.2288 60.5488 30.2136 60.5816 30.2091 60.5955C30.2046 60.6094 30.1977 60.6448 30.2306 60.6737L31.8907 62.1321C31.9189 62.1569 31.9313 62.1951 31.9231 62.2317L31.7868 62.8364C31.7839 62.8491 31.7788 62.8607 31.772 62.8709Z" fill="#CECEFE"/>
<path d="M95.8574 7.04417L93.9142 5.85291L93.9489 3.67441C93.9514 3.52188 93.7657 3.42915 93.6505 3.52535L92.0049 4.89929L89.8929 4.06519C89.745 4.00678 89.6083 4.14584 89.6731 4.28869L90.5993 6.32914L89.2592 7.9921C89.1654 8.10853 89.2666 8.28722 89.4219 8.27931L91.6398 8.16643L92.9237 10.0283C93.0136 10.1587 93.2128 10.13 93.244 9.98227L93.6886 7.87207L95.8221 7.3598C95.9715 7.32395 95.9935 7.12759 95.8574 7.04417Z" fill="#CECEFE"/>
<path fill-rule="evenodd" clip-rule="evenodd" d="M90.2293 6.70869C90.2208 6.70753 90.2125 6.71093 90.2044 6.72098L89.1514 8.03631C89.0811 8.12411 89.0711 8.24077 89.1251 8.34078C89.1792 8.44077 89.2829 8.49753 89.3959 8.48882L91.5413 8.32401L92.7378 10.1224C92.7669 10.166 92.8055 10.1995 92.8497 10.2211C92.9014 10.2464 92.9607 10.2553 93.0209 10.245C93.1325 10.226 93.2175 10.146 93.2427 10.0362L93.7219 7.95182L95.7951 7.39664C95.9043 7.36739 95.9814 7.27978 95.9963 7.16801C96.0112 7.05623 95.96 6.95004 95.8626 6.89086L94.0134 5.76747L94.0665 4.28596C94.0845 4.26857 94.0961 4.24448 94.0971 4.21738L94.1208 3.61887C94.1252 3.506 94.0644 3.40478 93.9619 3.35469C93.8595 3.30463 93.7427 3.31903 93.6572 3.3923L92.034 4.78313L90.0116 4.0142C89.905 3.97369 89.7902 3.99877 89.712 4.07968C89.6338 4.16056 89.6129 4.27574 89.6575 4.38025L90.5051 6.36408L90.2293 6.70869ZM90.2611 6.96247L89.3128 8.16505C89.2855 8.19905 89.2988 8.23275 89.3058 8.24566C89.3128 8.25855 89.3337 8.28824 89.3775 8.28484L91.5836 8.11537C91.621 8.11251 91.6574 8.13027 91.6783 8.16164L92.9088 10.0109C92.9332 10.0477 92.9693 10.0459 92.9837 10.0434C92.9981 10.0409 93.0326 10.0306 93.0424 9.98809L93.5351 7.84472C93.5435 7.80833 93.5712 7.77964 93.6074 7.76995L95.7394 7.19899C95.7817 7.18767 95.7907 7.15289 95.7926 7.13848C95.7945 7.12405 95.7949 7.08803 95.7572 7.06511L93.8556 5.90991C93.8233 5.89031 93.8041 5.85483 93.8056 5.81743L93.8931 4.13252C93.8934 4.12552 93.894 4.12087 93.8951 4.11811L93.9153 3.60816C93.917 3.56443 93.8864 3.54469 93.8732 3.53822C93.86 3.53176 93.8257 3.51981 93.7926 3.54819L92.1234 4.97842C92.0951 5.0027 92.0554 5.00945 92.0201 4.99603L89.9404 4.20532C89.8991 4.18963 89.8712 4.21222 89.8611 4.22266C89.851 4.23309 89.8293 4.26174 89.8466 4.30221L90.7182 6.34223C90.733 6.37684 90.7277 6.41653 90.7044 6.44566L90.3194 6.92668C90.3042 6.94574 90.2834 6.95781 90.2611 6.96247Z" fill="#CECEFE"/>
<path d="M134.735 43.4437L132.535 43.2397L131.661 41.2101C131.6 41.068 131.398 41.068 131.337 41.2101L130.463 43.2397L128.263 43.4437C128.109 43.458 128.046 43.6496 128.163 43.7517L129.823 45.2102L129.337 47.3659C129.303 47.5168 129.466 47.6352 129.599 47.5562L131.499 46.428L133.399 47.5562C133.532 47.6352 133.695 47.5168 133.661 47.3659L133.175 45.2102L134.835 43.7518C134.952 43.6497 134.889 43.458 134.735 43.4437Z" fill="#CECEFE"/>
<path fill-rule="evenodd" clip-rule="evenodd" d="M129.585 45.8218C129.584 45.8118 129.584 45.8016 129.587 45.7913L129.71 45.246L128.095 43.8278C128.01 43.753 127.979 43.6397 128.014 43.5321C128.049 43.4244 128.141 43.3511 128.254 43.3406L130.393 43.1422L131.243 41.1686C131.288 41.0646 131.386 41 131.499 41C131.613 41 131.711 41.0646 131.755 41.1685L131.993 41.7198C131.999 41.734 132.002 41.7487 132.001 41.7632L132.607 43.1552L134.746 43.3536C134.859 43.3641 134.951 43.4375 134.986 43.5451C135.021 43.6528 134.99 43.7661 134.905 43.8408L133.29 45.259L133.763 47.3553C133.788 47.4657 133.746 47.5757 133.655 47.6422C133.605 47.6781 133.548 47.6962 133.491 47.6962C133.442 47.6962 133.393 47.683 133.348 47.6564L131.501 46.5592L129.653 47.6564C129.556 47.7142 129.438 47.7087 129.347 47.6422C129.255 47.5757 129.214 47.4657 129.239 47.3553L129.585 45.8218ZM129.772 45.8709L129.439 47.4004C129.429 47.4431 129.455 47.4677 129.467 47.4763C129.479 47.4849 129.511 47.5025 129.548 47.4801L131.448 46.3519C131.481 46.3327 131.521 46.3327 131.553 46.3519L133.453 47.4801C133.491 47.5025 133.522 47.4849 133.534 47.4763C133.546 47.4677 133.572 47.4431 133.563 47.4004L133.077 45.2447C133.069 45.2081 133.081 45.1699 133.109 45.1451L134.769 43.6867C134.802 43.6578 134.795 43.6223 134.791 43.6084C134.786 43.5946 134.771 43.5618 134.727 43.5578L132.527 43.3537C132.49 43.3502 132.457 43.3266 132.442 43.2922L131.84 41.8443C131.825 41.8338 131.812 41.819 131.804 41.8009L131.567 41.2496C131.55 41.2094 131.514 41.205 131.499 41.205C131.485 41.205 131.449 41.2094 131.432 41.2496L130.557 43.2792C130.543 43.3136 130.51 43.3372 130.473 43.3407L128.273 43.5448C128.229 43.5488 128.214 43.5816 128.209 43.5955C128.205 43.6094 128.198 43.6448 128.231 43.6737L129.891 45.1321C129.919 45.1569 129.931 45.1951 129.923 45.2317L129.787 45.8364C129.784 45.8491 129.779 45.8607 129.772 45.8709Z" fill="#CECEFE"/>
</svg>
