<svg width="150" height="87" viewBox="0 0 150 87" fill="none" xmlns="http://www.w3.org/2000/svg">
<g clip-path="url(#clip0_683_6166)">
<path d="M5.80916 86.9606C5.80916 86.9606 -7.38651 70.134 5.99809 49.2214C18.4091 29.8285 37.6202 39.1329 49.7328 21.3309C80.42 -23.7706 145.927 10.9033 136.098 49.2333C131.342 67.7832 150.573 68.4587 140.774 87L5.80916 86.9606Z" fill="#F8F8FF"/>
<path d="M16.6885 68.4437L14.4943 68.2397L13.6228 66.2101C13.5617 66.068 13.3608 66.068 13.2998 66.2101L12.4282 68.2397L10.234 68.4437C10.0804 68.458 10.0183 68.6496 10.1342 68.7517L11.7898 70.2102L11.3052 72.3659C11.2713 72.5168 11.4339 72.6352 11.5665 72.5562L13.4613 71.428L15.356 72.5562C15.4886 72.6352 15.6512 72.5168 15.6173 72.3659L15.1328 70.2102L16.7883 68.7518C16.9042 68.6497 16.8421 68.458 16.6885 68.4437Z" fill="#CECEFE"/>
<path fill-rule="evenodd" clip-rule="evenodd" d="M11.5528 70.8218C11.552 70.8118 11.5527 70.8016 11.555 70.7913L11.6776 70.246L10.0677 68.8278C9.98287 68.753 9.95186 68.6397 9.98674 68.5321C10.0216 68.4244 10.1131 68.3511 10.2255 68.3406L12.3592 68.1422L13.2068 66.1686C13.2515 66.0646 13.3493 66 13.4622 66C13.5751 66 13.6729 66.0646 13.7176 66.1685L13.9543 66.7198C13.9604 66.734 13.963 66.7487 13.9626 66.7632L14.5665 68.1552L16.7002 68.3536C16.8126 68.3641 16.9041 68.4375 16.939 68.5451C16.9738 68.6528 16.9429 68.7661 16.858 68.8408L15.2481 70.259L15.7193 72.3553C15.7441 72.4657 15.7028 72.5757 15.6114 72.6422C15.5622 72.6781 15.5054 72.6962 15.4484 72.6962C15.3997 72.6962 15.3508 72.683 15.306 72.6564L13.4635 71.5592L11.6209 72.6564C11.5239 72.7142 11.4069 72.7087 11.3156 72.6422C11.2243 72.5757 11.1829 72.4657 11.2078 72.3553L11.5528 70.8218ZM11.7397 70.8709L11.4072 72.4004C11.3976 72.4431 11.424 72.4677 11.4358 72.4763C11.4476 72.4849 11.479 72.5025 11.5166 72.4801L13.4113 71.3519C13.4435 71.3327 13.4836 71.3327 13.5157 71.3519L15.4105 72.4801C15.4481 72.5025 15.4795 72.4849 15.4913 72.4763C15.5031 72.4677 15.5295 72.4431 15.5199 72.4004L15.0354 70.2447C15.0271 70.2081 15.0395 70.1699 15.0676 70.1451L16.7231 68.6867C16.756 68.6578 16.749 68.6223 16.7446 68.6084C16.74 68.5946 16.7249 68.5618 16.6813 68.5578L14.4872 68.3537C14.4499 68.3502 14.4175 68.3266 14.4027 68.2922L13.8018 66.8443C13.7867 66.8338 13.7743 66.819 13.7665 66.8009L13.5298 66.2496C13.5125 66.2094 13.4767 66.205 13.4622 66.205C13.4476 66.205 13.4119 66.2094 13.3946 66.2496L12.523 68.2792C12.5082 68.3136 12.4758 68.3372 12.4385 68.3407L10.2444 68.5448C10.2009 68.5488 10.1857 68.5816 10.1812 68.5955C10.1767 68.6094 10.1698 68.6448 10.2026 68.6737L11.8581 70.1321C11.8862 70.1569 11.8986 70.1951 11.8904 70.2317L11.7545 70.8364C11.7516 70.8491 11.7465 70.8607 11.7397 70.8709Z" fill="#CECEFE"/>
<path d="M81.5428 10.2875L79.7335 8.95666L79.9868 6.78196C80.0045 6.6297 79.8295 6.52361 79.7055 6.61144L77.9339 7.86577L75.921 6.87966C75.7801 6.81061 75.6304 6.93972 75.6805 7.08717L76.3949 9.19328L74.8975 10.7585C74.7927 10.8681 74.8752 11.054 75.0301 11.0573L77.2432 11.1046L78.3307 13.0581C78.4069 13.1948 78.6076 13.1806 78.6533 13.0352L79.3066 10.9583L81.4761 10.6004C81.628 10.5754 81.6695 10.3807 81.5428 10.2875Z" fill="#CECEFE"/>
<path fill-rule="evenodd" clip-rule="evenodd" d="M75.981 9.52778C75.9778 9.52953 75.9745 9.53212 75.9711 9.53565L74.806 10.7613C74.7283 10.8431 74.7077 10.9586 74.7522 11.0628C74.7967 11.1669 74.8946 11.2321 75.0075 11.2326L77.1522 11.2441L78.1762 13.1358C78.2011 13.1817 78.2364 13.2183 78.2783 13.2435C78.3274 13.2729 78.3854 13.2867 78.4461 13.2814C78.5586 13.2716 78.6502 13.1987 78.6853 13.0912L79.3507 11.0516L81.4593 10.6677C81.5704 10.6475 81.6549 10.5665 81.6799 10.4562C81.7048 10.3459 81.6636 10.2358 81.5723 10.1688L79.8389 8.89677L80.0286 7.40762C80.0422 7.39271 80.0516 7.37358 80.0544 7.35196L80.1324 6.75721C80.1471 6.64504 80.0959 6.53915 79.9988 6.48082C79.9017 6.42252 79.7845 6.42732 79.693 6.49336L77.9556 7.74708L76.0187 6.81489C75.9166 6.76578 75.8004 6.78139 75.7154 6.85564C75.6304 6.92987 75.5992 7.04299 75.634 7.15084L76.2944 9.19805L75.981 9.52778ZM76.0148 9.77102L74.9545 10.9029C74.9244 10.9346 74.9345 10.9693 74.9402 10.9827C74.946 10.9962 74.964 11.0275 75.0079 11.0277L77.2132 11.0395C77.2506 11.0397 77.2851 11.0604 77.303 11.0934L78.3561 13.0387C78.377 13.0773 78.413 13.0785 78.4275 13.0772C78.442 13.076 78.4772 13.0685 78.4908 13.0269L79.1751 10.9294C79.1867 10.8938 79.2168 10.8675 79.2536 10.8608L81.4219 10.466C81.465 10.4582 81.4771 10.4243 81.4803 10.4101C81.4835 10.3958 81.4872 10.3599 81.4518 10.334L79.6694 9.02592C79.6391 9.00373 79.6233 8.96676 79.6282 8.92958L79.8533 7.36129C79.8506 7.34954 79.8498 7.33711 79.8515 7.32445L79.9294 6.7297C79.9351 6.68625 79.9066 6.66406 79.8941 6.65653C79.8815 6.64901 79.8486 6.63429 79.8131 6.65987L78.0265 7.94909C77.9962 7.97098 77.9562 7.97447 77.9224 7.95819L75.9306 6.9996C75.8911 6.98058 75.8613 7.00081 75.8503 7.01039C75.8394 7.01996 75.8153 7.04676 75.8288 7.08853L76.5079 9.19372C76.5194 9.22943 76.5106 9.26857 76.4848 9.2957L76.059 9.74375C76.0464 9.75697 76.0311 9.76607 76.0148 9.77102Z" fill="#CECEFE"/>
<path d="M148.575 48.9653L146.766 47.6344L147.019 45.4597C147.037 45.3074 146.862 45.2013 146.738 45.2892L144.966 46.5435L142.953 45.5574C142.812 45.4883 142.663 45.6175 142.713 45.7649L143.427 47.871L141.93 49.4362C141.825 49.5458 141.907 49.7317 142.062 49.735L144.275 49.7823L145.363 51.7358C145.439 51.8726 145.64 51.8584 145.686 51.7129L146.339 49.6361L148.508 49.2781C148.66 49.2531 148.702 49.0584 148.575 48.9653Z" fill="#CECEFE"/>
<path fill-rule="evenodd" clip-rule="evenodd" d="M143.012 48.2055C143.009 48.2073 143.006 48.2099 143.002 48.2134L141.837 49.439C141.76 49.5208 141.739 49.6364 141.783 49.7405C141.828 49.8447 141.926 49.9098 142.039 49.9104L144.183 49.9218L145.208 51.8136C145.232 51.8595 145.268 51.8961 145.31 51.9212C145.359 51.9507 145.417 51.9645 145.477 51.9591C145.59 51.9493 145.681 51.8764 145.717 51.769L146.382 49.7293L148.491 49.3455C148.602 49.3253 148.686 49.2442 148.711 49.134C148.736 49.0237 148.695 48.9136 148.604 48.8465L146.87 47.5745L147.06 46.0853C147.073 46.0704 147.083 46.0513 147.086 46.0297L147.164 45.4349C147.178 45.3228 147.127 45.2169 147.03 45.1586C146.933 45.1003 146.816 45.1051 146.724 45.1711L144.987 46.4248L143.05 45.4926C142.948 45.4435 142.832 45.4591 142.747 45.5334C142.662 45.6076 142.63 45.7207 142.665 45.8286L143.326 47.8758L143.012 48.2055ZM143.046 48.4488L141.986 49.5806C141.956 49.6123 141.966 49.647 141.972 49.6605C141.977 49.6739 141.995 49.7052 142.039 49.7054L144.244 49.7172C144.282 49.7174 144.316 49.7381 144.334 49.7711L145.387 51.7164C145.408 51.7551 145.444 51.7562 145.459 51.755C145.473 51.7537 145.509 51.7462 145.522 51.7046L146.206 49.6072C146.218 49.5716 146.248 49.5452 146.285 49.5385L148.453 49.1438C148.496 49.136 148.508 49.102 148.512 49.0878C148.515 49.0736 148.518 49.0377 148.483 49.0117L146.701 47.7037C146.67 47.6815 146.655 47.6445 146.659 47.6073L146.885 46.0391C146.882 46.0273 146.881 46.0149 146.883 46.0022L146.961 45.4074C146.966 45.364 146.938 45.3418 146.925 45.3343C146.913 45.3268 146.88 45.312 146.844 45.3376L145.058 46.6268C145.027 46.6487 144.987 46.6522 144.954 46.6359L142.962 45.6773C142.922 45.6583 142.893 45.6786 142.882 45.6881C142.871 45.6977 142.847 45.7245 142.86 45.7663L143.539 47.8715C143.551 47.9072 143.542 47.9463 143.516 47.9734L143.09 48.4215C143.078 48.4347 143.062 48.4438 143.046 48.4488Z" fill="#CECEFE"/>
<path d="M22.1969 26.9911H18.2124C17.9634 25.2043 17.2017 23.6444 15.9565 22.4674L21.5377 22.4958L22.2995 20H3.75393L2.99219 22.4249H6.00987L9.13009 22.4391C12.6458 22.6092 14.7992 24.2826 15.3266 26.9911H3.75393L2.99219 29.4869H15.3705C14.9018 32.5499 12.3236 34.1239 8.23651 34.1239H3.19727L3.22657 35.9533L14.7406 49.042H18.1538V48.8293L7.31362 36.5063H8.36835C14.6527 36.5063 17.7876 33.5284 18.2564 29.4869H21.4206L22.1969 26.9911Z" fill="#6C7BF0"/>
<path d="M30.9435 85.925H73.1934V77.5494H44.2955V77.0753L57.052 63.611C68.8054 51.6323 72.1591 45.9116 72.1591 38.6738C72.1591 28.2753 63.7593 20.3105 51.661 20.3105C39.6568 20.3105 30.8809 28.1489 30.8809 39.9696H40.1269C40.0956 33.0162 44.5462 28.4649 51.473 28.4649C57.9922 28.4649 62.9444 32.5105 62.9444 38.9582C62.9444 44.6789 59.5594 48.7877 52.664 56.152L30.9435 78.8452V85.925Z" fill="#6C7BF0"/>
<path d="M107.128 86.9996C121.953 86.9996 130.635 74.7996 130.635 53.5919C130.635 32.5421 121.828 20.3105 107.128 20.3105C92.3972 20.3105 83.6213 32.5105 83.59 53.5919C83.59 74.768 92.2719 86.968 107.128 86.9996ZM107.128 78.5608C98.4464 78.5608 93.2122 69.7742 93.2122 53.5919C93.2435 37.4727 98.4777 28.5914 107.128 28.5914C115.748 28.5914 121.013 37.4727 121.013 53.5919C121.013 69.7742 115.779 78.5608 107.128 78.5608Z" fill="#6C7BF0"/>
</g>
<defs>
<clipPath id="clip0_683_6166">
<rect width="150" height="87" fill="white"/>
</clipPath>
</defs>
</svg>
