<svg width="35" height="35" viewBox="0 0 35 35" fill="none" xmlns="http://www.w3.org/2000/svg">
<path d="M30.1264 32.0001H6.55934C6.13122 32.0001 5.88578 31.3915 6.12118 31.0339C7.37743 29.1255 7.68474 25.9749 7.66382 24.4061C6.46082 15.6843 12.6763 12.2006 15.9345 11.549L13.3694 4.40833C13.2638 4.1144 13.4816 3.80469 13.7939 3.80469H22.0599C22.3723 3.80469 22.5901 4.1144 22.4845 4.40833L19.9194 11.549C28.9419 13.128 28.7916 20.4964 28.4908 24.4061C28.2895 27.0224 29.5473 29.7159 30.5214 31.2456C30.7229 31.562 30.5016 32.0001 30.1264 32.0001Z" fill="url(#paint0_linear_6049_7331)" fill-opacity="0.8"/>
<path d="M25.7031 10.7236C26.4373 10.7378 28.0524 10.2462 28.6397 8.16602C28.798 9.07537 29.5984 10.86 31.5331 10.7236C30.4966 10.752 28.4669 11.363 28.6397 13.5795C28.5533 12.6275 27.8451 10.7236 25.7031 10.7236Z" stroke="#444444" stroke-width="0.935335" stroke-linejoin="round"/>
<path d="M17.6616 10.0451C26.6841 11.6241 26.5337 18.9924 26.233 22.9022C26.0317 25.5185 27.2895 28.212 28.2636 29.7417C28.4651 30.0581 28.2437 30.4962 27.8686 30.4962H4.30153C3.87341 30.4962 3.62797 29.8876 3.86337 29.53C5.11962 27.6216 5.42692 24.471 5.40601 22.9022C4.203 14.1804 10.4185 10.6967 13.6766 10.0451M17.6616 10.0451L20.4435 2.30078H10.8947L13.6766 10.0451M17.6616 10.0451C16.6992 9.839 14.604 9.95923 13.6766 10.0451" stroke="#444444" stroke-width="0.935335" stroke-linecap="round" stroke-linejoin="round"/>
<path d="M12.4766 16.3594H15.9352M19.3938 16.3594H15.9352M15.9352 16.3594C16.3613 16.5849 17.2134 17.427 17.2134 18.9909C17.2134 20.5548 14.8074 21.0962 13.6044 21.1714L17.2134 25.6826M12.4766 18.7654H19.3938" stroke="white" stroke-width="0.935335" stroke-linecap="round" stroke-linejoin="round"/>
<path d="M22.1875 4.55756C22.9216 4.57177 24.5367 4.08015 25.1241 2C25.2824 2.90936 26.0828 4.69397 28.0174 4.55756C26.981 4.58598 24.9513 5.19696 25.1241 7.41351C25.0377 6.46153 24.3295 4.55756 22.1875 4.55756Z" stroke="#444444" stroke-width="0.935335" stroke-linejoin="round"/>
<defs>
<linearGradient id="paint0_linear_6049_7331" x1="18.1525" y1="3.80469" x2="25.5206" y2="31.9792" gradientUnits="userSpaceOnUse">
<stop stop-color="#929EFF"/>
<stop offset="1" stop-color="#6070E9"/>
</linearGradient>
</defs>
</svg>
