<svg width="1440" height="94" viewBox="0 0 1440 94" fill="none" xmlns="http://www.w3.org/2000/svg">
<g clip-path="url(#clip0_17503_13398)">
<rect width="1440" height="94" fill="white"/>
<path d="M-151 80.1967H116.5C116.5 80.1967 188.98 79.4855 229.5 68.7563C268.327 58.4753 314 29.4125 314 29.4125C314 29.4125 330.5 16.1845 358.5 16.1846C386.5 16.1847 403 27.4593 403 27.4593C403 27.4593 461.897 54.1708 506 64.5708C555.5 76.2433 665.5 80.1967 665.5 80.1967H1300C1300 80.1967 1346.3 81.2591 1382.5 70.3172C1406.5 63.0623 1439 37.6702 1439 37.6702" stroke="#EBEBEB"/>
<path d="M-111 80.1961H156.5C156.5 80.1961 228.98 79.4849 269.5 68.7557C308.327 58.4746 354 29.4119 354 29.4119C354 29.4119 370.5 16.1839 398.5 16.184C426.5 16.184 443 27.4587 443 27.4587C443 27.4587 501.897 54.1702 546 64.5702C596.478 76.4733 683.5 80.1961 683.5 80.1961H1223.5C1223.5 80.1961 1320.79 79.5576 1366.5 59.9923C1418.75 37.6271 1440 0 1440 0" stroke="#EBEBEB"/>
</g>
<defs>
<clipPath id="clip0_17503_13398">
<rect width="1440" height="94" fill="white"/>
</clipPath>
</defs>
</svg>
