<svg width="1440" height="94" viewBox="0 0 1440 94" fill="none" xmlns="http://www.w3.org/2000/svg">
<g clip-path="url(#clip0_17503_13398)">
<rect width="1440" height="94" fill="white"/>
<path d="M1591 80.1967H1323.5C1323.5 80.1967 1251.02 79.4855 1210.5 68.7563C1171.67 58.4753 1126 29.4125 1126 29.4125C1126 29.4125 1109.5 16.1845 1081.5 16.1846C1053.5 16.1847 1037 27.4593 1037 27.4593C1037 27.4593 978.103 54.1708 934 64.5708C884.5 76.2433 774.5 80.1967 774.5 80.1967H140C140 80.1967 93.6973 81.2591 57.5 70.3172C33.5 63.0623 1 37.6702 1 37.6702" stroke="#EBEBEB"/>
<path d="M1551 80.1961H1283.5C1283.5 80.1961 1211.02 79.4849 1170.5 68.7557C1131.67 58.4746 1086 29.4119 1086 29.4119C1086 29.4119 1069.5 16.1839 1041.5 16.184C1013.5 16.184 997 27.4587 997 27.4587C997 27.4587 938.103 54.1702 894 64.5702C843.522 76.4733 756.5 80.1961 756.5 80.1961H216.5C216.5 80.1961 119.21 79.5576 73.5 59.9923C21.2487 37.6271 0 0 0 0" stroke="#EBEBEB"/>
</g>
<defs>
<clipPath id="clip0_17503_13398">
<rect width="1440" height="94" fill="white"/>
</clipPath>
</defs>
</svg>
