<svg width="36" height="36" viewBox="0 0 36 36" fill="none" xmlns="http://www.w3.org/2000/svg">
<path fill-rule="evenodd" clip-rule="evenodd" d="M17.5806 4.81798L23.617 7.73532C23.9156 7.87978 24.0408 8.23729 23.8948 8.53422C23.8379 8.65139 23.7449 8.74726 23.6278 8.80651L17.772 11.7878C17.5987 11.873 17.3952 11.873 17.2218 11.7878L11.186 8.87176C10.8875 8.72729 10.7623 8.36911 10.9076 8.07219C10.9645 7.95501 11.0582 7.86048 11.1747 7.80122L17.0304 4.81931C17.2037 4.73343 17.4072 4.73276 17.5806 4.81798ZM17.6241 15.8975L31.912 8.62277C32.2065 8.47164 32.323 8.11147 32.1704 7.8172C32.1114 7.70203 32.0164 7.61015 31.8993 7.55356L17.7346 0.708943C17.5619 0.623061 17.359 0.623061 17.1863 0.708943L2.89847 7.98031C2.60328 8.13144 2.48614 8.49161 2.63742 8.78521C2.69699 8.90105 2.79271 8.99492 2.91052 9.05151L17.0812 15.8948C17.2519 15.9787 17.4527 15.9787 17.6241 15.8948V15.8975ZM29.6301 21.1389C29.5223 23.6215 28.1655 25.8831 26.0208 27.156C24.0321 28.1726 22.4189 27.1307 22.4202 24.8226C22.5266 22.3406 23.8835 20.0777 26.0295 18.8048C28.0175 17.7882 29.6301 18.8348 29.6301 21.1376V21.1389ZM33.8471 27.3844V11.2046C33.8445 10.8704 33.57 10.6014 33.234 10.6041C33.1376 10.6047 33.0426 10.628 32.9569 10.672L18.5418 18.0479C18.3403 18.149 18.2138 18.3541 18.2132 18.5785V34.7583C18.2158 35.0925 18.4903 35.3615 18.8263 35.3588C18.9227 35.3581 19.0178 35.3348 19.1034 35.2909L33.5232 27.9157C33.7226 27.8125 33.8471 27.6081 33.8471 27.3844ZM11.5555 28.8051L5.06726 25.6821C4.76804 25.5383 4.6422 25.1814 4.78545 24.8838C4.79817 24.8592 4.81155 24.8352 4.82695 24.8126L8.07477 20.0265C8.26487 19.7482 8.64575 19.6756 8.92555 19.8647C9.02395 19.9313 9.10093 20.0245 9.14644 20.1337L12.3949 28.0375C12.5288 28.3397 12.3909 28.6933 12.087 28.8264C11.9157 28.9016 11.7189 28.893 11.5555 28.8038V28.8051Z" fill="#1F7CE0"/>
</svg>
