<svg width="373" height="158" viewBox="0 0 373 158" fill="none" xmlns="http://www.w3.org/2000/svg">
<g clip-path="url(#clip0_49506_10116)">
<path d="M216 0H366C369.866 0 373 3.13401 373 7V157H216V0Z" fill="white"/>
<path fill-rule="evenodd" clip-rule="evenodd" d="M338.811 -31.0986C366.321 -22.3127 396.396 -16.7934 413.049 6.77721C434.15 36.6411 455.07 76.9861 437.949 109.215C420.957 141.202 407.375 146.439 372 154.5C343.873 160.91 257.918 160.703 232.5 147C207.949 133.764 217.453 109 217.453 79.7231C216 53.5 217.173 34.5984 226.416 13.3724C235.837 -8.26048 248.133 -30.1834 270.101 -38.8756C292.357 -47.6815 315.98 -38.3899 338.811 -31.0986Z" fill="#F7F8FF"/>
<g opacity="0.5">
<path d="M216.042 105.943L218.579 107.309L243.986 92.3105C244.398 92.0652 245.152 92.1003 245.632 92.3806L289.453 118.243C289.864 117.998 291.784 117.051 291.784 117.051L290.859 119.504C290.824 119.61 290.721 119.715 290.584 119.785L263.839 135.59C263.428 135.835 262.674 135.8 262.194 135.519L217.344 109.061C217.139 108.956 217.036 108.781 216.967 108.641L216.042 105.943Z" fill="#C8C9CF"/>
<path d="M216.419 106.363L262.365 133.487C262.879 133.767 263.634 133.802 264.079 133.557L291.51 117.366C291.956 117.121 291.887 116.666 291.373 116.35L245.427 89.2263C244.912 88.946 244.158 88.9109 243.712 89.1562L216.282 105.346C215.87 105.592 215.904 106.047 216.419 106.363Z" fill="#F4F3F9"/>
<path d="M216.419 106.153L262.365 133.277C262.879 133.557 263.634 133.592 264.079 133.347L291.51 117.157C291.647 117.051 291.75 116.946 291.784 116.841C291.819 117.051 291.75 117.227 291.51 117.367L264.079 133.557C263.634 133.802 262.879 133.767 262.365 133.487L216.419 106.363C216.076 106.188 215.973 105.908 216.007 105.697C216.076 105.837 216.213 106.013 216.419 106.153Z" fill="white"/>
<path d="M276.252 127.599V127.073C276.252 127.038 276.217 127.003 276.183 127.038L274.4 128.089C274.366 128.124 274.332 128.159 274.332 128.229V128.755C274.332 128.79 274.366 128.825 274.4 128.79L276.183 127.739C276.217 127.704 276.252 127.669 276.252 127.599Z" fill="#565759"/>
<path d="M273.577 129.177V128.651C273.577 128.616 273.543 128.581 273.508 128.616L271.725 129.667C271.691 129.702 271.657 129.737 271.657 129.808V130.333C271.657 130.368 271.691 130.403 271.725 130.368L273.508 129.317C273.543 129.282 273.577 129.212 273.577 129.177Z" fill="#565759"/>
<path d="M284.344 115.861L246.147 93.3278C245.907 93.1876 245.564 93.1876 245.324 93.3278L231.746 101.353C231.54 101.458 231.54 101.773 231.746 101.878L269.908 124.412C270.148 124.552 270.491 124.552 270.731 124.412L284.344 116.387C284.55 116.246 284.55 115.966 284.344 115.861Z" fill="#F0F0F0"/>
<path d="M284.343 116.352L284.206 116.422L246.146 93.9936C245.906 93.8534 245.563 93.8534 245.323 93.9936L231.848 101.949L231.711 101.878C231.505 101.773 231.505 101.458 231.711 101.353L245.323 93.3278C245.563 93.1876 245.906 93.1876 246.146 93.3278L284.343 115.861C284.549 115.966 284.549 116.246 284.343 116.352Z" fill="#C8C8C8"/>
<path d="M244.707 121.291L234.42 115.228C234.009 114.983 234.009 114.598 234.42 114.352L241.45 110.182C241.861 109.937 242.512 109.937 242.924 110.182L253.21 116.245C253.622 116.49 253.622 116.875 253.21 117.121L246.181 121.291C245.736 121.536 245.084 121.536 244.707 121.291Z" fill="#DFDFDF"/>
<path d="M253.176 116.63L242.889 110.568C242.478 110.322 241.827 110.322 241.415 110.568L234.386 114.738C234.249 114.808 234.18 114.913 234.146 114.983C234.043 114.773 234.112 114.528 234.386 114.387L241.415 110.217C241.827 109.972 242.478 109.972 242.889 110.217L253.176 116.28C253.45 116.455 253.519 116.665 253.416 116.876C253.382 116.805 253.313 116.7 253.176 116.63Z" fill="#C8C8C8"/>
<g opacity="0.7">
<rect width="3.01183" height="2.82359" rx="1.06803" transform="matrix(0.866025 0.5 -0.866025 0.5 246.03 92.4941)" fill="#BAB8B8"/>
<rect width="3.01183" height="2.82359" rx="1.06803" transform="matrix(0.866025 0.5 -0.866025 0.5 239.509 96.2598)" fill="#BAB8B8"/>
<rect width="5.08246" height="2.82359" rx="1.06803" transform="matrix(0.866025 0.5 -0.866025 0.5 236.25 98.1406)" fill="#BAB8B8"/>
<rect width="2.82359" height="2.82359" rx="1.06803" transform="matrix(0.866025 0.5 -0.866025 0.5 261.843 112.918)" fill="#BAB8B8"/>
<rect width="2.82359" height="2.82359" rx="1.06803" transform="matrix(0.866025 0.5 -0.866025 0.5 265.592 115.084)" fill="#BAB8B8"/>
<rect width="2.82359" height="2.82359" rx="1.06803" transform="matrix(0.866025 0.5 -0.866025 0.5 269.341 117.248)" fill="#BAB8B8"/>
<rect width="21.4593" height="2.82359" rx="1.06803" transform="matrix(0.866025 0.5 -0.866025 0.5 241.953 101.438)" fill="#BAB8B8"/>
<rect width="3.01183" height="2.82359" rx="1.06803" transform="matrix(0.866025 0.5 -0.866025 0.5 249.779 94.6602)" fill="#BAB8B8"/>
<rect width="3.01183" height="2.82359" rx="1.06803" transform="matrix(0.866025 0.5 -0.866025 0.5 243.258 98.4238)" fill="#BAB8B8"/>
<rect width="3.01183" height="2.82359" rx="1.06803" transform="matrix(0.866025 0.5 -0.866025 0.5 244.563 95.4121)" fill="#BAB8B8"/>
<rect width="3.01183" height="2.82359" rx="1.06803" transform="matrix(0.866025 0.5 -0.866025 0.5 248.312 97.5781)" fill="#BAB8B8"/>
<rect width="3.01183" height="2.82359" rx="1.06803" transform="matrix(0.866025 0.5 -0.866025 0.5 252.062 99.7402)" fill="#BAB8B8"/>
<rect width="3.01183" height="2.82359" rx="1.06803" transform="matrix(0.866025 0.5 -0.866025 0.5 255.811 101.906)" fill="#BAB8B8"/>
<rect width="3.01183" height="2.82359" rx="1.06803" transform="matrix(0.866025 0.5 -0.866025 0.5 259.56 104.072)" fill="#BAB8B8"/>
<rect width="3.01183" height="2.82359" rx="1.06803" transform="matrix(0.866025 0.5 -0.866025 0.5 263.311 106.236)" fill="#BAB8B8"/>
<rect width="3.01183" height="2.82359" rx="1.06803" transform="matrix(0.866025 0.5 -0.866025 0.5 267.06 108.4)" fill="#BAB8B8"/>
<rect width="3.01183" height="2.82359" rx="1.06803" transform="matrix(0.866025 0.5 -0.866025 0.5 270.809 110.564)" fill="#BAB8B8"/>
<rect width="3.01183" height="2.82359" rx="1.06803" transform="matrix(0.866025 0.5 -0.866025 0.5 274.559 112.73)" fill="#BAB8B8"/>
<rect width="3.01183" height="2.82359" rx="1.06803" transform="matrix(0.866025 0.5 -0.866025 0.5 253.529 96.8242)" fill="#BAB8B8"/>
<rect width="3.01183" height="2.82359" rx="1.06803" transform="matrix(0.866025 0.5 -0.866025 0.5 247.008 100.59)" fill="#BAB8B8"/>
<rect width="3.01183" height="2.82359" rx="1.06803" transform="matrix(0.866025 0.5 -0.866025 0.5 257.278 98.9883)" fill="#BAB8B8"/>
<rect width="3.01183" height="2.82359" rx="1.06803" transform="matrix(0.866025 0.5 -0.866025 0.5 250.757 102.754)" fill="#BAB8B8"/>
<rect width="3.01183" height="2.82359" rx="1.06803" transform="matrix(0.866025 0.5 -0.866025 0.5 261.028 101.152)" fill="#BAB8B8"/>
<rect width="3.01183" height="2.82359" rx="1.06803" transform="matrix(0.866025 0.5 -0.866025 0.5 254.508 104.918)" fill="#BAB8B8"/>
<rect width="3.01183" height="2.82359" rx="1.06803" transform="matrix(0.866025 0.5 -0.866025 0.5 264.777 103.318)" fill="#BAB8B8"/>
<rect width="3.01183" height="2.82359" rx="1.06803" transform="matrix(0.866025 0.5 -0.866025 0.5 258.256 107.084)" fill="#BAB8B8"/>
<rect width="3.01183" height="2.82359" rx="1.06803" transform="matrix(0.866025 0.5 -0.866025 0.5 268.527 105.484)" fill="#BAB8B8"/>
<rect width="3.01183" height="2.82359" rx="1.06803" transform="matrix(0.866025 0.5 -0.866025 0.5 262.006 109.248)" fill="#BAB8B8"/>
<rect width="3.01183" height="2.82359" rx="1.06803" transform="matrix(0.866025 0.5 -0.866025 0.5 272.275 107.646)" fill="#BAB8B8"/>
<rect width="3.01183" height="2.82359" rx="1.06803" transform="matrix(0.866025 0.5 -0.866025 0.5 265.756 111.412)" fill="#BAB8B8"/>
<rect width="3.01183" height="2.82359" rx="1.06803" transform="matrix(0.866025 0.5 -0.866025 0.5 276.025 109.812)" fill="#BAB8B8"/>
<rect width="3.01183" height="2.82359" rx="1.06803" transform="matrix(0.866025 0.5 -0.866025 0.5 269.504 113.578)" fill="#BAB8B8"/>
<rect width="3.01183" height="2.82359" rx="1.06803" transform="matrix(0.866025 0.5 -0.866025 0.5 279.774 111.977)" fill="#BAB8B8"/>
<rect width="3.01183" height="2.82359" rx="1.06803" transform="matrix(0.866025 0.5 -0.866025 0.5 273.254 115.742)" fill="#BAB8B8"/>
<rect width="3.01183" height="2.82359" rx="1.06803" transform="matrix(0.866025 0.5 -0.866025 0.5 246.03 92.2363)" fill="#DCDCDC"/>
<rect width="3.01183" height="2.82359" rx="1.06803" transform="matrix(0.866025 0.5 -0.866025 0.5 239.509 96.002)" fill="#DCDCDC"/>
<rect width="5.08246" height="2.82359" rx="1.06803" transform="matrix(0.866025 0.5 -0.866025 0.5 236.249 97.8828)" fill="#DCDCDC"/>
<rect width="2.82359" height="2.82359" rx="1.06803" transform="matrix(0.866025 0.5 -0.866025 0.5 261.843 112.66)" fill="#DCDCDC"/>
<rect width="2.82359" height="2.82359" rx="1.06803" transform="matrix(0.866025 0.5 -0.866025 0.5 265.592 114.826)" fill="#DCDCDC"/>
<rect width="2.82359" height="2.82359" rx="1.06803" transform="matrix(0.866025 0.5 -0.866025 0.5 269.341 116.992)" fill="#DCDCDC"/>
<rect width="21.4593" height="2.82359" rx="1.06803" transform="matrix(0.866025 0.5 -0.866025 0.5 241.953 101.18)" fill="#DCDCDC"/>
<rect width="3.01183" height="2.82359" rx="1.06803" transform="matrix(0.866025 0.5 -0.866025 0.5 249.779 94.4023)" fill="#DCDCDC"/>
<rect width="3.01183" height="2.82359" rx="1.06803" transform="matrix(0.866025 0.5 -0.866025 0.5 243.259 98.168)" fill="#DCDCDC"/>
<rect width="3.01183" height="2.82359" rx="1.06803" transform="matrix(0.866025 0.5 -0.866025 0.5 244.563 95.1543)" fill="#DCDCDC"/>
<rect width="3.01183" height="2.82359" rx="1.06803" transform="matrix(0.866025 0.5 -0.866025 0.5 248.312 97.3203)" fill="#DCDCDC"/>
<rect width="3.01183" height="2.82359" rx="1.06803" transform="matrix(0.866025 0.5 -0.866025 0.5 252.062 99.4844)" fill="#DCDCDC"/>
<rect width="3.01183" height="2.82359" rx="1.06803" transform="matrix(0.866025 0.5 -0.866025 0.5 255.812 101.648)" fill="#DCDCDC"/>
<rect width="3.01183" height="2.82359" rx="1.06803" transform="matrix(0.866025 0.5 -0.866025 0.5 259.56 103.814)" fill="#DCDCDC"/>
<rect width="3.01183" height="2.82359" rx="1.06803" transform="matrix(0.866025 0.5 -0.866025 0.5 263.311 105.979)" fill="#DCDCDC"/>
<rect width="3.01183" height="2.82359" rx="1.06803" transform="matrix(0.866025 0.5 -0.866025 0.5 267.06 108.143)" fill="#DCDCDC"/>
<rect width="3.01183" height="2.82359" rx="1.06803" transform="matrix(0.866025 0.5 -0.866025 0.5 270.809 110.309)" fill="#DCDCDC"/>
<rect width="3.01183" height="2.82359" rx="1.06803" transform="matrix(0.866025 0.5 -0.866025 0.5 274.559 112.473)" fill="#DCDCDC"/>
<rect width="3.01183" height="2.82359" rx="1.06803" transform="matrix(0.866025 0.5 -0.866025 0.5 253.529 96.5664)" fill="#DCDCDC"/>
<rect width="3.01183" height="2.82359" rx="1.06803" transform="matrix(0.866025 0.5 -0.866025 0.5 247.009 100.332)" fill="#DCDCDC"/>
<rect width="3.01183" height="2.82359" rx="1.06803" transform="matrix(0.866025 0.5 -0.866025 0.5 257.278 98.7305)" fill="#DCDCDC"/>
<rect width="3.01183" height="2.82359" rx="1.06803" transform="matrix(0.866025 0.5 -0.866025 0.5 250.757 102.496)" fill="#DCDCDC"/>
<rect width="3.01183" height="2.82359" rx="1.06803" transform="matrix(0.866025 0.5 -0.866025 0.5 261.028 100.896)" fill="#DCDCDC"/>
<rect width="3.01183" height="2.82359" rx="1.06803" transform="matrix(0.866025 0.5 -0.866025 0.5 254.508 104.66)" fill="#DCDCDC"/>
<rect width="3.01183" height="2.82359" rx="1.06803" transform="matrix(0.866025 0.5 -0.866025 0.5 264.777 103.061)" fill="#DCDCDC"/>
<rect width="3.01183" height="2.82359" rx="1.06803" transform="matrix(0.866025 0.5 -0.866025 0.5 258.256 106.826)" fill="#DCDCDC"/>
<rect width="3.01183" height="2.82359" rx="1.06803" transform="matrix(0.866025 0.5 -0.866025 0.5 268.528 105.227)" fill="#DCDCDC"/>
<rect width="3.01183" height="2.82359" rx="1.06803" transform="matrix(0.866025 0.5 -0.866025 0.5 262.006 108.992)" fill="#DCDCDC"/>
<rect width="3.01183" height="2.82359" rx="1.06803" transform="matrix(0.866025 0.5 -0.866025 0.5 272.276 107.389)" fill="#DCDCDC"/>
<rect width="3.01183" height="2.82359" rx="1.06803" transform="matrix(0.866025 0.5 -0.866025 0.5 265.756 111.154)" fill="#DCDCDC"/>
<rect width="3.01183" height="2.82359" rx="1.06803" transform="matrix(0.866025 0.5 -0.866025 0.5 276.026 109.555)" fill="#DCDCDC"/>
<rect width="3.01183" height="2.82359" rx="1.06803" transform="matrix(0.866025 0.5 -0.866025 0.5 269.504 113.32)" fill="#DCDCDC"/>
<rect width="3.01183" height="2.82359" rx="1.06803" transform="matrix(0.866025 0.5 -0.866025 0.5 279.774 111.721)" fill="#DCDCDC"/>
<rect width="3.01183" height="2.82359" rx="1.06803" transform="matrix(0.866025 0.5 -0.866025 0.5 273.254 115.484)" fill="#DCDCDC"/>
</g>
<g opacity="0.11">
<g opacity="0.11">
<path opacity="0.11" d="M245.393 89.1928L291.339 116.317C291.854 116.597 292.608 116.632 293.054 116.387L320.485 100.197C320.93 99.9512 320.862 99.4957 320.347 99.1803L274.401 72.0564C273.887 71.776 273.132 71.741 272.687 71.9863L245.256 88.1765C244.81 88.4569 244.879 88.8774 245.393 89.1928Z" fill="#F2F2F2"/>
<path opacity="0.11" d="M291.477 94.0643L281.19 88.0018C280.779 87.7565 280.779 87.371 281.19 87.1257L288.22 82.9555C288.631 82.7102 289.282 82.7102 289.694 82.9555L299.98 89.018C300.392 89.2633 300.392 89.6488 299.98 89.8941L292.951 94.0643C292.54 94.2746 291.888 94.2746 291.477 94.0643Z" fill="#FDFDFD"/>
<path opacity="0.11" d="M299.98 89.4036L289.694 83.3411C289.282 83.0958 288.631 83.0958 288.219 83.3411L281.19 87.5113C281.053 87.5814 280.984 87.6865 280.95 87.7566C280.847 87.5463 280.916 87.301 281.19 87.1608L288.219 82.9906C288.631 82.7453 289.282 82.7453 289.694 82.9906L299.98 89.0532C300.254 89.2284 300.323 89.4387 300.22 89.6489C300.186 89.5438 300.083 89.4737 299.98 89.4036Z" fill="#C8C8C8"/>
<g opacity="0.11">
<path opacity="0.11" d="M304.506 103.56L266.309 80.9919C266.069 80.8517 265.726 80.8517 265.486 80.9919L251.874 89.0169C251.668 89.122 251.668 89.4374 251.874 89.5425L290.071 112.111C290.311 112.251 290.654 112.251 290.894 112.111L304.506 104.086C304.712 103.946 304.712 103.665 304.506 103.56Z" fill="#DCDCDC"/>
<path opacity="0.11" d="M304.506 104.051L304.369 104.121L266.309 81.6578C266.069 81.5176 265.726 81.5176 265.486 81.6578L252.011 89.6478L251.874 89.5777C251.668 89.4726 251.668 89.1572 251.874 89.052L265.486 81.027C265.726 80.8868 266.069 80.8868 266.309 81.027L304.506 103.56C304.712 103.665 304.678 103.946 304.506 104.051Z" fill="#C8C8C8"/>
<g opacity="0.11">
<path opacity="0.11" d="M255.439 88.4902L288.699 108.15L287.396 108.921L254.136 89.2962L255.439 88.4902Z" fill="#828282"/>
<path opacity="0.11" d="M258.936 86.4238L290.584 105.102L289.247 105.873L257.633 87.1948L258.936 86.4238Z" fill="#828282"/>
<path opacity="0.11" d="M292.951 106.504L295.899 108.221L294.562 108.992L291.613 107.275L292.951 106.504Z" fill="#828282"/>
<path opacity="0.11" d="M290.31 109.096L292.368 110.287L291.065 111.058L289.007 109.867L290.31 109.096Z" fill="#828282"/>
<path opacity="0.11" d="M261.132 85.127L298.094 106.924L296.757 107.695L259.829 85.8979L261.132 85.127Z" fill="#828282"/>
<path opacity="0.11" d="M263.36 83.8301L300.288 105.627L298.951 106.398L262.022 84.6361L263.36 83.8301Z" fill="#828282"/>
<path opacity="0.11" d="M265.554 82.5332L302.483 104.33L301.145 105.101L264.217 83.3392L265.554 82.5332Z" fill="#828282"/>
</g>
</g>
</g>
</g>
</g>
<path d="M293.322 108.138L294.789 86.0158C294.925 83.9648 293.872 82.0178 292.081 81.0093L253.752 59.4259C250.192 57.4213 245.792 59.9936 245.792 64.079V85.4068C245.792 87.2727 246.765 89.0033 248.36 89.9716L285.222 112.349C288.647 114.428 293.057 112.135 293.322 108.138Z" fill="#C1C1C1"/>
<path d="M292.217 113.429L294.164 84.4402C294.219 83.6151 293.793 82.8321 293.07 82.4302L248.208 57.4838C246.785 56.6921 245.034 57.7216 245.034 59.3506V87.5591C245.034 88.3097 245.428 89.0053 246.072 89.3912L288.987 115.118C290.357 115.939 292.11 115.022 292.217 113.429Z" fill="#E4E4E4"/>
<path d="M247.937 82.7746V66.1326C247.937 62.9055 251.378 60.8436 254.223 62.3652L289.162 81.0459C290.647 81.8404 291.528 83.4341 291.409 85.1149L290.191 102.33C289.969 105.469 286.544 107.299 283.811 105.739L250.091 86.4845C248.759 85.724 247.937 84.3081 247.937 82.7746Z" fill="#4864FC"/>
<path d="M323.401 75.541L333.75 81.9775L320.498 90.4333" stroke="#BED2F8" stroke-width="1.06803"/>
<path d="M284.908 50.8027L312.014 66.4522" stroke="#BED2F8" stroke-width="1.60204"/>
<path d="M319.236 69.4824L346.342 85.1319" stroke="#BED2F8" stroke-width="1.60204"/>
<path d="M295.005 81.5996L318.372 67.717" stroke="#BED2F8" stroke-width="1.60204"/>
<path d="M321.508 62.793L353.204 44.4931" stroke="#BED2F8" stroke-width="1.60204"/>
<path d="M306.918 60.4114L295.824 54.0062L297.118 49.309" stroke="#BED2F8" stroke-opacity="0.5" stroke-width="1.60204"/>
<rect width="30.3118" height="20.5283" rx="4.27211" transform="matrix(0.866025 0.5 -2.20305e-08 1 275.064 78.5703)" fill="#37325C"/>
<path d="M275.064 81.5441C275.064 79.9017 276.217 79.236 277.639 80.0572L298.739 92.2393C300.162 93.0605 301.315 95.0576 301.315 96.7L275.064 81.5441Z" fill="#8A8896"/>
<path d="M281.375 89.8906L289.422 94.6436" stroke="#A7A7A7" stroke-width="2.13605" stroke-linecap="round" stroke-linejoin="round"/>
<path d="M281.375 92.4141L285.472 94.8338" stroke="#A7A7A7" stroke-width="2.13605" stroke-linecap="round" stroke-linejoin="round"/>
<path d="M281.375 91.0684L285.179 93.3152" stroke="#92E3A9" stroke-width="2.13605" stroke-linecap="round" stroke-linejoin="round"/>
<path d="M286.057 93.832L288.106 95.0418" stroke="#92E3A9" stroke-width="2.13605" stroke-linecap="round" stroke-linejoin="round"/>
<path d="M289.422 95.8203L291.471 97.0301" stroke="#92E3A9" stroke-width="2.13605" stroke-linecap="round" stroke-linejoin="round"/>
<path d="M281.375 93.5918L285.179 95.8387" stroke="#A7A7A7" stroke-width="2.13605" stroke-linecap="round" stroke-linejoin="round"/>
<path d="M286.057 96.3555L288.106 97.5653" stroke="#A7A7A7" stroke-width="2.13605" stroke-linecap="round" stroke-linejoin="round"/>
<path d="M289.422 98.3438L291.471 99.5535" stroke="#92E3A9" stroke-width="2.13605" stroke-linecap="round" stroke-linejoin="round"/>
<path d="M281.375 96.1172L285.179 98.3641" stroke="#A7A7A7" stroke-width="2.13605" stroke-linecap="round" stroke-linejoin="round"/>
<path d="M286.057 98.8809L288.106 100.091" stroke="#92E3A9" stroke-width="2.13605" stroke-linecap="round" stroke-linejoin="round"/>
<path d="M289.422 100.869L291.471 102.079" stroke="#A7A7A7" stroke-width="2.13605" stroke-linecap="round" stroke-linejoin="round"/>
<path d="M283.716 98.6758L286.788 100.49" stroke="#A7A7A7" stroke-width="2.13605" stroke-linecap="round" stroke-linejoin="round"/>
<path d="M287.375 100.838L288.984 101.788" stroke="#A7A7A7" stroke-width="2.13605" stroke-linecap="round" stroke-linejoin="round"/>
<path d="M289.862 102.305L291.471 103.255" stroke="#A7A7A7" stroke-width="2.13605" stroke-linecap="round" stroke-linejoin="round"/>
<path d="M283.716 100.021L286.788 101.836" stroke="#A7A7A7" stroke-width="2.13605" stroke-linecap="round" stroke-linejoin="round"/>
<path d="M287.375 102.182L288.984 103.132" stroke="#A7A7A7" stroke-width="2.13605" stroke-linecap="round" stroke-linejoin="round"/>
<path d="M289.862 103.65L291.471 104.601" stroke="#A7A7A7" stroke-width="2.13605" stroke-linecap="round" stroke-linejoin="round"/>
<path d="M281.375 100.154L289.422 104.907" stroke="#92E3A9" stroke-width="2.13605" stroke-linecap="round" stroke-linejoin="round"/>
<path d="M281.521 88.3365L282.253 88.3891L282.253 88.499L281.637 88.4463L282.253 89.1206L282.253 89.2305L281.521 88.4189L281.521 88.3365Z" fill="#A7A7A7" stroke="#A7A7A7" stroke-width="1.06803" stroke-miterlimit="10"/>
<path d="M282.691 89.6567L283.167 88.5919L283.276 88.6562L282.801 89.7217L282.691 89.6567Z" fill="#A7A7A7" stroke="#A7A7A7" stroke-width="1.06803" stroke-miterlimit="10"/>
<path d="M284.594 90.2363L283.716 90.0953L283.716 89.9854L284.461 90.1154L283.716 89.3638L283.716 89.2539L284.594 90.1499L284.594 90.2363Z" fill="#A7A7A7" stroke="#A7A7A7" stroke-width="1.06803" stroke-miterlimit="10"/>
<path d="M322.77 70.4785L333.75 76.04L340.312 74.4384" stroke="#BED2F8" stroke-opacity="0.5" stroke-width="1.60204"/>
<path d="M333.119 59.3232L346.235 51.7508L355.853 52.6343" stroke="#BED2F8" stroke-opacity="0.5" stroke-width="1.60204"/>
<path d="M326.65 57.2825L340.18 49.471L338.601 43.7426" stroke="#BED2F8" stroke-opacity="0.5" stroke-width="1.60204"/>
<path d="M304.906 65.3778L291.79 57.8055L282.172 58.6889" stroke="#BED2F8" stroke-opacity="0.5" stroke-width="1.60204"/>
<path d="M273.299 84.9806V63.9267C273.299 62.4183 272.503 61.0218 271.206 60.2523L239.402 41.3884C236.493 39.6625 232.827 41.8427 232.954 45.2234L233.83 68.5116C233.887 70.0256 234.742 71.3961 236.076 72.1136L267.003 88.7433C269.849 90.2737 273.299 88.2121 273.299 84.9806Z" fill="#E8EEF9"/>
<ellipse rx="0.302894" ry="0.504823" transform="matrix(-1 0 0 1 235.387 41.2158)" fill="#DD6565"/>
<ellipse rx="0.378617" ry="0.504823" transform="matrix(-1 0 0 1 236.573 41.9736)" fill="#F8BA00"/>
<ellipse rx="0.378617" ry="0.504823" transform="matrix(-1 0 0 1 237.835 42.7294)" fill="#4B9B08"/>
<path d="M259.534 78.7226V62.669C259.534 62.2818 259.324 61.9248 258.986 61.7362L237.337 49.6638C236.612 49.2592 235.722 49.8012 235.749 50.6313L236.299 67.4928C236.311 67.8744 236.527 68.2204 236.863 68.4002L257.963 79.6647C258.674 80.0445 259.534 79.529 259.534 78.7226Z" fill="white"/>
<path fill-rule="evenodd" clip-rule="evenodd" d="M254.551 63.1986C254.375 63.4511 254.229 63.6976 254.119 63.9152L254.119 63.9154C253.749 64.6324 252.981 65.3502 251.878 65.1728C250.773 64.9952 249.338 63.9204 247.638 61.0698C246.947 59.9107 246.269 59.3171 245.617 59.1395C244.964 58.9614 244.334 59.2003 243.741 59.7194C242.556 60.7578 241.531 62.9092 240.792 65.0275L240.736 64.9631C241.477 62.8424 242.505 60.6808 243.698 59.6353C244.295 59.1125 244.936 58.8667 245.605 59.0491C246.276 59.2319 246.971 59.844 247.675 61.0236C249.363 63.8543 250.778 64.9074 251.861 65.0815C252.946 65.2559 253.703 64.5495 254.067 63.8436C254.178 63.6237 254.325 63.3754 254.502 63.1213L254.551 63.1986Z" fill="#B8D1F6"/>
<path fill-rule="evenodd" clip-rule="evenodd" d="M241.83 59.519C241.855 59.5333 241.875 59.5735 241.875 59.6087L241.875 66.187C241.875 66.2222 241.855 66.2392 241.83 66.2249C241.805 66.2106 241.785 66.1704 241.785 66.1352L241.785 59.5569C241.785 59.5217 241.805 59.5047 241.83 59.519Z" fill="#4B9B08"/>
<path fill-rule="evenodd" clip-rule="evenodd" d="M244.653 55.8608C244.678 55.8751 244.698 55.9153 244.698 55.9505L244.698 63.2098C244.698 63.2451 244.678 63.262 244.653 63.2477C244.628 63.2334 244.608 63.1933 244.608 63.158L244.608 55.8987C244.608 55.8635 244.628 55.8465 244.653 55.8608Z" fill="#4B9B08"/>
<path fill-rule="evenodd" clip-rule="evenodd" d="M247.475 62.3081C247.5 62.3224 247.52 62.3625 247.52 62.3978L247.52 67.2483C247.52 67.2836 247.5 67.3005 247.475 67.2862C247.45 67.2719 247.43 67.2318 247.43 67.1965L247.43 62.346C247.43 62.3107 247.45 62.2938 247.475 62.3081Z" fill="#4B9B08"/>
<path fill-rule="evenodd" clip-rule="evenodd" d="M253.251 60.9702C253.275 60.9845 253.295 61.0247 253.295 61.0599L253.295 65.9104C253.295 65.9457 253.275 65.9626 253.251 65.9483C253.226 65.934 253.206 65.8939 253.206 65.8586L253.206 61.0081C253.206 60.9729 253.226 60.9559 253.251 60.9702Z" fill="#E15858"/>
<path fill-rule="evenodd" clip-rule="evenodd" d="M248.944 60.7475C248.969 60.7618 248.989 60.802 248.989 60.8372L248.989 65.6878C248.989 65.723 248.969 65.74 248.944 65.7257C248.919 65.7114 248.899 65.6712 248.899 65.636L248.899 60.7854C248.899 60.7502 248.919 60.7332 248.944 60.7475Z" fill="#4B9B08"/>
<path fill-rule="evenodd" clip-rule="evenodd" d="M251.654 58.6167C251.679 58.631 251.699 58.6711 251.699 58.7064L251.699 66.9292C251.699 66.9644 251.679 66.9814 251.654 66.9671C251.629 66.9528 251.609 66.9126 251.609 66.8774L251.609 58.6546C251.609 58.6193 251.629 58.6024 251.654 58.6167Z" fill="#4B9B08"/>
<path fill-rule="evenodd" clip-rule="evenodd" d="M243.184 60.312C243.209 60.3263 243.229 60.3665 243.229 60.4017L243.229 66.0552C243.229 66.0904 243.209 66.1073 243.184 66.093C243.159 66.0787 243.139 66.0386 243.139 66.0034L243.139 60.3499C243.139 60.3147 243.159 60.2977 243.184 60.312Z" fill="#E15858"/>
<path fill-rule="evenodd" clip-rule="evenodd" d="M246.121 57.3491C246.146 57.3634 246.166 57.4036 246.166 57.4388L246.166 61.3258C246.166 61.3611 246.146 61.378 246.121 61.3637C246.096 61.3494 246.076 61.3093 246.076 61.274L246.076 57.387C246.076 57.3518 246.096 57.3348 246.121 57.3491Z" fill="#E15858"/>
<path fill-rule="evenodd" clip-rule="evenodd" d="M250.298 61.2085C250.323 61.2228 250.343 61.2629 250.343 61.2982L250.343 64.7034C250.343 64.7387 250.323 64.7556 250.298 64.7413C250.273 64.727 250.253 64.6869 250.253 64.6517L250.253 61.2464C250.253 61.2111 250.273 61.1942 250.298 61.2085Z" fill="#E15858"/>
<path d="M241.446 60.4316L242.236 60.888L242.236 65.3844L241.446 64.928L241.446 60.4316Z" fill="#4B9B08"/>
<path d="M244.269 57.084L245.059 57.5403L245.059 62.0367L244.269 61.5804L244.269 57.084Z" fill="#4B9B08"/>
<path d="M247.092 63.5312L247.882 63.9876L247.882 66.3964L247.092 65.94L247.092 63.5312Z" fill="#4B9B08"/>
<path d="M252.867 62.1934L253.657 62.6497L253.657 65.0585L252.867 64.6021L252.867 62.1934Z" fill="#E15858"/>
<path d="M248.56 61.9707L249.35 62.4271L249.35 64.8358L248.56 64.3795L248.56 61.9707Z" fill="#4B9B08"/>
<path d="M251.27 59.5195L252.06 59.9759L252.06 66.0781L251.27 65.6218L251.27 59.5195Z" fill="#4B9B08"/>
<path d="M242.801 60.7344L243.591 61.1907L243.591 65.6871L242.801 65.2308L242.801 60.7344Z" fill="#E15858"/>
<path d="M245.736 58.2539L246.527 58.7103L246.527 60.3161L245.736 59.8598L245.736 58.2539Z" fill="#E15858"/>
<path d="M249.915 61.7891L250.705 62.2454L250.705 63.8513L249.915 63.3949L249.915 61.7891Z" fill="#E15858"/>
<rect width="8.74379" height="3.89759" transform="matrix(0.866025 0.5 -2.20305e-08 1 262.192 61.6543)" fill="#B9C8E6"/>
<rect width="8.74379" height="1.16928" transform="matrix(0.866025 0.5 -2.20305e-08 1 262.192 67.3047)" fill="#B9C8E6"/>
<rect width="8.74379" height="1.16928" transform="matrix(0.866025 0.5 -2.20305e-08 1 262.192 70.2305)" fill="#B9C8E6"/>
<rect width="4.00757" height="1.16928" rx="0.584638" transform="matrix(0.866025 0.5 -2.20305e-08 1 262.192 73.1523)" fill="#80D53A"/>
<rect width="4.00757" height="1.16928" rx="0.584638" transform="matrix(0.866025 0.5 -2.20305e-08 1 266.293 75.5195)" fill="#F87E7E"/>
<path d="M317.558 43.0229L334.522 32.9744L317.558 22.9258L300.558 32.9744L317.558 43.0229Z" fill="#C1D6FF"/>
<path d="M317.558 42.6522L334.232 32.7891L334.522 32.9745L317.558 43.023L300.558 32.9745L300.848 32.7891L317.558 42.6522Z" fill="white"/>
<path d="M317.558 81.5483L334.522 71.4997L317.558 61.4512L300.558 71.4997L317.558 81.5483Z" fill="white"/>
<path d="M300.558 32.9746V71.5003L317.558 81.5489V43.0232L300.558 32.9746Z" fill="#CFDFFF"/>
<path d="M334.521 32.9746V71.5003L317.558 81.5489V43.0232L334.521 32.9746Z" fill="#2D48DD"/>
<path opacity="0.51" d="M333.397 35.5332V70.1655L318.681 78.8422V44.2098L333.397 35.5332Z" fill="#2D48DD"/>
<path d="M333.143 70.0172V35.6444L333.397 35.5332V70.1655L318.681 78.8422V78.5455L333.143 70.0172Z" fill="#EAF1FE"/>
<path d="M303.095 42.2812V43.2824L314.984 50.3275V49.2893L303.095 42.2812Z" fill="#2D48DD"/>
<path d="M303.095 46.582V47.6203L314.984 54.6283V53.6272L303.095 46.582Z" fill="#2D48DD"/>
<path d="M303.095 50.8848V51.923L314.984 58.931V57.9299L303.095 50.8848Z" fill="#2D48DD"/>
<path d="M303.095 55.1855V56.2238L314.984 63.2318V62.2307L303.095 55.1855Z" fill="#2D48DD"/>
<path d="M303.095 59.4863V60.5246L314.984 67.5326V66.5315L303.095 59.4863Z" fill="#2D48DD"/>
<path d="M303.095 63.8242V64.8254L314.984 71.8705V70.8323L303.095 63.8242Z" fill="#2D48DD"/>
<mask id="mask0_49506_10116" style="mask-type:alpha" maskUnits="userSpaceOnUse" x="317" y="24" width="18" height="17">
<path d="M317.557 40.3509H322.016L334.521 32.9721L320.892 24.9258H317.557V40.3509Z" fill="url(#paint0_linear_49506_10116)"/>
</mask>
<g mask="url(#mask0_49506_10116)">
<g opacity="0.51">
<path opacity="0.51" d="M334.52 65.4193L317.556 54.9257V43.0232L334.52 32.9746V65.4193Z" fill="#2D48DD"/>
</g>
<path d="M332.456 35.7929C332.456 35.3479 332.746 34.8288 333.144 34.6063C333.326 34.4951 333.507 34.4951 333.615 34.5693L334.087 34.8659H333.797C333.797 34.903 333.797 34.9771 333.797 35.0142C333.797 35.4592 333.507 35.9783 333.108 36.2008C333.072 36.2378 332.999 36.2378 332.963 36.2749L333.108 36.5345L332.637 36.2378C332.528 36.1637 332.456 36.0154 332.456 35.7929Z" fill="#CFDFFF"/>
<path d="M332.962 36.0523C332.962 36.4973 333.252 36.6827 333.651 36.4602C334.014 36.2377 334.34 35.7186 334.34 35.2736C334.34 34.8287 334.05 34.6433 333.651 34.8658C333.252 35.0882 332.962 35.6444 332.962 36.0523Z" fill="white"/>
<path d="M333.252 35.9038C333.252 36.1633 333.434 36.2746 333.651 36.1262C333.869 36.015 334.05 35.6813 334.05 35.4217C334.05 35.1622 333.869 35.0509 333.651 35.1992C333.397 35.3476 333.252 35.6442 333.252 35.9038Z" fill="#3F21D3"/>
</g>
<path d="M277.841 56.5698L264.463 48.6687L277.841 40.7676L291.219 48.6687L277.841 56.5698ZM264.842 48.6687L277.841 56.3632L290.84 48.6945L277.841 41L264.842 48.6687Z" fill="#C6D8FF"/>
<path d="M290.209 45.7257V43.1953L277.841 50.1669L265.473 43.1953V45.7257L277.841 53.033L290.209 45.7257Z" fill="#4F6AFF"/>
<path d="M277.841 50.4773L265.473 43.1959L277.841 35.8887L290.209 43.1959L277.841 50.4773Z" fill="#A8C2F4"/>
<path opacity="0.5" d="M277.841 50.2704L265.65 43.0664L265.473 43.1955L277.841 50.4769L290.209 43.1955L290.033 43.0664L277.841 50.2704Z" fill="white"/>
<path d="M277.841 47.6891L270.193 43.1963L277.841 38.6777L285.489 43.1963L277.841 47.6891Z" fill="#0F054C"/>
<path d="M277.967 47.8446L270.143 43.1969L270.395 19.0547H285.287L285.54 43.1969L277.967 47.8446Z" fill="url(#paint1_linear_49506_10116)"/>
<g clip-path="url(#clip1_49506_10116)">
<path d="M359.749 48.7366L373.126 41.0129L359.749 33.2891L346.371 41.0129L359.749 48.7366ZM372.748 41.0129L359.749 48.5347L346.749 41.0381L359.749 33.5162L372.748 41.0129Z" fill="#CADBFF"/>
<path d="M347.38 38.1338V35.6602L359.749 42.4753L372.117 35.6602V38.1338L359.749 45.277L347.38 38.1338Z" fill="#4F6AFF"/>
<path d="M359.749 42.7788L372.117 35.6608L359.749 28.5176L347.38 35.6608L359.749 42.7788Z" fill="#A8C2F4"/>
<path opacity="0.5" d="M359.749 42.5774L371.94 35.5352L372.117 35.6614L359.749 42.7794L347.38 35.6614L347.557 35.5352L359.749 42.5774Z" fill="white"/>
<path d="M359.749 40.0533L367.397 35.6613L359.749 31.2441L352.101 35.6613L359.749 40.0533Z" fill="#0F054C"/>
<path d="M359.875 40.3295L352.05 35.6599L352.302 13.1953H367.194L367.573 35.6599L359.875 40.3295Z" fill="url(#paint2_linear_49506_10116)"/>
</g>
<path d="M352.554 82.861L365.932 90.5848L352.554 98.3086L339.177 90.5848L352.554 82.861ZM365.554 90.5848L352.554 83.0629L339.555 90.5596L352.554 98.0814L365.554 90.5848Z" fill="#CADBFF"/>
<path d="M339.934 87.6045V85.1309L352.302 91.946L364.67 85.1309V87.6045L352.302 94.7477L339.934 87.6045Z" fill="#4F6AFF"/>
<path d="M352.302 92.2495L364.67 85.1315L352.302 77.9883L339.934 85.1315L352.302 92.2495Z" fill="#A8C2F4"/>
<path opacity="0.5" d="M352.302 92.0481L364.494 85.0059L364.67 85.1321L352.302 92.2501L339.934 85.1321L340.111 85.0059L352.302 92.0481Z" fill="white"/>
<path d="M352.302 89.524L359.95 85.132L352.302 80.7148L344.654 85.132L352.302 89.524Z" fill="#0F054C"/>
<path d="M352.43 92.1245L344.729 87.7146V64.2383H359.874V87.7146L352.43 92.1245Z" fill="url(#paint3_linear_49506_10116)"/>
<path d="M327.664 45.4531L330.595 43.7156V43.0684L327.664 44.7717V45.4531Z" fill="#42E8E0" fill-opacity="0.5"/>
<path d="M326.166 46.3375L327.231 45.6902V45.043L326.166 45.6562V46.3375Z" fill="#42E8E0" fill-opacity="0.5"/>
<path d="M324.999 47.0199L325.732 46.577V45.9297L324.999 46.3385V47.0199Z" fill="#42E8E0" fill-opacity="0.5"/>
<path d="M328.996 46.1676L330.594 45.2137V44.5664L328.996 45.4862V46.1676Z" fill="#42E8E0" fill-opacity="0.5"/>
<path d="M326.599 47.5653L328.564 46.407V45.7598L326.599 46.9181V47.5653Z" fill="#42E8E0" fill-opacity="0.5"/>
<path d="M325.433 48.2455L326.166 47.8367V47.1895L325.433 47.5983V48.2455Z" fill="#42E8E0" fill-opacity="0.5"/>
<path d="M324.333 48.894L325.065 48.4852V47.8379L324.333 48.2467V48.894Z" fill="#42E8E0" fill-opacity="0.5"/>
<path d="M329.461 47.395L330.594 46.7137V46.0664L329.461 46.7478V47.395Z" fill="#42E8E0" fill-opacity="0.5"/>
<path d="M328.597 47.8721L328.997 47.6677V46.9863L328.597 47.2248V47.8721Z" fill="#42E8E0" fill-opacity="0.5"/>
<path d="M327.43 48.5863L328.163 48.1434V47.4961L327.43 47.9049V48.5863Z" fill="#42E8E0" fill-opacity="0.5"/>
<path d="M326.332 50.7347L330.595 48.2137V47.5664L326.332 50.0533V50.7347Z" fill="#42E8E0" fill-opacity="0.5"/>
<path d="M324.833 51.6207L325.898 50.9735V50.3262L324.833 50.9394V51.6207Z" fill="#42E8E0" fill-opacity="0.5"/>
<path d="M329.461 50.3931L330.594 49.7117V49.0645L329.461 49.7458V50.3931Z" fill="#42E8E0" fill-opacity="0.5"/>
<path d="M326.73 51.9944L328.995 50.6657V49.9844L326.73 51.3471V51.9944Z" fill="#42E8E0" fill-opacity="0.5"/>
<path d="M325.565 52.6761L326.298 52.2673V51.5859L325.565 52.0288V52.6761Z" fill="#42E8E0" fill-opacity="0.5"/>
<path d="M328.229 52.6066L330.594 51.2098V50.5625L328.229 51.9593V52.6066Z" fill="#42E8E0" fill-opacity="0.5"/>
<path d="M326.099 53.8685L327.797 52.8806V52.1992L326.099 53.2212V53.8685Z" fill="#42E8E0" fill-opacity="0.5"/>
<path d="M324.5 54.8208L325.632 54.1395V53.4922L324.5 54.1735V54.8208Z" fill="#42E8E0" fill-opacity="0.5"/>
<path d="M329.794 53.1867L330.593 52.7098V52.0625L329.794 52.5394V53.1867Z" fill="#42E8E0" fill-opacity="0.5"/>
<path d="M328.295 54.0719L329.361 53.4587V52.7773L328.295 53.4246V54.0719Z" fill="#42E8E0" fill-opacity="0.5"/>
<path d="M326.166 55.3334L327.864 54.3454V53.6641L326.166 54.6861V55.3334Z" fill="#42E8E0" fill-opacity="0.5"/>
<path d="M328.163 55.6387L330.594 54.2078V53.5605L328.163 54.9914V55.6387Z" fill="#42E8E0" fill-opacity="0.5"/>
<path d="M325.433 57.2737L327.698 55.911V55.2637L325.433 56.6264V57.2737Z" fill="#42E8E0" fill-opacity="0.5"/>
<path d="M324.267 57.9574L324.966 57.5485V56.8672L324.267 57.3101V57.9574Z" fill="#42E8E0" fill-opacity="0.5"/>
<path d="M323.134 58.603L323.866 58.1942V57.5469L323.134 57.9557V58.603Z" fill="#42E8E0" fill-opacity="0.5"/>
<path d="M329.127 56.5936L330.593 55.7078V55.0605L329.127 55.9122V56.5936Z" fill="#42E8E0" fill-opacity="0.5"/>
<path d="M323.034 48.1785L321.003 49.3709V48.7236L323.034 47.5312V48.1785Z" fill="#42E8E0" fill-opacity="0.5"/>
<path d="M322.601 49.9489L321.003 50.8688V50.2215L322.601 49.2676V49.9489Z" fill="#42E8E0" fill-opacity="0.5"/>
<path d="M322.135 51.6883L321.003 52.3696V51.7224L322.135 51.041V51.6883Z" fill="#42E8E0" fill-opacity="0.5"/>
<path d="M322.668 52.8797L321.003 53.8677V53.2204L322.668 52.2324V52.8797Z" fill="#42E8E0" fill-opacity="0.5"/>
<path d="M322.135 54.7204L321.003 55.4018V54.7204L322.135 54.0391V54.7204Z" fill="#42E8E0" fill-opacity="0.5"/>
<path d="M322.468 56.0145L321.003 56.9002V56.2189L322.468 55.3672V56.0145Z" fill="#42E8E0" fill-opacity="0.5"/>
<path d="M321.802 57.9207L321.003 58.3977V57.7163L321.802 57.2734V57.9207Z" fill="#42E8E0" fill-opacity="0.5"/>
<path d="M322.535 58.9793L321.003 59.8991V59.2178L322.535 58.332V58.9793Z" fill="#42E8E0" fill-opacity="0.5"/>
<path d="M322.468 60.5106L321.003 61.3963V60.715L322.468 59.8633V60.5106Z" fill="#42E8E0" fill-opacity="0.5"/>
<path d="M328.062 57.2076L328.695 56.8328V56.1855L328.062 56.5603V57.2076Z" fill="#42E8E0" fill-opacity="0.5"/>
<path d="M326.23 58.2969L327.629 57.4793V56.832L326.23 57.6497V58.2969Z" fill="#42E8E0" fill-opacity="0.5"/>
<path d="M325.066 63.337L327.43 61.9403V61.293L325.066 62.6897V63.337Z" fill="#42E8E0" fill-opacity="0.5"/>
<path d="M323.434 64.292L324.367 63.7469V63.0996L323.434 63.6447V64.292Z" fill="#42E8E0" fill-opacity="0.5"/>
<path d="M319.994 118.851L321.13 118.205L320.12 117.947L319.994 118.851Z" fill="#A8C2F4"/>
<path d="M307.752 86.3768C307.752 84.0247 309.389 83.0819 311.414 84.2678L317.622 87.9025C319.66 89.0957 321.316 91.9899 321.316 94.3565L321.316 114.429C321.316 116.789 319.669 117.729 317.638 116.529L311.43 112.863C309.399 111.663 307.752 108.777 307.752 106.418L307.752 86.3768Z" fill="#A8C2F4"/>
<path d="M308.005 82.5723L306.869 83.2178L308.131 83.6051L308.005 82.5723Z" fill="#A8C2F4"/>
<rect width="15.7537" height="28.529" rx="4.27211" transform="matrix(0.861022 0.515281 -2.12537e-08 1 306.616 82.7363)" fill="#E8EEF9"/>
<rect width="12.7369" height="10.8398" rx="2.13605" transform="matrix(0.861029 0.513939 -2.13094e-08 1 307.771 86.8262)" fill="white"/>
<rect width="12.7369" height="6.76173" rx="2.13605" transform="matrix(0.861033 0.512943 -2.13508e-08 1 307.771 99.0996)" fill="white"/>
<rect width="5.93866" height="2.36375" rx="1.18187" transform="matrix(0.861035 0.512326 -2.13766e-08 1 307.771 107.963)" fill="#80D43A"/>
<rect width="6.00565" height="2.36364" rx="1.18182" transform="matrix(0.861035 0.512302 -2.13776e-08 1 313.565 111.385)" fill="#F68C8D"/>
<path d="M308.924 95.6438L310.367 94.6437L311.377 96.5984L313.109 95.0938L314.263 97.8109L316.717 94.5381L317.582 96.4068" stroke="#138C61" stroke-width="1.06803"/>
<rect width="7.03871" height="0.672157" rx="0.336079" transform="matrix(0.86104 0.509904 -2.14783e-08 1 308.924 101.484)" fill="#B9C8E5" fill-opacity="0.7"/>
<rect width="6.0332" height="0.672406" rx="0.336203" transform="matrix(0.86104 0.51009 -2.14704e-08 1 308.924 102.85)" fill="#B9C8E5" fill-opacity="0.7"/>
<rect width="8.04425" height="0.671964" rx="0.335982" transform="matrix(0.861041 0.509756 -2.14845e-08 1 308.924 104.213)" fill="#B9C8E5" fill-opacity="0.7"/>
<path d="M311.929 36.5043C315.257 38.3766 320.033 38.3766 323.294 36.7085C326.411 34.8677 326.428 31.736 323.215 29.8384C320.002 27.9407 314.871 27.8946 311.754 29.7353C308.637 31.5761 308.715 34.6067 311.929 36.5043Z" fill="#2D48DD"/>
<path d="M312.079 35.4034C315.226 37.2623 320.253 37.3075 323.306 35.5043C326.359 33.7012 326.282 30.7325 323.135 28.8736C319.988 27.0147 314.961 26.9696 311.908 28.7727C308.855 30.5758 308.931 33.5445 312.079 35.4034Z" fill="#78A4FB"/>
<path fill-rule="evenodd" clip-rule="evenodd" d="M315.264 36.5768L314.147 31.9383L316.34 31.3915L316.686 29.9214L318.4 29.4269L322.93 32.1023L323.291 35.5134C321.142 36.7766 318.021 37.127 315.264 36.5768Z" fill="#3550EA"/>
<path d="M322.59 32.8166L321.29 32.0489L316.309 34.9903C316.097 34.8651 315.928 34.7185 315.801 34.5506C315.668 34.3862 315.649 34.2754 315.746 34.2183L316.826 33.5807C316.123 33.4801 315.516 33.2788 315.005 32.9769C314.494 32.6749 314.203 32.3532 314.133 32.0117C314.075 31.6703 314.251 31.3782 314.663 31.1353C314.977 30.9496 315.371 30.8498 315.843 30.8359C315.64 30.5802 315.557 30.3311 315.594 30.0884C315.636 29.8422 315.815 29.6263 316.129 29.4405C316.444 29.2548 316.862 29.1625 317.384 29.1635C317.912 29.1683 318.407 29.3069 318.868 29.5794C319.205 29.7782 319.391 29.9739 319.427 30.1664C319.469 30.3626 319.384 30.5232 319.172 30.6482C318.743 30.9018 318.154 30.911 317.405 30.6759C317.384 30.5778 317.418 30.4765 317.507 30.3722C317.926 30.4267 318.226 30.4004 318.408 30.2932C318.511 30.2325 318.561 30.1659 318.559 30.0934C318.563 30.0172 318.497 29.9387 318.36 29.8577C318.223 29.7766 318.016 29.7404 317.74 29.7488C317.464 29.7572 317.208 29.831 316.972 29.9703C316.742 30.106 316.614 30.259 316.588 30.4292C316.574 30.5995 316.639 30.7633 316.785 30.9205C317.192 31.0039 317.6 31.1273 318.01 31.2905C318.029 31.559 317.952 31.7813 317.778 31.9575C317.319 31.772 316.877 31.6466 316.452 31.5811C316.039 31.5157 315.732 31.542 315.533 31.6599C315.339 31.7742 315.251 31.9075 315.267 32.06C315.289 32.2161 315.431 32.3715 315.693 32.5262C315.961 32.6845 316.299 32.7981 316.706 32.8671C317.113 32.936 317.525 32.9542 317.941 32.9217L320.354 31.4965L319.709 31.1154C319.739 30.8328 319.896 30.6076 320.18 30.4397L323.107 32.1685C323.058 32.4256 322.886 32.6416 322.59 32.8166Z" fill="white"/>
<path d="M315.257 36.4325V35.3842C319.334 35.9666 322.245 34.8018 323.294 34.3359V35.5007C320.615 36.8984 316.072 36.782 315.257 36.4325Z" fill="#1647A9"/>
</g>
<line x1="1.5" y1="157.5" x2="354.5" y2="157.5" stroke="url(#paint4_linear_49506_10116)" stroke-linecap="square"/>
<path d="M14.9557 69.0953C22.8504 69.0953 29.2503 62.7898 29.2503 55.0115C29.2503 47.2333 22.8504 40.9277 14.9557 40.9277C7.06104 40.9277 0.661133 47.2333 0.661133 55.0115C0.661133 62.7898 7.06104 69.0953 14.9557 69.0953Z" fill="url(#paint5_linear_49506_10116)"/>
<path fill-rule="evenodd" clip-rule="evenodd" d="M21.4435 67.5658L10.1928 58.9841L11.7815 55.0117L9.09326 51.4005L10.1928 48.1504H21.5552L29.2523 55.0469C29.2388 60.5098 26.0684 65.2417 21.4435 67.5658Z" fill="#2D48DD"/>
<path d="M22.6456 50.1285H19.3849V62.8169C18.8531 62.8169 18.3293 62.7168 17.8133 62.5165C17.2971 62.3316 17.0392 62.1159 17.0392 61.8693V59.1191C15.9445 59.797 14.7559 60.1359 13.4735 60.1359C12.1912 60.1359 11.1435 59.8124 10.3302 59.1653C9.53265 58.5028 9.13387 57.6476 9.13387 56.5999C9.13387 55.7987 9.4154 55.0822 9.97837 54.4505C9.18081 54.1577 8.54743 53.7263 8.07825 53.1562C7.60909 52.5707 7.37451 51.8773 7.37451 51.0761C7.37451 50.275 7.70294 49.543 8.35978 48.8805C9.03223 48.218 9.94705 47.8867 11.1044 47.8867C11.9488 47.8867 12.5977 48.0716 13.0514 48.4414C13.5205 48.8111 13.7551 49.2657 13.7551 49.805C13.7551 50.8989 13.0357 51.6693 11.597 52.1162C11.3624 51.9313 11.1903 51.6693 11.0808 51.3304C11.722 50.9144 12.0427 50.4752 12.0427 50.013C12.0427 49.751 11.9644 49.543 11.8081 49.389C11.6516 49.2194 11.4015 49.1347 11.0575 49.1347C10.7133 49.1347 10.3771 49.3197 10.0487 49.6895C9.72031 50.0592 9.55612 50.5445 9.55612 51.1455C9.55612 51.731 9.72031 52.224 10.0487 52.6247C10.3928 53.0098 10.8229 53.2795 11.3389 53.4335C12.0269 53.0946 12.8011 52.8404 13.6613 52.6708C14.2555 53.2256 14.6308 53.8033 14.7872 54.4042C13.8175 54.5891 12.9966 54.8818 12.3242 55.2825C11.6674 55.6677 11.3389 56.1145 11.3389 56.6229C11.3389 57.1161 11.5109 57.5166 11.855 57.8248C12.2146 58.133 12.7229 58.287 13.3797 58.287C14.0521 58.287 14.7168 58.1022 15.3736 57.7324C16.0304 57.3625 16.5856 56.8772 17.0392 56.2763V50.1285H15.4205C14.8575 49.4814 14.5761 48.7957 14.5761 48.0716H21.9183C22.4031 48.6879 22.6456 49.3736 22.6456 50.1285Z" fill="white"/>
<path d="M43.5356 57.3194C43.5356 57.7318 43.4968 58.1314 43.4195 58.518C43.3423 58.9046 43.2133 59.2526 43.0329 59.5619C42.8525 59.8583 42.6076 60.0967 42.2983 60.2771C42.0019 60.4576 41.6282 60.5478 41.1771 60.5478C40.7518 60.5478 40.3845 60.4576 40.0752 60.2771C39.7788 60.0838 39.5275 59.839 39.3213 59.5426C39.1279 59.2333 38.9862 58.8853 38.896 58.4987C38.8058 58.112 38.7607 57.7254 38.7607 57.3388C38.7607 56.9264 38.7993 56.5333 38.8767 56.1596C38.9669 55.7729 39.1022 55.4314 39.2826 55.135C39.4759 54.8386 39.7272 54.6002 40.0366 54.4198C40.3458 54.2393 40.726 54.1491 41.1771 54.1491C41.6282 54.1491 42.0019 54.2393 42.2983 54.4198C42.5947 54.6002 42.8331 54.8386 43.0136 55.135C43.2069 55.4186 43.3423 55.7536 43.4195 56.1402C43.4968 56.514 43.5356 56.9071 43.5356 57.3194ZM43.5742 61.0697V62.3456H46.1839V48.543H43.4389V53.5692H43.4002C43.0909 53.0794 42.6656 52.7121 42.1244 52.4672C41.596 52.2095 41.0354 52.0806 40.4425 52.0806C39.7079 52.0806 39.0635 52.2288 38.5093 52.5253C37.9552 52.8088 37.4912 53.189 37.1175 53.6658C36.7567 54.1427 36.4795 54.6968 36.2863 55.3283C36.1058 55.9469 36.0156 56.5913 36.0156 57.2614C36.0156 57.9574 36.1058 58.6275 36.2863 59.272C36.4795 59.9163 36.7567 60.4898 37.1175 60.9924C37.4912 61.4822 37.9616 61.8752 38.5287 62.1717C39.0958 62.4552 39.753 62.597 40.5005 62.597C41.1578 62.597 41.7442 62.481 42.2597 62.249C42.788 62.0042 43.2133 61.6111 43.5356 61.0697H43.5742ZM47.9365 48.543V62.3456H50.6816V57.1069C50.6816 56.0887 50.8492 55.3606 51.1842 54.9224C51.5193 54.4713 52.0606 54.2458 52.8081 54.2458C53.4654 54.2458 53.9229 54.452 54.1807 54.8643C54.4384 55.2639 54.5672 55.8761 54.5672 56.7008V62.3456H57.3123V56.1982C57.3123 55.5796 57.2543 55.019 57.1384 54.5164C57.0353 54.0009 56.8484 53.5692 56.5778 53.2212C56.3071 52.8603 55.9333 52.5833 55.4565 52.3899C54.9925 52.1837 54.3933 52.0806 53.6587 52.0806C53.1432 52.0806 52.6148 52.216 52.0735 52.4866C51.5322 52.7443 51.0876 53.1632 50.7397 53.7431H50.6816V48.543H47.9365ZM58.9576 55.425C58.9962 54.7806 59.1573 54.2457 59.4408 53.8205C59.7244 53.3952 60.0853 53.0537 60.5234 52.7959C60.9616 52.5382 61.4514 52.3578 61.9926 52.2546C62.5468 52.1386 63.101 52.0806 63.6551 52.0806C64.1577 52.0806 64.6668 52.1193 65.1823 52.1966C65.6978 52.2611 66.1682 52.3964 66.5935 52.6026C67.0188 52.8088 67.3668 53.0988 67.6374 53.4725C67.908 53.8333 68.0434 54.3166 68.0434 54.9224V60.1226C68.0434 60.5736 68.0691 61.0053 68.1207 61.4177C68.1723 61.8301 68.2625 62.1395 68.3913 62.3456H65.6076C65.556 62.191 65.5109 62.0364 65.4723 61.8817C65.4465 61.7142 65.4272 61.5466 65.4143 61.3791C64.9761 61.8301 64.4606 62.1459 63.8677 62.3263C63.2749 62.5068 62.6692 62.597 62.0506 62.597C61.5738 62.597 61.1292 62.5389 60.7167 62.423C60.3043 62.307 59.9435 62.1266 59.6341 61.8817C59.3249 61.6368 59.08 61.3275 58.8996 60.9538C58.732 60.5801 58.6482 60.1354 58.6482 59.6199C58.6482 59.0528 58.7449 58.5889 58.9382 58.2281C59.1445 57.8543 59.4022 57.5579 59.7115 57.3388C60.0337 57.1197 60.3945 56.9586 60.7941 56.8555C61.2065 56.7395 61.6189 56.6493 62.0312 56.5849C62.4437 56.5204 62.8496 56.4689 63.2492 56.4302C63.6487 56.3916 64.0031 56.3335 64.3124 56.2563C64.6217 56.1789 64.8665 56.0694 65.047 55.9276C65.2274 55.7729 65.3112 55.5539 65.2983 55.2704C65.2983 54.9739 65.2467 54.7419 65.1436 54.5744C65.0534 54.3939 64.9246 54.2586 64.757 54.1684C64.6024 54.0653 64.4155 54.0009 64.1964 53.9751C63.9902 53.9365 63.7647 53.9171 63.5198 53.9171C62.9785 53.9171 62.5532 54.0331 62.2439 54.2651C61.9346 54.4971 61.7542 54.8837 61.7026 55.425H58.9576ZM65.2983 57.4548C65.1823 57.5579 65.0341 57.6416 64.8537 57.7061C64.6861 57.7577 64.4993 57.8028 64.293 57.8414C64.0997 57.8801 63.8936 57.9123 63.6744 57.9381C63.4554 57.9638 63.2363 57.9961 63.0172 58.0347C62.811 58.0734 62.6048 58.1249 62.3986 58.1894C62.2053 58.2538 62.0312 58.344 61.8767 58.46C61.7349 58.5631 61.6189 58.6985 61.5287 58.866C61.4384 59.0335 61.3933 59.2461 61.3933 59.5039C61.3933 59.7488 61.4384 59.955 61.5287 60.1226C61.6189 60.2901 61.7413 60.4254 61.8959 60.5285C62.0506 60.6187 62.231 60.6832 62.4373 60.7218C62.6434 60.7605 62.8561 60.7798 63.0752 60.7798C63.6165 60.7798 64.0353 60.6896 64.3317 60.5091C64.6281 60.3287 64.8472 60.1161 64.989 59.8712C65.1308 59.6134 65.2146 59.3557 65.2403 59.0979C65.2789 58.8402 65.2983 58.634 65.2983 58.4794V57.4548ZM69.8519 52.3513V62.3456H72.597V57.1069C72.597 56.0887 72.7645 55.3606 73.0995 54.9224C73.4346 54.4713 73.9759 54.2458 74.7234 54.2458C75.3807 54.2458 75.8382 54.452 76.0959 54.8643C76.3538 55.2639 76.4826 55.8761 76.4826 56.7008V62.3456H79.2277V56.1982C79.2277 55.5796 79.1698 55.019 79.0533 54.5164C78.9504 54.0009 78.7637 53.5692 78.4933 53.2212C78.222 52.8603 77.8487 52.5833 77.3717 52.3899C76.9077 52.1837 76.3089 52.0806 75.574 52.0806C74.9941 52.0806 74.427 52.216 73.8729 52.4866C73.3186 52.7443 72.8676 53.1632 72.5196 53.7431H72.4617V52.3513H69.8519ZM81.3314 49.6538V62.3456H83.0205V56.533H89.7039V62.3456H91.3923V49.6538H89.7039V55.111H83.0205V49.6538H81.3314ZM100.45 58.7194L99.5615 59.7504L100.966 60.8703C100.397 61.1073 99.8098 61.2258 99.2056 61.2258C98.4354 61.2258 97.7717 61.0777 97.2148 60.7814C96.6578 60.4733 96.2015 60.0704 95.8464 59.5727C95.4906 59.0749 95.23 58.518 95.0639 57.9018C94.8978 57.2736 94.8156 56.6397 94.8156 55.9997C94.8156 55.3598 94.8978 54.7318 95.0639 54.1155C95.23 53.4874 95.4906 52.9245 95.8464 52.4269C96.2015 51.9291 96.6578 51.5322 97.2148 51.2358C97.7717 50.9277 98.4354 50.7737 99.2056 50.7737C99.9759 50.7737 100.64 50.9277 101.197 51.2358C101.753 51.5322 102.21 51.9291 102.566 52.4269C102.921 52.9245 103.181 53.4874 103.347 54.1155C103.513 54.7318 103.597 55.3598 103.597 55.9997C103.597 56.7819 103.478 57.5344 103.241 58.2573C103.004 58.9683 102.637 59.5727 102.139 60.0704L100.45 58.7194ZM104.183 63.43L105.037 62.3634L103.366 61.048C104.005 60.4081 104.485 59.6497 104.805 58.7728C105.125 57.8958 105.285 56.9715 105.285 55.9997C105.285 55.1347 105.155 54.3051 104.894 53.5111C104.645 52.7053 104.266 51.9943 103.757 51.3781C103.247 50.7619 102.613 50.2701 101.854 49.9027C101.096 49.5353 100.213 49.3517 99.2056 49.3517C98.1984 49.3517 97.3154 49.5353 96.5573 49.9027C95.7992 50.2701 95.1645 50.7619 94.6556 51.3781C94.1458 51.9943 93.7603 52.7053 93.4998 53.5111C93.2514 54.3051 93.1264 55.1347 93.1264 55.9997C93.1264 56.8648 93.2514 57.7003 93.4998 58.5061C93.7603 59.3001 94.1458 60.0052 94.6556 60.6214C95.1645 61.2376 95.7992 61.7294 96.5573 62.0968C97.3154 62.4523 98.1984 62.6301 99.2056 62.6301C100.379 62.6301 101.392 62.3812 102.246 61.8835L104.183 63.43Z" fill="#261E6B"/>
<path d="M12.342 94.12C11.99 92.36 10.538 90.072 6.754 90.072C3.806 90.072 1.32 92.184 1.32 94.956C1.32 97.31 2.926 98.916 5.412 99.422L7.59 99.862C8.8 100.104 9.482 100.808 9.482 101.71C9.482 102.81 8.58 103.624 6.952 103.624C4.752 103.624 3.674 102.238 3.542 100.698L0.726 101.446C0.968 103.668 2.794 106.33 6.93 106.33C10.56 106.33 12.562 103.91 12.562 101.512C12.562 99.312 11.044 97.464 8.206 96.914L6.028 96.496C4.884 96.276 4.334 95.594 4.334 94.736C4.334 93.702 5.302 92.756 6.776 92.756C8.756 92.756 9.46 94.098 9.614 94.956L12.342 94.12ZM21.9218 106H24.7158C24.6718 105.626 24.6058 104.878 24.6058 104.042V95.176H21.6798V101.468C21.6798 102.722 20.9318 103.602 19.6338 103.602C18.2698 103.602 17.6538 102.634 17.6538 101.424V95.176H14.7278V102.018C14.7278 104.372 16.2238 106.286 18.8418 106.286C19.9858 106.286 21.2398 105.846 21.8338 104.834C21.8338 105.274 21.8778 105.78 21.9218 106ZM30.5255 110.18V104.944C31.0535 105.67 32.1535 106.264 33.6495 106.264C36.7075 106.264 38.7535 103.844 38.7535 100.566C38.7535 97.354 36.9275 94.934 33.7595 94.934C32.1315 94.934 30.9215 95.66 30.4375 96.496V95.176H27.5995V110.18H30.5255ZM35.8715 100.588C35.8715 102.524 34.6835 103.646 33.1875 103.646C31.6915 103.646 30.4815 102.502 30.4815 100.588C30.4815 98.674 31.6915 97.552 33.1875 97.552C34.6835 97.552 35.8715 98.674 35.8715 100.588ZM43.4232 99.356C43.4892 98.366 44.3252 97.222 45.8432 97.222C47.5152 97.222 48.2192 98.278 48.2632 99.356H43.4232ZM48.5492 102.172C48.1972 103.14 47.4492 103.822 46.0852 103.822C44.6332 103.822 43.4232 102.788 43.3572 101.358H51.1012C51.1012 101.314 51.1452 100.874 51.1452 100.456C51.1452 96.98 49.1432 94.846 45.7992 94.846C43.0272 94.846 40.4752 97.09 40.4752 100.544C40.4752 104.196 43.0932 106.33 46.0632 106.33C48.7252 106.33 50.4412 104.768 50.9912 102.898L48.5492 102.172ZM60.1097 95.132C59.8897 95.11 59.6697 95.088 59.4277 95.088C58.5037 95.088 57.0077 95.352 56.3477 96.782V95.176H53.5097V106H56.4357V101.05C56.4357 98.718 57.7337 97.992 59.2297 97.992C59.4937 97.992 59.7797 98.014 60.1097 98.08V95.132ZM67.473 92.492C67.957 92.492 68.243 92.558 68.397 92.602V90.138C68.155 90.028 67.561 89.918 66.945 89.918C64.547 89.918 63.007 91.502 63.007 93.944V95.176H61.203V97.684H63.007V106H65.955V97.684H68.397V95.176H65.955V93.988C65.955 92.778 66.813 92.492 67.473 92.492ZM69.6725 103.052C69.6725 104.746 71.0805 106.308 73.3905 106.308C74.9965 106.308 76.0305 105.56 76.5805 104.702C76.5805 105.12 76.6245 105.714 76.6905 106H79.3745C79.3085 105.626 79.2425 104.856 79.2425 104.284V98.96C79.2425 96.782 77.9665 94.846 74.5345 94.846C71.6305 94.846 70.0685 96.716 69.8925 98.41L72.4885 98.96C72.5765 98.014 73.2805 97.2 74.5565 97.2C75.7885 97.2 76.3825 97.838 76.3825 98.608C76.3825 98.982 76.1845 99.29 75.5685 99.378L72.9065 99.774C71.1025 100.038 69.6725 101.116 69.6725 103.052ZM74.0065 104.13C73.0605 104.13 72.5985 103.514 72.5985 102.876C72.5985 102.04 73.1925 101.622 73.9405 101.512L76.3825 101.138V101.622C76.3825 103.536 75.2385 104.13 74.0065 104.13ZM81.4223 102.986C81.5543 104.218 82.6763 106.33 85.9323 106.33C88.7703 106.33 90.1343 104.526 90.1343 102.766C90.1343 101.182 89.0563 99.884 86.9223 99.444L85.3823 99.114C84.7883 99.004 84.3923 98.674 84.3923 98.146C84.3923 97.53 85.0083 97.068 85.7783 97.068C87.0103 97.068 87.4723 97.882 87.5603 98.52L90.0023 97.97C89.8703 96.804 88.8363 94.846 85.7563 94.846C83.4243 94.846 81.7083 96.452 81.7083 98.388C81.7083 99.906 82.6543 101.16 84.7443 101.622L86.1743 101.952C87.0103 102.128 87.3403 102.524 87.3403 103.008C87.3403 103.58 86.8783 104.086 85.9103 104.086C84.6343 104.086 83.9963 103.294 83.9303 102.436L81.4223 102.986ZM96.3098 91.942H93.6698V93.46C93.6698 94.428 93.1418 95.176 91.9978 95.176H91.4478V97.772H93.4058V102.81C93.4058 104.9 94.7258 106.154 96.8378 106.154C97.6958 106.154 98.2238 106 98.4878 105.89V103.47C98.3338 103.514 97.9378 103.558 97.5858 103.558C96.7498 103.558 96.3098 103.25 96.3098 102.304V97.772H98.4878V95.176H96.3098V91.942ZM116.262 106H119.562L113.622 90.402H110.102L104.118 106H107.33L108.628 102.436H114.964L116.262 106ZM111.796 93.768L113.952 99.664H109.64L111.796 93.768ZM124.659 97.508V93.042H127.057C128.575 93.042 129.499 93.9 129.499 95.286C129.499 96.628 128.575 97.508 127.057 97.508H124.659ZM127.431 100.126C130.511 100.126 132.557 98.102 132.557 95.264C132.557 92.448 130.511 90.402 127.431 90.402H121.601V106H124.637V100.126H127.431ZM138.002 106V90.402H134.922V106H138.002ZM140.44 102.986C140.572 104.218 141.694 106.33 144.95 106.33C147.788 106.33 149.152 104.526 149.152 102.766C149.152 101.182 148.074 99.884 145.94 99.444L144.4 99.114C143.806 99.004 143.41 98.674 143.41 98.146C143.41 97.53 144.026 97.068 144.796 97.068C146.028 97.068 146.49 97.882 146.578 98.52L149.02 97.97C148.888 96.804 147.854 94.846 144.774 94.846C142.442 94.846 140.726 96.452 140.726 98.388C140.726 99.906 141.672 101.16 143.762 101.622L145.192 101.952C146.028 102.128 146.358 102.524 146.358 103.008C146.358 103.58 145.896 104.086 144.928 104.086C143.652 104.086 143.014 103.294 142.948 102.436L140.44 102.986Z" fill="#261E6B"/>
<defs>
<linearGradient id="paint0_linear_49506_10116" x1="334.535" y1="32.6415" x2="317.54" y2="32.6415" gradientUnits="userSpaceOnUse">
<stop/>
<stop offset="0.0469354" stop-color="#2F2F2F"/>
<stop offset="0.0981487" stop-color="#5A5A5A"/>
<stop offset="0.155" stop-color="#828282"/>
<stop offset="0.2161" stop-color="#A4A4A4"/>
<stop offset="0.2828" stop-color="#C0C0C0"/>
<stop offset="0.3571" stop-color="#D7D7D7"/>
<stop offset="0.442" stop-color="#E9E9E9"/>
<stop offset="0.5443" stop-color="#F6F6F6"/>
<stop offset="0.6813" stop-color="#FDFDFD"/>
<stop offset="1" stop-color="white"/>
</linearGradient>
<linearGradient id="paint1_linear_49506_10116" x1="277.841" y1="22.4114" x2="277.445" y2="47.3279" gradientUnits="userSpaceOnUse">
<stop stop-color="white" stop-opacity="0"/>
<stop offset="1" stop-color="#3CB6FA"/>
</linearGradient>
<linearGradient id="paint2_linear_49506_10116" x1="359.748" y1="15.467" x2="359.37" y2="39.8247" gradientUnits="userSpaceOnUse">
<stop stop-color="white" stop-opacity="0"/>
<stop offset="1" stop-color="#3CB6FA"/>
</linearGradient>
<linearGradient id="paint3_linear_49506_10116" x1="352.302" y1="66.5729" x2="351.909" y2="91.6056" gradientUnits="userSpaceOnUse">
<stop stop-color="white" stop-opacity="0"/>
<stop offset="1" stop-color="#3CB6FA"/>
</linearGradient>
<linearGradient id="paint4_linear_49506_10116" x1="358.228" y1="158.996" x2="1" y2="158.996" gradientUnits="userSpaceOnUse">
<stop stop-color="#E9E9E9" stop-opacity="0"/>
<stop offset="0.0601502" stop-color="#E9E9E9"/>
<stop offset="0.506608" stop-color="#E9E9E9"/>
<stop offset="0.947551" stop-color="#E9E9E9"/>
<stop offset="1" stop-color="#E9E9E9" stop-opacity="0"/>
</linearGradient>
<linearGradient id="paint5_linear_49506_10116" x1="10.8821" y1="48.6305" x2="22.4363" y2="64.9249" gradientUnits="userSpaceOnUse">
<stop stop-color="#7B90FF"/>
<stop offset="1" stop-color="#4059E1"/>
</linearGradient>
<clipPath id="clip0_49506_10116">
<path d="M216 0H366C369.866 0 373 3.13401 373 7V157H216V0Z" fill="white"/>
</clipPath>
<clipPath id="clip1_49506_10116">
<rect width="26.7556" height="39.881" fill="white" transform="matrix(-1 0 0 1 373 13.1953)"/>
</clipPath>
</defs>
</svg>
