<svg width="35" height="35" viewBox="0 0 35 35" fill="none" xmlns="http://www.w3.org/2000/svg">
<rect x="14" y="8" width="19.6444" height="24.4178" rx="2.12382" fill="url(#paint0_linear_8306_7864)" fill-opacity="0.8"/>
<circle cx="15.7322" cy="9.45096" r="4.96096" stroke="#444444" stroke-width="0.98"/>
<circle cx="24.9421" cy="11.9441" r="3.69429" stroke="#444444" stroke-width="0.98"/>
<circle r="3.69429" transform="matrix(-1 0 0 1 6.33134 11.9441)" stroke="#444444" stroke-width="0.98"/>
<path d="M8.75 25.581C8.75 27.7996 11.0876 28.3968 12.2565 28.418H19.5882C21.9343 28.418 22.6271 26.5267 22.6802 25.581V21.0863C22.5102 18.9612 20.8569 14.7109 15.6035 14.7109C10.3502 14.7109 8.84563 18.9612 8.75 21.0863V25.581Z" stroke="#444444" stroke-width="0.98"/>
<path d="M21.2109 17.2919C22.0207 16.5315 23.1907 15.9824 24.8451 15.9824C28.8777 15.9824 30.1468 19.245 30.2773 20.8763V24.3265C30.2366 25.0525 29.7048 26.5043 27.9038 26.5043C26.2209 26.5043 23.7518 26.5043 22.5168 26.5043" stroke="#444444" stroke-width="0.98"/>
<path d="M10.0703 17.2919C9.26057 16.5315 8.09051 15.9824 6.43614 15.9824C2.40356 15.9824 1.13441 19.245 1.0039 20.8763V24.3265C1.04468 25.0525 1.57649 26.5043 3.37745 26.5043C5.06032 26.5043 7.52946 26.5043 8.7644 26.5043" stroke="#444444" stroke-width="0.98"/>
<defs>
<linearGradient id="paint0_linear_8306_7864" x1="23.8222" y1="8" x2="30.9434" y2="31.9511" gradientUnits="userSpaceOnUse">
<stop stop-color="#929EFF"/>
<stop offset="1" stop-color="#6070E9"/>
</linearGradient>
</defs>
</svg>
