<svg width="200" height="200" viewBox="0 0 200 200" fill="none" xmlns="http://www.w3.org/2000/svg">
<g clip-path="url(#clip0_49480_15473)">
<path d="M0 83.4264V100.333H16.3941H32.7882V125.949V151.564H49.1824H65.5765V109.042V66.52H32.7882H0V83.4264Z" fill="#121212"/>
<path d="M90.6017 67.5887C88.7574 67.9985 85.6835 69.3306 83.7367 70.5601C69.3918 79.4744 74.8224 102.324 91.7288 104.271C100.438 105.193 107.611 100.684 111.504 91.8725C116.73 79.7818 103.819 64.8222 90.6017 67.5887Z" fill="#121212"/>
<path d="M128.294 69.0815C125.527 75.0244 94.2759 150.335 94.2759 150.95C94.2759 151.257 102.473 151.564 112.617 151.564H130.958L133.007 146.646C140.794 128.408 166 67.6471 166 67.1347C166 66.8273 157.803 66.52 147.762 66.52H129.421L128.294 69.0815Z" fill="#121212"/>
<path d="M178.009 59C190.164 59 200.017 49.1503 200.017 37C200.017 24.8498 190.164 15 178.009 15C165.854 15 156 24.8498 156 37C156 49.1503 165.854 59 178.009 59Z" fill="url(#paint0_linear_49480_15473)"/>
<path fill-rule="evenodd" clip-rule="evenodd" d="M187.993 56.6116L170.671 43.2063L173.117 37.0012L168.978 31.3601L170.671 26.2832H188.165L200.016 37.056C199.995 45.5895 195.114 52.9812 187.993 56.6116Z" fill="#17875F"/>
<path d="M189.848 29.3711H184.828V49.1914C184.009 49.1914 183.203 49.035 182.408 48.722C181.613 48.4332 181.216 48.0963 181.216 47.7111V43.4151C179.531 44.4741 177.701 45.0035 175.726 45.0035C173.752 45.0035 172.139 44.4981 170.887 43.4871C169.659 42.4523 169.045 41.1165 169.045 39.4798C169.045 38.2283 169.478 37.1091 170.345 36.1223C169.117 35.665 168.142 34.991 167.419 34.1004C166.697 33.1859 166.336 32.1027 166.336 30.8513C166.336 29.5997 166.842 28.4565 167.853 27.4215C168.888 26.3867 170.297 25.8691 172.079 25.8691C173.379 25.8691 174.378 26.1579 175.076 26.7356C175.799 27.3132 176.16 28.0232 176.16 28.8657C176.16 30.5745 175.052 31.7779 172.837 32.4759C172.476 32.1871 172.211 31.7779 172.042 31.2485C173.029 30.5985 173.523 29.9127 173.523 29.1906C173.523 28.7813 173.403 28.4565 173.162 28.2158C172.921 27.951 172.536 27.8186 172.006 27.8186C171.477 27.8186 170.959 28.1076 170.453 28.6851C169.948 29.2628 169.695 30.0209 169.695 30.9596C169.695 31.8742 169.948 32.6443 170.453 33.2703C170.983 33.8718 171.645 34.2931 172.44 34.5338C173.499 34.0043 174.691 33.6072 176.015 33.3423C176.93 34.2089 177.508 35.1113 177.749 36.05C176.256 36.3389 174.992 36.7961 173.957 37.422C172.945 38.0237 172.44 38.7217 172.44 39.5159C172.44 40.2861 172.705 40.9118 173.234 41.3933C173.788 41.8747 174.571 42.1153 175.582 42.1153C176.617 42.1153 177.641 41.8265 178.652 41.2488C179.663 40.6711 180.518 39.913 181.216 38.9743V29.3711H178.724C177.857 28.3602 177.424 27.2891 177.424 26.1579H188.728C189.475 27.1206 189.848 28.1918 189.848 29.3711Z" fill="white"/>
</g>
<defs>
<linearGradient id="paint0_linear_49480_15473" x1="197.266" y1="52.4" x2="181.563" y2="14.3976" gradientUnits="userSpaceOnUse">
<stop stop-color="#138C61"/>
<stop offset="1" stop-color="#4DBA93" stop-opacity="0.99"/>
</linearGradient>
<clipPath id="clip0_49480_15473">
<rect width="200" height="200" fill="white"/>
</clipPath>
</defs>
</svg>
